<?xml version="1.0" encoding="utf-8"?>
<!-- Generator: Adobe Illustrator 24.0.1, SVG Export Plug-In . SVG Version: 6.00 Build 0)  -->
<svg version="1.1" id="logostrom" xmlns="http://www.w3.org/2000/svg" xmlns:xlink="http://www.w3.org/1999/xlink" x="0px" y="0px"
	 viewBox="0 0 263 148.5" style="enable-background:new 0 0 263 148.5;" xml:space="preserve">
<style type="text/css">
	.st0{fill:#FFFFFF;}
	.st1{fill:#00788A;}
	.st2{fill:#9D8D85;}
</style>
<g>
	
		<rect x="23.1" y="23.6" transform="matrix(0.7071 -0.7071 0.7071 0.7071 -31.0848 74.3874)" class="st0" width="102.2" height="102.2"/>
	<g>
		<polygon class="st1" points="74.3,7.9 61.2,20.9 115,74.7 61.2,128.5 74.3,141.6 141.1,74.7 		"/>
	</g>
	<path class="st0" d="M125.7,77c-1.2,1.2-3.3,1.2-4.5,0c-1.2-1.2-1.2-3.2,0-4.5c1.2-1.2,3.2-1.2,4.5,0C127,73.7,127,75.7,125.7,77z"
		/>
	
		<rect x="22.4" y="38.6" transform="matrix(0.7071 -0.7071 0.7071 0.7071 -35.7022 63.2321)" class="st1" width="72.2" height="72.2"/>
	<rect x="49.8" y="41.6" class="st0" width="18.8" height="1.4"/>
	<rect x="31.9" y="56.6" class="st0" width="18.8" height="1.4"/>
	<path class="st0" d="M94.5,89.8l1.1-1.1c-3.7-1.6-8-2.8-12.4-3.1c-1.1-1.8-2.5-3.5-4-5c-1.3-1.3-2.8-2.5-4.4-3.6V58.6h8.7v-1.4
		H64.8v1.4h8.7v17.6c-4-2.3-8.7-3.7-13.6-3.8l0-24.9h8.8V46H49.8v1.4h8.5l0,25c-3.9,0.1-7.5,1.1-10.9,2.7c-1.8-0.8-3.7-1.5-5.7-2.1
		V62.4h8.8V61H31.9v1.4h8.5v10.2c-2.6-0.6-5.4-0.9-8.2-0.9c-7.5,0-15.3,2.6-21.2,6.6l1,1c5.6-3.7,13.1-6.2,20.2-6.2
		c2.8,0,5.6,0.3,8.2,1V92c-3.9,1.1-7.6,2.8-10.8,4.9l1,1c5.6-3.5,12.8-5.9,19.8-5.9c8.2,0,15.8,2.9,21.8,7.6
		c-5.3-0.4-10.8,0.8-15.9,3.7c-2.2,1.3-4.1,2.8-5.8,4.5c-1.7,1.7-3.1,3.6-4.3,5.6l1,1c1.2-2,2.6-3.9,4.3-5.6c1.6-1.6,3.5-3,5.6-4.3
		c7.7-4.4,16.4-4.6,23.9-1.2l1.1-1.1c-2.3-1.1-4.7-1.9-7.2-2.3c-2.7-2.4-5.7-4.5-9.1-6c-0.4-1-0.9-2-1.4-2.9
		c4.9-2.6,10.4-4.2,16.1-4.2C85.3,86.9,90.2,88,94.5,89.8z M58.4,73.8l0,9.1c-0.2-0.2-0.3-0.4-0.5-0.5c-2.6-2.6-5.5-4.7-8.8-6.5
		C52,74.6,55.1,73.9,58.4,73.8z M63.8,93.1c-4.1-1.6-8.7-2.5-13.4-2.5c-2.9,0-5.7,0.4-8.6,1.1V74.5c5.8,1.6,10.9,4.7,15,8.9
		C59.7,86.2,62.1,89.5,63.8,93.1z M63.6,89.8c-1.1-1.9-2.4-3.7-3.8-5.3l0-10.7c5,0.1,9.7,1.6,13.6,4v8.4
		C70,86.9,66.7,88.1,63.6,89.8z M80.5,85.4c-1.9,0-3.8,0.2-5.6,0.5v-7.1c1.2,0.9,2.3,1.8,3.4,2.8c1.2,1.2,2.3,2.5,3.2,3.9
		C81.1,85.5,80.8,85.4,80.5,85.4z"/>
	<rect x="64.6" y="52.8" class="st0" width="18.8" height="1.4"/>
	<g>
		<path class="st0" d="M68.7,125l4.7-4.7l0.9,0.9l-3.7,3.7l2.7,2.7l3.6-3.6l0.9,0.9l-3.6,3.6l3.6,3.5l3.7-3.7l0.9,0.9l-4.7,4.7
			L68.7,125z"/>
		<path class="st0" d="M75.3,117.6l14.4,0.3l-7-7l1-1l9.5,9.5l-14.4-0.3l7,7l-1,1L75.3,117.6z"/>
		<path class="st0" d="M86.2,107.5l4.7-4.7l0.9,0.9l-3.7,3.7l2.7,2.7l3.6-3.6l0.9,0.9l-3.6,3.6l3.5,3.5l3.7-3.7l0.9,0.9l-4.7,4.7
			L86.2,107.5z"/>
		<path class="st0" d="M103.2,108.6l-1,1l-9.1-9.1l1.3-1.3c1.7-1.7,3.8-2.9,5.8-0.8c1.4,1.4,1.5,3.2,0.2,4.8l6.9,1.2l-1.2,1.2
			l-6.7-1.2l-0.2,0.2L103.2,108.6z M98.3,103.7l0.3-0.3c1.1-1.1,2.1-2.5,0.7-3.9c-1.5-1.5-2.7-0.5-3.9,0.7l-0.3,0.3L98.3,103.7z"/>
		<path class="st0" d="M113.1,89.6c1.2,1.2,2.1,2.3,2.3,4.1c0.1,1.8-0.6,3.6-1.8,4.9c-2.5,2.5-6.8,2.5-9.3,0c-2.6-2.6-2.6-6.8,0-9.4
			c1.6-1.6,3.6-2.2,5.8-1.9l0,1.4c-1.8-0.3-3.5,0.1-4.8,1.4c-2.1,2.1-2,5.4,0.1,7.5c1,1,2.3,1.5,3.6,1.5c1.3,0,2.8-0.5,3.7-1.4
			c1.6-1.6,2.1-4.4,0.4-6.1l-2.7,2.7l-0.9-0.9L113.1,89.6z"/>
		<path class="st0" d="M120.6,91.2l-1,1l-9.1-9.1l1-1L120.6,91.2z"/>
	</g>
	<g>
		<path class="st0" d="M72.1,22.7l-3.7,1.5l-1.1-1.1l13.7-5.3l-5.4,13.5l-1.1-1.1l1.5-3.6L72.1,22.7z M78.6,20.1l-5.2,2.1l3.1,3.1
			L78.6,20.1z"/>
		<path class="st0" d="M86.9,23.8l-0.3,14.4l7-7l1,1l-9.5,9.5l0.3-14.4l-7,7l-1-1L86.9,23.8z"/>
		<path class="st0" d="M97.3,34.9l1.7,1.7c1.4,1.4,2.3,2.6,2.4,4.6c0.1,1.9-0.6,3.6-1.9,4.9c-1.3,1.3-3,2-4.8,1.9
			c-2-0.1-3.3-1-4.7-2.4L88.2,44L97.3,34.9z M90.9,44.8c1.1,1.1,2.2,1.9,3.8,1.9c1.4,0,2.8-0.5,3.8-1.5c1-1,1.6-2.4,1.5-3.9
			c-0.1-1.6-0.9-2.6-1.9-3.7l-0.7-0.7l-7.2,7.2L90.9,44.8z"/>
		<path class="st0" d="M99.4,52.1c0.1-1.5,0.7-3,1.9-4.1c2.6-2.6,6.8-2.6,9.4,0c1.1,1.1,1.8,2.6,1.9,4.1l2.2,0l0,1.1l-2.2,0
			c-0.1,1.5-0.7,3-1.9,4.2c-2.6,2.6-6.8,2.5-9.4,0c-1.2-1.2-1.8-2.6-1.9-4.2h-2.2l0-1.1C97.2,52.1,99.4,52.1,99.4,52.1z M111.3,52.1
			c-0.1-1.1-0.6-2.3-1.5-3.2c-2.1-2.1-5.4-2-7.4,0c-0.9,0.9-1.4,2-1.5,3.1L111.3,52.1z M100.8,53.2c0.1,1.2,0.6,2.3,1.5,3.2
			c2.1,2.1,5.4,2,7.4,0c0.9-0.9,1.4-2,1.5-3.2L100.8,53.2z"/>
		<path class="st0" d="M116.6,54.3l1.2,1.2l-1.7,6.3l6.3-1.7l1.2,1.2l-8.1,2.2l-3.9,3.9l-1-1l3.9-3.9L116.6,54.3z"/>
	</g>
</g>
<g>
	<path class="st2" d="M259,104.4c-5.3-0.1-10.5,0.9-15.6,2.1c-5.6,1.3-11.2,2.9-16.8,4.3c-2.3,0.6-4.6,1.2-7,1.6
		c-0.6,0.1-4.7,1.1-4.9,0.2c-0.2-0.5,0.4-1.4,0.6-1.9c0.3-0.6,0.6-1.2,0.7-1.9c0.3-1.7-2.4-0.8-3.1-0.6c-2.3,0.9-4.3,2.4-6.3,3.7
		c-0.7,0.4-1.4,1-2.2,1.1c0-0.1,0.1-0.2,0.1-0.3c0.2-0.4,0.5-0.8,0.7-1.1c0.7-1,2.3-2.5,2.3-3.9c0-1.5-2.7-0.4-3.3-0.2
		c-2.9,1.1-5.5,2.8-8.1,4.5c-0.2,0.1-0.4,0.3-0.6,0.4c0.1-0.1,0.1-0.1,0.2-0.2c1-1.3,2.1-2.6,3-4.1c0.2-0.3,0.5-0.7,0.4-1
		c-0.1-0.2-0.2-0.3-0.4-0.3c-0.8,0-1.7,0.4-2.5,0.5c-2,0.4-4.1,0.5-6.2,0.6c-0.7,0-1.7-0.2-2.4,0c1.1-1.3,2.2-2.6,3.3-3.8
		c0.3-0.3-0.9-0.6-1.2-0.3c-1.2,1.4-3,3.8-4,3.8c-2.6,0-5.2,0.2-7.7,0.9c-2.3,0.6-4.5,1.6-6.5,2.9c-1.1,0.7-2.2,1.6-3.2,2.5
		c-0.3,0.3-0.7,0.7-1,1c0.3-0.7,0.7-1.3,1.1-2c0.7-1.2,1.6-2.2,2.4-3.2c0.2-0.2,0.4-0.6,0.1-0.8c-0.6-0.4-1.7,0.6-2.1,0.9
		c-1.3,1-2.7,2-4,3c-1.6,1.2-3.2,2.4-4.9,3.5c-1.3,0.8-2.6,1.8-4.1,2.1c-2.4,0.6,0.8-4,1.1-4.5c1.6-2.3,3.4-4.6,5.3-6.7
		c2.2-0.2,4.4-0.5,6.6-0.8c3.7-0.5,7.5-1.2,11.1-2.3c0.8-0.2-0.1-0.7-0.6-0.6c-3.6,1.1-7.3,1.7-11.1,2.3c-1.8,0.3-3.5,0.5-5.3,0.7
		c1.4-1.6,2.9-3.2,4.4-4.7c0.6-0.6-0.3-1.1-0.8-0.6c-1.7,1.8-3.4,3.6-5,5.5c-4,0.4-5.8,0.6-9.8,0.9c-0.8,0.1-0.3,0.7,0.3,0.6
		c3.7-0.3,5.2-0.4,8.9-0.8c-2,2.3-3.8,4.7-5.5,7.2c-0.6,0.9-2.9,4.5-0.7,4.9c1.1,0.2,2.3-0.4,3.3-0.9c1.6-0.9,3.2-1.9,4.7-3
		c1.7-1.2,3.3-2.4,4.9-3.6c0.3-0.2,0.6-0.4,0.9-0.7c-0.8,1-1.4,2.1-2,3.3c-0.2,0.5-1.6,2.9-0.9,3.4c0.3,0.2,0.6,0,0.8-0.2
		c0.4-0.3,0.7-0.9,1-1.3c0.5-0.6,1-1.2,1.5-1.7c0.9-1,2-1.8,3.2-2.6c2-1.3,4.2-2.2,6.4-2.8c1.5-0.4,3.1-0.7,4.7-0.8
		c-1.8,1.4-3.1,4-3.7,5.6c-0.3,0.7-0.6,1.7,0,2.3c-0.9,1.4-1.8,2.8-2.6,4.3c-0.2,0.4,1,0.6,1.2,0.2c0.8-1.4,1.6-2.9,2.6-4.2
		c0.4-0.1,0.9-0.2,1.2-0.3c2.3-0.9,4.4-2.8,6-4.7c0.6-0.7,1.2-1.6,1.3-2.6c0-0.2,0-0.3,0-0.5c0.1,0,0.2,0,0.4,0
		c1.2,0,2.5-0.1,3.7-0.2c1.5-0.1,3.1-0.4,4.6-0.7c-0.1,0.1-0.1,0.2-0.2,0.3c-0.9,1.3-1.8,2.5-2.8,3.7c-0.4,0.5-1.5,1.6-1.4,2.3
		c0,0.1,0.1,0.2,0.3,0.3c0.8,0.2,1.9-1,2.5-1.3c1.6-1,3.1-2,4.8-2.9c1.2-0.7,2.5-1.4,3.8-1.9c0.3-0.1,1.9-0.7,1.9-0.4
		c-0.4,1.5-1.9,2.8-2.8,4.2c-0.6,1-0.6,2.1,0.9,1.8c1.9-0.5,3.7-2.1,5.4-3.1c1-0.7,2.1-1.3,3.2-1.7c0.5-0.2,2-0.9,1.7,0.1
		c-0.4,1.2-1.5,2.5-1.3,3.8c0.2,1.4,2.8,0.8,3.7,0.7c6.6-0.8,13.1-3,19.5-4.7c7.1-1.9,14.5-3.9,21.9-3.7
		C259.3,105.5,259.8,104.4,259,104.4z M166.6,117.4C166.6,117.5,166.6,117.5,166.6,117.4L166.6,117.4z M180.4,114.8
		c0.5-1.8,1.6-3.6,3-4.9c1.4-1.3,2.1-1.2,2.1-1.2c-1.8,2.2-3.6,4.4-5.3,6.7C180.3,115.3,180.3,115.1,180.4,114.8z M187.1,111.2
		c-1.2,1.6-2.9,3-4.6,4c-0.3,0.2-0.7,0.4-1.1,0.6c1.7-2.4,3.6-4.8,5.5-7.1c0.6,0,0.8,0.2,1,0.7C188,110.1,187.4,110.8,187.1,111.2z"
		/>
	<path class="st2" d="M162.4,93.4c2.8-1.9,5.9-3.4,9.2-4.2c1.7-0.4,3.5-0.7,5.3-0.8c0.5,0,4.5-0.3,4.2,0.6c-0.1,0.3,1.1,0.2,1.2-0.1
		c0.5-1.2-2.8-1.1-3.2-1.1c-2.3,0-4.5,0.3-6.7,0.8c-4.1,0.9-7.9,2.7-11.3,5c-7,4.9-12.2,11.9-17.5,18.6
		c-5.3,6.7-11.1,13.5-18.9,17.3c-3.8,1.9-16,5.9-15.1-2.3c0.5-4.7,4.6-8.9,8.1-11.7c5.8-4.6,13.2-7,20.6-7c0.4,0,1.3-0.5,0.5-0.5
		c-9.4,0-18.8,3.5-25.3,10.3c-2.2,2.3-4.2,5.1-5,8.2c-0.5,2.1-0.2,4.4,1.8,5.5c2.7,1.6,6.7,0.5,9.5-0.2c4.1-1.1,7.8-3,11.2-5.5
		c6.9-5.1,12-12.2,17.4-18.9C152.6,102.2,156.9,97.1,162.4,93.4z"/>
</g>
</svg>
