<?xml version="1.0" encoding="UTF-8" standalone="no"?>
<!-- Created with Inkscape (http://www.inkscape.org/) -->

<svg
   width="258mm"
   height="83mm"
   viewBox="0 0 258 83"
   version="1.1"
   id="svg5"
   inkscape:version="1.1.2 (b8e25be833, 2022-02-05)"
   sodipodi:docname="trident-international-white.svg"
   inkscape:export-filename="C:\Users\matsh\Documents\cansat\designs\trident-international.png"
   inkscape:export-xdpi="600"
   inkscape:export-ydpi="600"
   xmlns:inkscape="http://www.inkscape.org/namespaces/inkscape"
   xmlns:sodipodi="http://sodipodi.sourceforge.net/DTD/sodipodi-0.dtd"
   xmlns="http://www.w3.org/2000/svg"
   xmlns:svg="http://www.w3.org/2000/svg">
  <sodipodi:namedview
     id="namedview7"
     pagecolor="#505050"
     bordercolor="#ffffff"
     borderopacity="1"
     inkscape:pageshadow="0"
     inkscape:pageopacity="0"
     inkscape:pagecheckerboard="1"
     inkscape:document-units="mm"
     showgrid="false"
     width="211mm"
     inkscape:zoom="1"
     inkscape:cx="546.5"
     inkscape:cy="126"
     inkscape:window-width="1920"
     inkscape:window-height="1051"
     inkscape:window-x="-9"
     inkscape:window-y="-9"
     inkscape:window-maximized="1"
     inkscape:current-layer="text2562"
     height="63mm" />
  <defs
     id="defs2">
    <rect
       x="446.89148"
       y="268.70059"
       width="958.83679"
       height="124.45079"
       id="rect4170" />
    <rect
       x="159.61237"
       y="431.73834"
       width="752.27136"
       height="238.11023"
       id="rect2564" />
  </defs>
  <g
     inkscape:label="Lag 1"
     inkscape:groupmode="layer"
     id="layer1">
    <g
       aria-label="TRIDENT"
       transform="matrix(0.26458333,0,0,0.26458333,-36.692308,-14.538462)"
       id="text2562"
       style="font-style:italic;font-size:192px;line-height:1.25;font-family:'Arial Rounded MT Bold';-inkscape-font-specification:'Arial Rounded MT Bold,  Italic';white-space:pre;shape-inside:url(#rect2564)">
      <path
         d="m 195.23919,146.2808 h 22.3125 v 125.15625 h -22.3125 z m -37.875,-11.15625 h 98.0625 v 21.46875 h -98.0625 z"
         style="font-style:normal;font-weight:600;font-family:Bahnschrift;-inkscape-font-specification:'Bahnschrift Semi-Bold';fill:#ffffff;fill-opacity:1;fill-rule:nonzero;stroke:#feffff;stroke-width:7.55906;stroke-miterlimit:4;stroke-dasharray:none;stroke-opacity:1"
         id="path16234" />
      <path
         d="m 309.58294,193.7183 h 46.96875 q 4.6875,0 8.25,-2.25 3.65625,-2.34375 5.625,-6.5625 1.96875,-4.21875 2.0625,-9.84375 v 0 q 0,-5.53125 -1.96875,-9.75 -1.96875,-4.21875 -5.625,-6.46875 -3.5625,-2.34375 -8.34375,-2.34375 H 309.58294 V 135.0308 h 47.625 q 11.53125,0 20.25,4.96875 8.71875,4.96875 13.5,14.0625 4.875,9.09375 4.875,21 v 0 q 0,12 -4.875,21.09375 -4.78125,9.09375 -13.59375,14.0625 -8.71875,4.96875 -20.15625,4.96875 h -47.625 z m -9.28125,-58.6875 h 22.40625 v 136.40625 h -22.40625 z m 42.1875,75.9375 23.25,-4.3125 35.8125,64.78125 h -26.90625 z"
         style="font-style:normal;font-weight:600;font-family:Bahnschrift;-inkscape-font-specification:'Bahnschrift Semi-Bold';fill:#ffffff;fill-opacity:1;fill-rule:nonzero;stroke:#feffff;stroke-width:7.55906;stroke-miterlimit:4;stroke-dasharray:none;stroke-opacity:1"
         id="path16236" />
      <path
         id="path16238"
         style="font-style:normal;font-weight:600;font-family:Bahnschrift;-inkscape-font-specification:'Bahnschrift Semi-Bold';fill:#ffffff;fill-opacity:1;fill-rule:nonzero;stroke:none;stroke-width:6.21409;stroke-miterlimit:4;stroke-dasharray:none;stroke-opacity:1"
         d="m 364.21094,161.2207 h -14.21875 l -16.19727,18.71875 v 40.33985 h 30.41602 z"
         transform="translate(138.67959,54.948518)" />
      <path
         d="m 597.27044,249.9683 h 31.78125 q 13.875,0 21.46875,-6.9375 7.6875,-6.9375 7.6875,-19.6875 v -40.125 q 0,-12.75 -7.6875,-19.6875 -7.59375,-6.9375 -21.46875,-6.9375 h -31.78125 v -21.46875 h 31.21875 q 16.6875,0 28.5,5.71875 11.90625,5.71875 18.09375,16.6875 6.1875,10.96875 6.1875,26.4375 v 38.625 q 0,15.09375 -6.09375,26.0625 -6.09375,10.96875 -18,16.875 -11.8125,5.90625 -28.78125,5.90625 h -31.125 z m -12.9375,-114.84375 h 22.40625 v 136.3125 h -22.40625 z"
         style="font-style:normal;font-weight:600;font-family:Bahnschrift;-inkscape-font-specification:'Bahnschrift Semi-Bold';fill:#ffffff;fill-opacity:1;fill-rule:nonzero;stroke:#feffff;stroke-width:7.55906;stroke-linecap:butt;stroke-linejoin:miter;stroke-miterlimit:4;stroke-dasharray:none;stroke-opacity:1;paint-order:markers fill stroke"
         id="path16240" />
      <path
         d="m 724.45794,135.12455 h 22.40625 v 136.3125 h -22.40625 z m 9.28125,114.84375 h 80.15625 v 21.46875 h -80.15625 z m 0,-56.90625 h 69.84375 v 21.375 h -69.84375 z m 0,-57.9375 h 80.15625 v 21.46875 h -80.15625 z"
         style="font-style:normal;font-weight:600;font-family:Bahnschrift;-inkscape-font-specification:'Bahnschrift Semi-Bold';fill:#ffffff;fill-opacity:1;fill-rule:nonzero;stroke:#feffff;stroke-width:7.55906;stroke-miterlimit:4;stroke-dasharray:none;stroke-opacity:1"
         id="path16242" />
      <path
         d="m 857.20794,135.12455 h 24.375 l 58.6875,104.90625 -2.25,2.4375 V 135.12455 h 21.75 V 271.3433 h -24.5625 l -58.5,-103.3125 2.25,-2.4375 v 105.75 h -21.75 z"
         style="font-style:normal;font-weight:600;font-family:Bahnschrift;-inkscape-font-specification:'Bahnschrift Semi-Bold';fill:#ffffff;fill-opacity:1;fill-rule:nonzero;stroke:#feffff;stroke-width:7.55906;stroke-miterlimit:4;stroke-dasharray:none;stroke-opacity:1"
         id="path16244" />
      <path
         d="m 1038.2704,146.2808 h 22.3125 v 125.15625 h -22.3125 z m -37.875,-11.15625 h 98.0625 v 21.46875 h -98.0625 z"
         style="font-style:normal;font-weight:600;font-family:Bahnschrift;-inkscape-font-specification:'Bahnschrift Semi-Bold';fill:#ffffff;fill-opacity:1;fill-rule:nonzero;stroke:#feffff;stroke-width:7.55906;stroke-miterlimit:4;stroke-dasharray:none;stroke-opacity:1"
         id="path16246" />
      <g
         id="g17740"
         transform="translate(-58.121034,185.03111)"
         style="stroke-width:6.67087;stroke-miterlimit:4;stroke-dasharray:none;fill:none">
        <path
           style="font-style:italic;font-size:192px;line-height:1.25;font-family:'Arial Rounded MT Bold';-inkscape-font-specification:'Arial Rounded MT Bold,  Italic';white-space:pre;shape-inside:url(#rect2564);fill:none;stroke:#000000;stroke-width:6.67087;stroke-linecap:butt;stroke-linejoin:round;stroke-miterlimit:4;stroke-dasharray:none;stroke-opacity:1"
           d="m 491.23819,-7.0803 39.13368,-35.78534 c 0,0 12.55626,3.55761 20.29929,13.39335 7.74303,9.83573 8.58011,20.29929 8.58011,20.29929 l -41.22639,44.993265 c 0,0 -11.46399,-1.458429 -21.34565,-13.602616 C 485.22997,8.14692 491.23819,-7.0803 491.23819,-7.0803 Z"
           id="path6694"
           sodipodi:nodetypes="ccsccsc" />
        <path
           style="font-style:italic;font-size:192px;line-height:1.25;font-family:'Arial Rounded MT Bold';-inkscape-font-specification:'Arial Rounded MT Bold,  Italic';white-space:pre;shape-inside:url(#rect2564);fill:none;stroke:#000000;stroke-width:6.67087;stroke-linecap:butt;stroke-linejoin:miter;stroke-miterlimit:4;stroke-dasharray:none;stroke-opacity:1"
           d="m 491.23819,-7.0803 c 0,0 16.11387,5.02251 23.22908,16.95095 7.11522,11.92845 3.55761,25.949615 3.55761,25.949615"
           id="path8116"
           sodipodi:nodetypes="csc" />
        <path
           style="font-style:italic;font-size:192px;line-height:1.25;font-family:'Arial Rounded MT Bold';-inkscape-font-specification:'Arial Rounded MT Bold,  Italic';white-space:pre;shape-inside:url(#rect2564);fill:none;stroke:#000000;stroke-width:6.67087;stroke-linecap:butt;stroke-linejoin:miter;stroke-miterlimit:4;stroke-dasharray:none;stroke-opacity:1"
           d="m 534.34802,-41.19147 -1.4649,-28.04231 c 0,0 1.25563,-11.71918 10.8821,-10.8821 6.10328,0.53072 6.69667,9.20792 6.69667,9.20792 l -1.88345,38.50587"
           id="path8402"
           sodipodi:nodetypes="ccscc" />
        <path
           style="font-style:italic;font-size:192px;line-height:1.25;font-family:'Arial Rounded MT Bold';-inkscape-font-specification:'Arial Rounded MT Bold,  Italic';white-space:pre;shape-inside:url(#rect2564);fill:none;stroke:#000000;stroke-width:6.67087;stroke-linecap:butt;stroke-linejoin:miter;stroke-miterlimit:4;stroke-dasharray:none;stroke-opacity:1"
           d="m 554.64731,-23.61271 31.18138,8.78938 c 0,0 7.9523,2.51126 6.06886,11.09137 -1.88344,8.58011 -11.71918,4.81323 -11.71918,4.81323 L 556.53075,-5.6154"
           id="path8404"
           sodipodi:nodetypes="ccscc" />
        <path
           style="font-style:italic;font-size:192px;line-height:1.25;font-family:'Arial Rounded MT Bold';-inkscape-font-specification:'Arial Rounded MT Bold,  Italic';white-space:pre;shape-inside:url(#rect2564);fill:none;stroke:#000000;stroke-width:6.67087;stroke-linecap:butt;stroke-linejoin:miter;stroke-miterlimit:4;stroke-dasharray:none;stroke-opacity:1"
           d="m 532.88312,-59.39804 c 0,0 3.76688,2.72052 9.4172,3.13906 5.65031,0.41854 9.62646,-3.5576 9.62646,-3.5576"
           id="path9066" />
        <path
           style="font-style:italic;font-size:192px;line-height:1.25;font-family:'Arial Rounded MT Bold';-inkscape-font-specification:'Arial Rounded MT Bold,  Italic';white-space:pre;shape-inside:url(#rect2564);fill:none;stroke:#000000;stroke-width:6.67087;stroke-linecap:butt;stroke-linejoin:miter;stroke-miterlimit:4;stroke-dasharray:none;stroke-opacity:1"
           d="m 574.73732,-18.38093 c 0,0 -3.76687,2.92979 -4.81323,8.16156 -1.02685,5.13429 1.88344,8.99867 1.88344,8.99867"
           id="path9068"
           sodipodi:nodetypes="csc" />
        <path
           style="font-style:italic;font-size:192px;line-height:1.25;font-family:'Arial Rounded MT Bold';-inkscape-font-specification:'Arial Rounded MT Bold,  Italic';white-space:pre;shape-inside:url(#rect2564);fill:none;stroke:#000000;stroke-width:6.67087;stroke-linecap:butt;stroke-linejoin:miter;stroke-miterlimit:4;stroke-dasharray:none;stroke-opacity:1"
           d="m 498.35341,-13.88161 c 0,0 13.82128,4.54353 21.34564,14.43971 9.62647,12.66089 8.05693,24.693972 8.05693,24.693972"
           id="path9734"
           sodipodi:nodetypes="csc" />
        <path
           style="font-style:italic;font-size:192px;line-height:1.25;font-family:'Arial Rounded MT Bold';-inkscape-font-specification:'Arial Rounded MT Bold,  Italic';white-space:pre;shape-inside:url(#rect2564);fill:none;stroke:#000000;stroke-width:6.67087;stroke-linecap:butt;stroke-linejoin:miter;stroke-miterlimit:4;stroke-dasharray:none;stroke-opacity:1"
           d="m 524.30301,-36.8491 c 0,0 11.92845,3.60993 19.25294,11.98077 7.32448,8.37084 10.72513,21.34564 10.72513,21.34564"
           id="path9736"
           sodipodi:nodetypes="csc" />
        <path
           style="font-style:italic;font-size:192px;line-height:1.25;font-family:'Arial Rounded MT Bold';-inkscape-font-specification:'Arial Rounded MT Bold,  Italic';white-space:pre;shape-inside:url(#rect2564);fill:none;stroke:#000000;stroke-width:6.67087;stroke-linecap:butt;stroke-linejoin:miter;stroke-miterlimit:4;stroke-dasharray:none;stroke-opacity:1"
           d="m 515.14518,-29.52419 -6.51098,-9.69249 c 0,0 -3.30442,-3.92095 -7.54683,-0.73989 -3.65642,2.74168 -2.66359,6.88093 -2.66359,6.88093 l 7.32487,12.13411"
           id="path10702"
           sodipodi:nodetypes="ccscc" />
        <path
           style="font-style:italic;font-size:192px;line-height:1.25;font-family:'Arial Rounded MT Bold';-inkscape-font-specification:'Arial Rounded MT Bold,  Italic';white-space:pre;shape-inside:url(#rect2564);fill:none;stroke:#000000;stroke-width:6.67087;stroke-linecap:butt;stroke-linejoin:miter;stroke-miterlimit:4;stroke-dasharray:none;stroke-opacity:1"
           d="m 532.08854,-56.456 -15.16763,11.5422 c 0,0 -4.79381,1.88304 -8.21273,-2.21964 -3.32948,-3.99539 0.36994,-7.7688 0.36994,-7.7688 l 23.30043,-15.492723"
           id="path11136"
           sodipodi:nodetypes="ccscc" />
        <path
           style="font-style:italic;font-size:192px;line-height:1.25;font-family:'Arial Rounded MT Bold';-inkscape-font-specification:'Arial Rounded MT Bold,  Italic';white-space:pre;shape-inside:url(#rect2564);fill:none;stroke:#000000;stroke-width:6.67087;stroke-linecap:butt;stroke-linejoin:miter;stroke-miterlimit:4;stroke-dasharray:none;stroke-opacity:1"
           d="m 537.85964,-79.31844 0.074,-24.56417 c 0,0 1.25781,-6.73295 6.28902,-6.06705 5.03122,0.66589 5.84509,5.40116 5.84509,5.40116 l -0.97741,29.061601"
           id="path11574"
           sodipodi:nodetypes="ccscc" />
        <path
           style="font-style:italic;font-size:192px;line-height:1.25;font-family:'Arial Rounded MT Bold';-inkscape-font-specification:'Arial Rounded MT Bold,  Italic';white-space:pre;shape-inside:url(#rect2564);fill:none;stroke:#000000;stroke-width:6.67087;stroke-linecap:butt;stroke-linejoin:miter;stroke-miterlimit:4;stroke-dasharray:none;stroke-opacity:1"
           d="m 550.46189,-70.90795 26.09372,9.56871 c 0,0 5.1792,1.9237 4.06937,7.69481 -1.10982,5.77109 -7.25087,4.29132 -7.25087,4.29132 l -22.71446,-8.06473"
           id="path11628"
           sodipodi:nodetypes="ccscc" />
        <path
           style="font-style:italic;font-size:192px;line-height:1.25;font-family:'Arial Rounded MT Bold';-inkscape-font-specification:'Arial Rounded MT Bold,  Italic';white-space:pre;shape-inside:url(#rect2564);fill:none;stroke:#000000;stroke-width:6.67087;stroke-linecap:butt;stroke-linejoin:miter;stroke-miterlimit:4;stroke-dasharray:none;stroke-opacity:1"
           d="m 577.73943,-17.61205 v -23.60231 c 0,0 0.81388,-5.99308 6.36301,-5.77111 5.54913,0.22196 5.32717,5.25318 5.32717,5.25318 l -0.59191,27.15377"
           id="path11910"
           sodipodi:nodetypes="ccscc" />
        <path
           style="font-style:italic;font-size:192px;line-height:1.25;font-family:'Arial Rounded MT Bold';-inkscape-font-specification:'Arial Rounded MT Bold,  Italic';white-space:pre;shape-inside:url(#rect2564);fill:none;stroke:#000000;stroke-width:6.67087;stroke-linecap:butt;stroke-linejoin:miter;stroke-miterlimit:4;stroke-dasharray:none;stroke-opacity:1"
           d="m 563.31168,-2.66638 -12.94799,9.32255 c 0,0 -4.58728,4.88324 -1.10982,8.73065 3.47745,3.847389 9.24856,0.51791 9.24856,0.51791 L 577.81125,1.42312"
           id="path12192"
           sodipodi:nodetypes="ccscc" />
        <path
           style="font-style:italic;font-size:192px;line-height:1.25;font-family:'Arial Rounded MT Bold';-inkscape-font-specification:'Arial Rounded MT Bold,  Italic';white-space:pre;shape-inside:url(#rect2564);fill:none;stroke:#000000;stroke-width:6.67087;stroke-linecap:butt;stroke-linejoin:miter;stroke-miterlimit:4;stroke-dasharray:none;stroke-opacity:1"
           d="m 592.6851,-6.73574 19.45897,5.99306 c 0,0 10.88713,2.3251 7.99075,10.87632 -1.55375,4.58728 -9.32253,2.21965 -9.32253,2.21965 L 586.44654,2.1565985"
           id="path12194"
           sodipodi:nodetypes="ccscc" />
      </g>
      <text
         xml:space="preserve"
         transform="matrix(0.97125849,0,0,1.0001529,-275.90373,15.303779)"
         id="text4168"
         style="font-style:normal;font-variant:normal;font-weight:normal;font-stretch:normal;font-size:85.3333px;line-height:0.95;font-family:'Franklin Gothic Demi';-inkscape-font-specification:'Franklin Gothic Demi';text-align:center;letter-spacing:22.66640064px;white-space:pre;shape-inside:url(#rect4170);fill:#ffffff;fill-opacity:1;stroke:#feffff;stroke-width:0.623622;stroke-miterlimit:4;stroke-dasharray:none;stroke-opacity:1"
         x="164.64844"
         y="0"><tspan
           x="490.29046"
           y="333.69233"
           id="tspan1699">INTERNATIONAL</tspan></text>
      <path
         style="fill:#ffffff;stroke:#feffff;stroke-width:0.722835;stroke-opacity:1;paint-order:markers fill stroke"
         d="m 318.25,168.50119 c -6.40787,-1.77062 -12.27344,-5.36199 -17.75,-10.86797 -4.52649,-4.55081 -7.31465,-8.91926 -9.10028,-14.25822 -2.08639,-6.23823 -2.22743,-13.91372 -0.3706,-20.16849 l 0.56406,-1.90002 6.01591,-5.49697 c 3.30875,-3.02333 6.3432,-5.81236 6.74321,-6.19785 l 0.7273,-0.70089 -3.28934,-5.45539 c -2.99519,-4.967527 -3.30321,-5.589875 -3.44429,-6.95923 -0.29379,-2.8516 1.10655,-6.398547 3.27903,-8.30551 1.66134,-1.45829 3.9422,-2.401695 5.85727,-2.422662 0.9035,-0.0099 1.97154,0.07341 2.37342,0.185115 l 0.73068,0.203102 -0.94689,-1.0481 c -2.93388,-3.24745 -3.02438,-7.761905 -0.22909,-11.426732 0.39066,-0.51217 5.26268,-3.920993 12.49005,-8.73895 6.51726,-4.344575 11.84956,-8.027398 11.84956,-8.18405 0,-0.603323 1.97651,-4.319375 2.94909,-5.5446 l 1.021,-1.286225 0.20246,-12.713775 L 338.125,24.5 l 0.91755,-1.921446 c 1.13863,-2.384383 2.58711,-3.98481 4.42207,-4.885937 1.85418,-0.910559 4.64704,-0.946129 6.85653,-0.08732 2.6945,1.047324 5.58215,4.437674 6.05564,7.109844 0.0765,0.431675 -0.0811,7.028614 -0.35027,14.659864 l -0.48933,13.875 0.52536,1.791678 0.52537,1.791677 12.39354,4.53937 c 6.81645,2.496653 12.92967,4.881375 13.58493,5.29938 4.0228,2.566218 5.55239,7.198413 3.92632,11.890395 l -0.45487,1.3125 h 1.05356 c 3.44383,0 6.63184,1.956003 7.94556,4.875 0.77213,1.715605 0.82795,3.84993 0.48235,18.440925 l -0.28641,12.09236 1.10287,1.64468 c 0.60659,0.90457 1.29128,2.13459 1.52154,2.73336 l 0.41865,1.08868 10.17452,3.11569 c 5.59599,1.71362 10.94293,3.49781 11.8821,3.96483 2.34503,1.16614 4.70321,3.42299 5.70682,5.46161 0.6284,1.27647 0.81898,2.02673 0.90876,3.57754 0.24403,4.21557 -1.64298,7.46742 -5.07316,8.74247 -1.77231,0.65879 -5.36804,0.74441 -7.625,0.18155 -0.75625,-0.1886 -6.91163,-2.66621 -13.67863,-5.5058 -9.95946,-4.17923 -12.52217,-5.1629 -13.45065,-5.1629 -0.63086,0 -1.92055,-0.17593 -2.86597,-0.39097 l -1.71896,-0.39097 -9.4862,7.11972 c -5.21741,3.91585 -9.92572,7.34395 -10.46292,7.618 -2.85177,1.45487 -6.59922,1.78897 -9.13708,0.8146 -2.87697,-1.10455 -5.09454,-3.94785 -5.42112,-6.95076 l -0.15347,-1.4112 -12.21803,13.35829 c -6.71991,7.34706 -12.56816,13.55517 -12.9961,13.79579 -1.00528,0.56526 -1.81464,0.53107 -4.41087,-0.18631 z m 0.56734,-8.93869 c 0.17571,-2.97257 -0.1846,-7.45754 -0.81101,-10.09505 -1.77154,-7.45913 -5.72135,-12.83678 -13.00173,-17.7018 -2.33054,-1.55735 -8.13967,-4.58891 -8.36383,-4.36475 -0.0776,0.0776 -0.26269,1.34868 -0.41123,2.82453 -0.50718,5.03939 0.43437,10.05061 2.77598,14.77457 2.65175,5.34964 7.50007,10.45812 13.22063,13.93003 1.9614,1.19041 5.54783,2.89073 6.17667,2.92835 0.17578,0.0105 0.32804,-0.83278 0.41452,-2.29588 z m 8.93266,-7.19106 c 0,-3.95785 -1.54135,-9.66045 -3.80372,-14.07281 -3.11339,-6.07214 -7.5355,-10.67902 -13.94628,-14.529 -2.5031,-1.50323 -6.81635,-3.64721 -7.32478,-3.64091 -0.16512,0.002 -0.75022,0.40264 -1.30022,0.89021 -0.75937,0.67317 -0.90976,0.92259 -0.625,1.03653 0.89239,0.35705 4.74905,2.46857 6.55779,3.59038 4.50834,2.79616 8.69661,6.51562 11.36708,10.09472 3.65242,4.89516 6.08533,11.81735 6.50184,18.49922 l 0.15519,2.48979 1.20905,-1.3499 c 1.18822,-1.32664 1.20905,-1.37846 1.20905,-3.00823 z m 16.875,-16.72854 c 4.95,-5.4005 9.0342,-9.96502 9.076,-10.14338 0.12335,-0.52639 -1.61674,-4.99458 -3.346,-8.59184 -4.23007,-8.7995 -9.20443,-13.8764 -17.7027,-18.067612 -1.63498,-0.80635 -3.39602,-1.592918 -3.9134,-1.74793 l -0.94071,-0.281843 -10.03335,9.188565 -10.03336,9.18856 2.82176,1.53715 c 9.12547,4.97109 14.76692,10.42159 18.80405,18.16757 2.10283,4.03468 3.0561,6.68535 4.26446,11.85786 l 0.17522,0.75 0.91401,-1.019 c 0.50271,-0.56045 4.96402,-5.43759 9.91402,-10.8381 z m 13.81216,8.19037 c 0.89447,-0.22523 2.89429,-1.5915 8.77285,-5.99359 4.60129,-3.44562 7.47593,-5.75387 7.26464,-5.83329 -0.19231,-0.0723 -1.69128,-0.5169 -3.33104,-0.98804 l -2.9814,-0.85661 -6.08005,4.38179 c -3.34402,2.40998 -6.35745,4.71146 -6.6965,5.11439 -1.3256,1.57539 -1.27411,3.44129 0.11434,4.14358 0.78157,0.39532 1.46405,0.4027 2.93716,0.0318 z m 61.72531,-4.59223 c 0.18564,-0.25388 0.33753,-1.05494 0.33753,-1.78012 0,-1.12134 -0.11729,-1.4521 -0.78429,-2.21178 -0.43136,-0.49129 -1.24698,-1.16231 -1.8125,-1.49115 -0.56551,-0.32885 -5.13446,-1.85917 -10.15321,-3.40072 -5.01875,-1.54155 -9.26562,-2.85523 -9.4375,-2.91929 -0.18576,-0.0692 -0.3125,0.0898 -0.3125,0.39211 0,0.27972 -0.37868,1.23509 -0.84152,2.12305 l -0.84152,1.61448 9.38909,3.92485 c 5.164,2.15866 9.84581,4.02132 10.40402,4.13923 1.62688,0.34365 3.65868,0.14778 4.0524,-0.39066 z m -29.93495,-10.95369 c 0.90761,-0.43286 1.48874,-1.38447 1.77852,-2.91235 0.32236,-1.69969 0.12348,-3.06629 -0.63924,-4.39254 -0.98875,-1.71929 -2.19079,-2.32939 -7.71159,-3.91411 l -5.03021,-1.4439 -0.47392,0.56278 c -1.37713,1.63531 -2.23227,4.95177 -1.86913,7.24899 0.40867,2.58522 0.24281,2.4595 5.04278,3.82228 2.36515,0.6715 4.75027,1.29819 5.30027,1.39265 1.17295,0.20144 2.75162,0.042 3.60252,-0.3638 z M 369.7537,122.0625 c 0.005,-2.21351 0.49789,-4.40061 1.48264,-6.57243 0.52206,-1.15138 0.65315,-1.67244 0.44084,-1.75221 -0.63555,-0.23876 -8.04418,-2.32919 -8.09053,-2.28284 -0.0268,0.0268 0.28385,1.22918 0.69041,2.67188 1.08077,3.83524 1.54951,6.76415 1.22087,7.62855 -0.14658,0.38553 -0.17795,0.78447 -0.0697,0.88653 0.20455,0.19287 3.46128,1.17831 4.00929,1.21315 0.22278,0.0142 0.31356,-0.50052 0.3162,-1.79263 z m -10.97967,-3.66673 c -1.17452,-5.97 -4.97348,-13.34516 -9.13009,-17.72486 -3.50092,-3.688807 -8.55837,-7.084927 -13.60382,-9.135075 -1.47791,-0.60053 -1.62436,-0.617167 -2.18705,-0.248477 -0.33169,0.21733 -0.60307,0.46906 -0.60307,0.5594 0,0.09034 1.20938,0.762422 2.6875,1.49352 6.25129,3.091955 11.65875,7.463822 15.25793,12.335852 2.45014,3.31664 5.52312,9.14382 7.34128,13.92104 0.40049,1.05227 0.54088,0.34155 0.23732,-1.2014 z M 389.1333,101.5625 c 0.29398,-15.7844 0.33257,-14.155652 -0.34849,-14.708455 -0.7267,-0.589837 -2.44778,-0.637182 -3.23061,-0.08887 -1.29376,0.906185 -1.3042,1.008743 -1.3042,12.813603 v 10.978612 l 2.1875,0.63998 c 1.20313,0.35199 2.25865,0.64846 2.34562,0.65881 0.087,0.0104 0.24455,-4.6218 0.35018,-10.29368 z m -11.33092,-3.625 0.0726,-10.6875 0.6875,-1.46771 c 0.37813,-0.807242 0.6875,-1.49405 0.6875,-1.526242 0,-0.03219 -0.75937,-0.125635 -1.6875,-0.207653 -1.29051,-0.114042 -4.00586,-0.97526 -11.54215,-3.660772 -5.42006,-1.931405 -9.88808,-3.478223 -9.92893,-3.437373 -0.0409,0.04085 -0.29853,4.562788 -0.57262,10.048748 l -0.49834,9.974472 0.8813,1.075513 c 0.48472,0.591535 1.58855,2.109517 2.45295,3.373297 l 1.57165,2.29777 8.59932,2.4383 c 4.72963,1.34106 8.73539,2.44467 8.9017,2.45247 0.23094,0.0108 0.31954,-2.51097 0.375,-10.67332 z m -65.64354,4.539 c 1.15014,-1.04417 2.09116,-1.98399 2.09116,-2.08848 0,-0.34619 -4.80963,-7.379862 -5.3473,-7.81996 -1.49418,-1.22304 -4.15236,0.597838 -4.15282,2.844723 -1.1e-4,0.537865 4.87122,8.962217 5.18234,8.962217 0.0745,0 1.07649,-0.85432 2.22662,-1.8985 z M 325.25,90.476173 c 6.3169,-5.804425 7.00806,-6.348805 8.0625,-6.350238 L 334,84.125 333.9704,82.1875 c -0.0583,-3.81729 0.5038,-3.934585 -6.41417,1.338545 -5.98654,4.56316 -6.0943,4.631368 -7.95503,5.035163 -1.53693,0.333525 -2.17244,0.358837 -3.43126,0.136662 -0.84973,-0.149972 -1.7404,-0.351705 -1.97926,-0.448295 -0.23887,-0.09659 0.75587,1.579618 2.21053,3.724905 1.45466,2.145285 2.71885,3.90042 2.8093,3.900295 0.0905,-1.22e-4 2.80822,-2.429495 6.03947,-5.398602 z M 349.21853,84.5 c 0.15884,-3.575 0.28715,-6.79485 0.28514,-7.155222 -0.004,-0.647633 -0.0174,-0.65251 -1.19117,-0.420868 -1.38848,0.27402 -4.26814,0.07954 -6.53674,-0.441472 -0.87959,-0.202008 -1.61614,-0.336945 -1.6368,-0.29986 -0.0424,0.0761 0.5273,10.289852 0.57824,10.367267 0.0181,0.02741 0.90468,0.504828 1.9703,1.060918 1.06563,0.556092 2.8375,1.609622 3.9375,2.34118 1.1,0.731557 2.06856,1.266645 2.15236,1.189082 0.0838,-0.07756 0.28232,-3.066025 0.44117,-6.641025 z m -23.46291,-7.625 c 3.97317,-3.025 7.35416,-5.5 7.51332,-5.5 0.17809,0 0.23141,-0.216317 0.13863,-0.5625 -0.0829,-0.309375 -0.154,-1.51875 -0.15798,-2.6875 -0.004,-1.16875 -0.10288,-2.275885 -0.21976,-2.4603 -0.28535,-0.450205 -18.5809,11.699838 -18.99882,12.61708 -0.44697,0.980985 -0.3315,1.74485 0.3941,2.607175 0.81474,0.96827 1.87169,1.463105 3.15323,1.47626 0.86245,0.0088 1.64197,-0.514517 8.17728,-5.490215 z m 54.2489,0.296608 c 0.40257,-0.325973 0.59382,-0.806148 0.68053,-1.7086 0.14075,-1.464785 -0.3117,-2.547008 -1.36878,-3.27401 -0.95093,-0.654 -22.2833,-8.430083 -22.50937,-8.20512 -0.17178,0.170947 -0.54088,5.907895 -0.39321,6.111772 0.0381,0.05261 4.71373,1.758298 10.39029,3.790423 10.89586,3.900557 12.07775,4.194722 13.20054,3.285535 z M 348.70463,70.240315 350,69.85563 l 0.008,-1.427815 c 0.005,-0.785297 0.11124,-3.171565 0.23719,-5.302815 0.18656,-3.156915 0.16009,-4.175097 -0.1428,-5.494422 -0.69652,-3.033853 -2.00267,-4.505578 -3.99867,-4.505578 -2.33706,0 -4.06613,1.121698 -5.3013,3.439118 -1.36492,2.560857 -1.5655,3.817147 -1.29945,8.138675 0.12858,2.088465 0.23672,3.925617 0.24031,4.082562 0.0145,0.631923 4.06228,1.783125 6.39865,1.81977 0.69691,0.01093 1.85004,-0.153232 2.5625,-0.36481 z M 349.34794,45.5625 c 0.33348,-3.783285 0.68857,-19.902023 0.44825,-20.348017 -0.4958,-0.92013 -1.51085,-1.632321 -2.51922,-1.767572 -1.25728,-0.168637 -1.65823,0.127732 -2.43931,1.803089 -0.58023,1.244535 -0.58278,1.294522 -0.58522,11.432718 l -0.002,10.182717 1.0625,-0.131812 c 0.58438,-0.0725 1.56875,-0.02642 2.1875,0.102392 0.61875,0.12881 1.25667,0.246528 1.41761,0.261593 0.1822,0.01705 0.34456,-0.562133 0.43033,-1.535108 z"
         id="path1627"
         transform="translate(138.67959,54.948518)" />
    </g>
  </g>
</svg>
