<?xml version="1.0" encoding="UTF-8" standalone="no"?>
<!-- Created with Inkscape (http://www.inkscape.org/) -->

<svg
   width="258mm"
   height="83mm"
   viewBox="0 0 258 83"
   version="1.1"
   id="svg5"
   inkscape:version="1.1.2 (b8e25be833, 2022-02-05)"
   sodipodi:docname="trident-national-white.svg"
   xmlns:inkscape="http://www.inkscape.org/namespaces/inkscape"
   xmlns:sodipodi="http://sodipodi.sourceforge.net/DTD/sodipodi-0.dtd"
   xmlns="http://www.w3.org/2000/svg"
   xmlns:svg="http://www.w3.org/2000/svg">
  <sodipodi:namedview
     id="namedview7"
     pagecolor="#505050"
     bordercolor="#ffffff"
     borderopacity="1"
     inkscape:pageshadow="0"
     inkscape:pageopacity="0"
     inkscape:pagecheckerboard="1"
     inkscape:document-units="mm"
     showgrid="false"
     width="211mm"
     inkscape:zoom="0.70710678"
     inkscape:cx="85.559921"
     inkscape:cy="165.46299"
     inkscape:window-width="1920"
     inkscape:window-height="1051"
     inkscape:window-x="-9"
     inkscape:window-y="-9"
     inkscape:window-maximized="1"
     inkscape:current-layer="text2562"
     height="63mm" />
  <defs
     id="defs2">
    <rect
       x="446.89148"
       y="268.70059"
       width="958.83679"
       height="124.45079"
       id="rect4170" />
    <rect
       x="159.61237"
       y="431.73834"
       width="752.27136"
       height="238.11023"
       id="rect2564" />
  </defs>
  <g
     inkscape:label="Lag 1"
     inkscape:groupmode="layer"
     id="layer1">
    <g
       aria-label="TRIDENT"
       transform="matrix(0.26458333,0,0,0.26458333,-36.692308,-14.538462)"
       id="text2562"
       style="font-style:italic;font-size:192px;line-height:1.25;font-family:'Arial Rounded MT Bold';-inkscape-font-specification:'Arial Rounded MT Bold,  Italic';white-space:pre;shape-inside:url(#rect2564)">
      <path
         d="m 195.23919,146.2808 h 22.3125 v 125.15625 h -22.3125 z m -37.875,-11.15625 h 98.0625 v 21.46875 h -98.0625 z"
         style="font-style:normal;font-weight:600;font-family:Bahnschrift;-inkscape-font-specification:'Bahnschrift Semi-Bold';fill:#ffffff;fill-opacity:1;fill-rule:nonzero;stroke:#ffffff;stroke-width:7.55906;stroke-miterlimit:4;stroke-dasharray:none;stroke-opacity:1"
         id="path16234" />
      <path
         d="m 309.58294,193.7183 h 46.96875 q 4.6875,0 8.25,-2.25 3.65625,-2.34375 5.625,-6.5625 1.96875,-4.21875 2.0625,-9.84375 v 0 q 0,-5.53125 -1.96875,-9.75 -1.96875,-4.21875 -5.625,-6.46875 -3.5625,-2.34375 -8.34375,-2.34375 H 309.58294 V 135.0308 h 47.625 q 11.53125,0 20.25,4.96875 8.71875,4.96875 13.5,14.0625 4.875,9.09375 4.875,21 v 0 q 0,12 -4.875,21.09375 -4.78125,9.09375 -13.59375,14.0625 -8.71875,4.96875 -20.15625,4.96875 h -47.625 z m -9.28125,-58.6875 h 22.40625 v 136.40625 h -22.40625 z m 42.1875,75.9375 23.25,-4.3125 35.8125,64.78125 h -26.90625 z"
         style="font-style:normal;font-weight:600;font-family:Bahnschrift;-inkscape-font-specification:'Bahnschrift Semi-Bold';fill:#ffffff;fill-opacity:1;fill-rule:nonzero;stroke:#ffffff;stroke-width:7.55906;stroke-miterlimit:4;stroke-dasharray:none;stroke-opacity:1"
         id="path16236" />
      <path
         id="path16238"
         style="font-style:normal;font-weight:600;font-family:Bahnschrift;-inkscape-font-specification:'Bahnschrift Semi-Bold';fill:#ffffff;fill-opacity:1;fill-rule:nonzero;stroke:none;stroke-width:6.21409;stroke-miterlimit:4;stroke-dasharray:none;stroke-opacity:1"
         d="m 364.21094,161.2207 h -14.21875 l -16.19727,18.71875 v 40.33985 h 30.41602 z"
         transform="translate(138.67959,54.948518)" />
      <path
         d="m 597.27044,249.9683 h 31.78125 q 13.875,0 21.46875,-6.9375 7.6875,-6.9375 7.6875,-19.6875 v -40.125 q 0,-12.75 -7.6875,-19.6875 -7.59375,-6.9375 -21.46875,-6.9375 h -31.78125 v -21.46875 h 31.21875 q 16.6875,0 28.5,5.71875 11.90625,5.71875 18.09375,16.6875 6.1875,10.96875 6.1875,26.4375 v 38.625 q 0,15.09375 -6.09375,26.0625 -6.09375,10.96875 -18,16.875 -11.8125,5.90625 -28.78125,5.90625 h -31.125 z m -12.9375,-114.84375 h 22.40625 v 136.3125 h -22.40625 z"
         style="font-style:normal;font-weight:600;font-family:Bahnschrift;-inkscape-font-specification:'Bahnschrift Semi-Bold';fill:#ffffff;fill-opacity:1;fill-rule:nonzero;stroke:#ffffff;stroke-width:7.55906;stroke-linecap:butt;stroke-linejoin:miter;stroke-miterlimit:4;stroke-dasharray:none;stroke-opacity:1;paint-order:markers fill stroke"
         id="path16240" />
      <path
         d="m 724.45794,135.12455 h 22.40625 v 136.3125 h -22.40625 z m 9.28125,114.84375 h 80.15625 v 21.46875 h -80.15625 z m 0,-56.90625 h 69.84375 v 21.375 h -69.84375 z m 0,-57.9375 h 80.15625 v 21.46875 h -80.15625 z"
         style="font-style:normal;font-weight:600;font-family:Bahnschrift;-inkscape-font-specification:'Bahnschrift Semi-Bold';fill:#ffffff;fill-opacity:1;fill-rule:nonzero;stroke:#ffffff;stroke-width:7.55906;stroke-miterlimit:4;stroke-dasharray:none;stroke-opacity:1"
         id="path16242" />
      <path
         d="m 857.20794,135.12455 h 24.375 l 58.6875,104.90625 -2.25,2.4375 V 135.12455 h 21.75 V 271.3433 h -24.5625 l -58.5,-103.3125 2.25,-2.4375 v 105.75 h -21.75 z"
         style="font-style:normal;font-weight:600;font-family:Bahnschrift;-inkscape-font-specification:'Bahnschrift Semi-Bold';fill:#ffffff;fill-opacity:1;fill-rule:nonzero;stroke:#ffffff;stroke-width:7.55906;stroke-miterlimit:4;stroke-dasharray:none;stroke-opacity:1"
         id="path16244" />
      <path
         d="m 1038.2704,146.2808 h 22.3125 v 125.15625 h -22.3125 z m -37.875,-11.15625 h 98.0625 v 21.46875 h -98.0625 z"
         style="font-style:normal;font-weight:600;font-family:Bahnschrift;-inkscape-font-specification:'Bahnschrift Semi-Bold';fill:#ffffff;fill-opacity:1;fill-rule:nonzero;stroke:#ffffff;stroke-width:7.55906;stroke-miterlimit:4;stroke-dasharray:none;stroke-opacity:1"
         id="path16246" />
      <g
         id="g17740"
         transform="translate(-58.121034,185.03111)"
         style="stroke-width:6.67087;stroke-miterlimit:4;stroke-dasharray:none">
        <path
           style="font-style:italic;font-size:192px;line-height:1.25;font-family:'Arial Rounded MT Bold';-inkscape-font-specification:'Arial Rounded MT Bold,  Italic';white-space:pre;shape-inside:url(#rect2564);fill:none;stroke:#000000;stroke-width:6.67087;stroke-linecap:butt;stroke-linejoin:round;stroke-miterlimit:4;stroke-dasharray:none;stroke-opacity:1"
           d="m 491.23819,-7.0803 39.13368,-35.78534 c 0,0 12.55626,3.55761 20.29929,13.39335 7.74303,9.83573 8.58011,20.29929 8.58011,20.29929 l -41.22639,44.993265 c 0,0 -11.46399,-1.458429 -21.34565,-13.602616 C 485.22997,8.14692 491.23819,-7.0803 491.23819,-7.0803 Z"
           id="path6694"
           sodipodi:nodetypes="ccsccsc" />
        <path
           style="font-style:italic;font-size:192px;line-height:1.25;font-family:'Arial Rounded MT Bold';-inkscape-font-specification:'Arial Rounded MT Bold,  Italic';white-space:pre;shape-inside:url(#rect2564);fill:none;stroke:#000000;stroke-width:6.67087;stroke-linecap:butt;stroke-linejoin:miter;stroke-miterlimit:4;stroke-dasharray:none;stroke-opacity:1"
           d="m 491.23819,-7.0803 c 0,0 16.11387,5.02251 23.22908,16.95095 7.11522,11.92845 3.55761,25.949615 3.55761,25.949615"
           id="path8116"
           sodipodi:nodetypes="csc" />
        <path
           style="font-style:italic;font-size:192px;line-height:1.25;font-family:'Arial Rounded MT Bold';-inkscape-font-specification:'Arial Rounded MT Bold,  Italic';white-space:pre;shape-inside:url(#rect2564);fill:none;stroke:#000000;stroke-width:6.67087;stroke-linecap:butt;stroke-linejoin:miter;stroke-miterlimit:4;stroke-dasharray:none;stroke-opacity:1"
           d="m 534.34802,-41.19147 -1.4649,-28.04231 c 0,0 1.25563,-11.71918 10.8821,-10.8821 6.10328,0.53072 6.69667,9.20792 6.69667,9.20792 l -1.88345,38.50587"
           id="path8402"
           sodipodi:nodetypes="ccscc" />
        <path
           style="font-style:italic;font-size:192px;line-height:1.25;font-family:'Arial Rounded MT Bold';-inkscape-font-specification:'Arial Rounded MT Bold,  Italic';white-space:pre;shape-inside:url(#rect2564);fill:none;stroke:#000000;stroke-width:6.67087;stroke-linecap:butt;stroke-linejoin:miter;stroke-miterlimit:4;stroke-dasharray:none;stroke-opacity:1"
           d="m 554.64731,-23.61271 31.18138,8.78938 c 0,0 7.9523,2.51126 6.06886,11.09137 -1.88344,8.58011 -11.71918,4.81323 -11.71918,4.81323 L 556.53075,-5.6154"
           id="path8404"
           sodipodi:nodetypes="ccscc" />
        <path
           style="font-style:italic;font-size:192px;line-height:1.25;font-family:'Arial Rounded MT Bold';-inkscape-font-specification:'Arial Rounded MT Bold,  Italic';white-space:pre;shape-inside:url(#rect2564);fill:none;stroke:#000000;stroke-width:6.67087;stroke-linecap:butt;stroke-linejoin:miter;stroke-miterlimit:4;stroke-dasharray:none;stroke-opacity:1"
           d="m 532.88312,-59.39804 c 0,0 3.76688,2.72052 9.4172,3.13906 5.65031,0.41854 9.62646,-3.5576 9.62646,-3.5576"
           id="path9066" />
        <path
           style="font-style:italic;font-size:192px;line-height:1.25;font-family:'Arial Rounded MT Bold';-inkscape-font-specification:'Arial Rounded MT Bold,  Italic';white-space:pre;shape-inside:url(#rect2564);fill:none;stroke:#000000;stroke-width:6.67087;stroke-linecap:butt;stroke-linejoin:miter;stroke-miterlimit:4;stroke-dasharray:none;stroke-opacity:1"
           d="m 574.73732,-18.38093 c 0,0 -3.76687,2.92979 -4.81323,8.16156 -1.02685,5.13429 1.88344,8.99867 1.88344,8.99867"
           id="path9068"
           sodipodi:nodetypes="csc" />
        <path
           style="font-style:italic;font-size:192px;line-height:1.25;font-family:'Arial Rounded MT Bold';-inkscape-font-specification:'Arial Rounded MT Bold,  Italic';white-space:pre;shape-inside:url(#rect2564);fill:none;stroke:#000000;stroke-width:6.67087;stroke-linecap:butt;stroke-linejoin:miter;stroke-miterlimit:4;stroke-dasharray:none;stroke-opacity:1"
           d="m 498.35341,-13.88161 c 0,0 13.82128,4.54353 21.34564,14.43971 9.62647,12.66089 8.05693,24.693972 8.05693,24.693972"
           id="path9734"
           sodipodi:nodetypes="csc" />
        <path
           style="font-style:italic;font-size:192px;line-height:1.25;font-family:'Arial Rounded MT Bold';-inkscape-font-specification:'Arial Rounded MT Bold,  Italic';white-space:pre;shape-inside:url(#rect2564);fill:none;stroke:#000000;stroke-width:6.67087;stroke-linecap:butt;stroke-linejoin:miter;stroke-miterlimit:4;stroke-dasharray:none;stroke-opacity:1"
           d="m 524.30301,-36.8491 c 0,0 11.92845,3.60993 19.25294,11.98077 7.32448,8.37084 10.72513,21.34564 10.72513,21.34564"
           id="path9736"
           sodipodi:nodetypes="csc" />
        <path
           style="font-style:italic;font-size:192px;line-height:1.25;font-family:'Arial Rounded MT Bold';-inkscape-font-specification:'Arial Rounded MT Bold,  Italic';white-space:pre;shape-inside:url(#rect2564);fill:none;stroke:#000000;stroke-width:6.67087;stroke-linecap:butt;stroke-linejoin:miter;stroke-miterlimit:4;stroke-dasharray:none;stroke-opacity:1"
           d="m 515.14518,-29.52419 -6.51098,-9.69249 c 0,0 -3.30442,-3.92095 -7.54683,-0.73989 -3.65642,2.74168 -2.66359,6.88093 -2.66359,6.88093 l 7.32487,12.13411"
           id="path10702"
           sodipodi:nodetypes="ccscc" />
        <path
           style="font-style:italic;font-size:192px;line-height:1.25;font-family:'Arial Rounded MT Bold';-inkscape-font-specification:'Arial Rounded MT Bold,  Italic';white-space:pre;shape-inside:url(#rect2564);fill:none;stroke:#000000;stroke-width:6.67087;stroke-linecap:butt;stroke-linejoin:miter;stroke-miterlimit:4;stroke-dasharray:none;stroke-opacity:1"
           d="m 532.08854,-56.456 -15.16763,11.5422 c 0,0 -4.79381,1.88304 -8.21273,-2.21964 -3.32948,-3.99539 0.36994,-7.7688 0.36994,-7.7688 l 23.30043,-15.492723"
           id="path11136"
           sodipodi:nodetypes="ccscc" />
        <path
           style="font-style:italic;font-size:192px;line-height:1.25;font-family:'Arial Rounded MT Bold';-inkscape-font-specification:'Arial Rounded MT Bold,  Italic';white-space:pre;shape-inside:url(#rect2564);fill:none;stroke:#000000;stroke-width:6.67087;stroke-linecap:butt;stroke-linejoin:miter;stroke-miterlimit:4;stroke-dasharray:none;stroke-opacity:1"
           d="m 537.85964,-79.31844 0.074,-24.56417 c 0,0 1.25781,-6.73295 6.28902,-6.06705 5.03122,0.66589 5.84509,5.40116 5.84509,5.40116 l -0.97741,29.061601"
           id="path11574"
           sodipodi:nodetypes="ccscc" />
        <path
           style="font-style:italic;font-size:192px;line-height:1.25;font-family:'Arial Rounded MT Bold';-inkscape-font-specification:'Arial Rounded MT Bold,  Italic';white-space:pre;shape-inside:url(#rect2564);fill:none;stroke:#000000;stroke-width:6.67087;stroke-linecap:butt;stroke-linejoin:miter;stroke-miterlimit:4;stroke-dasharray:none;stroke-opacity:1"
           d="m 550.46189,-70.90795 26.09372,9.56871 c 0,0 5.1792,1.9237 4.06937,7.69481 -1.10982,5.77109 -7.25087,4.29132 -7.25087,4.29132 l -22.71446,-8.06473"
           id="path11628"
           sodipodi:nodetypes="ccscc" />
        <path
           style="font-style:italic;font-size:192px;line-height:1.25;font-family:'Arial Rounded MT Bold';-inkscape-font-specification:'Arial Rounded MT Bold,  Italic';white-space:pre;shape-inside:url(#rect2564);fill:none;stroke:#000000;stroke-width:6.67087;stroke-linecap:butt;stroke-linejoin:miter;stroke-miterlimit:4;stroke-dasharray:none;stroke-opacity:1"
           d="m 577.73943,-17.61205 v -23.60231 c 0,0 0.81388,-5.99308 6.36301,-5.77111 5.54913,0.22196 5.32717,5.25318 5.32717,5.25318 l -0.59191,27.15377"
           id="path11910"
           sodipodi:nodetypes="ccscc" />
        <path
           style="font-style:italic;font-size:192px;line-height:1.25;font-family:'Arial Rounded MT Bold';-inkscape-font-specification:'Arial Rounded MT Bold,  Italic';white-space:pre;shape-inside:url(#rect2564);fill:none;stroke:#000000;stroke-width:6.67087;stroke-linecap:butt;stroke-linejoin:miter;stroke-miterlimit:4;stroke-dasharray:none;stroke-opacity:1"
           d="m 563.31168,-2.66638 -12.94799,9.32255 c 0,0 -4.58728,4.88324 -1.10982,8.73065 3.47745,3.847389 9.24856,0.51791 9.24856,0.51791 L 577.81125,1.42312"
           id="path12192"
           sodipodi:nodetypes="ccscc" />
        <path
           style="font-style:italic;font-size:192px;line-height:1.25;font-family:'Arial Rounded MT Bold';-inkscape-font-specification:'Arial Rounded MT Bold,  Italic';white-space:pre;shape-inside:url(#rect2564);fill:none;stroke:#000000;stroke-width:6.67087;stroke-linecap:butt;stroke-linejoin:miter;stroke-miterlimit:4;stroke-dasharray:none;stroke-opacity:1"
           d="m 592.6851,-6.73574 19.45897,5.99306 c 0,0 10.88713,2.3251 7.99075,10.87632 -1.55375,4.58728 -9.32253,2.21965 -9.32253,2.21965 L 586.44654,2.1565985"
           id="path12194"
           sodipodi:nodetypes="ccscc" />
      </g>
      <text
         xml:space="preserve"
         transform="matrix(0.97125849,0,0,1.0001529,-275.90373,15.303779)"
         id="text4168"
         style="font-style:normal;font-variant:normal;font-weight:normal;font-stretch:normal;font-size:85.3333px;line-height:0.95;font-family:'Franklin Gothic Demi';-inkscape-font-specification:'Franklin Gothic Demi';text-align:center;letter-spacing:29.44px;white-space:pre;shape-inside:url(#rect4170);fill:#ffffff;fill-opacity:1;stroke:#ffffff;stroke-width:0.623622;stroke-miterlimit:4;stroke-dasharray:none;stroke-opacity:1"
         x="164.64844"
         y="0"><tspan
           x="636.41548"
           y="333.69233"
           id="tspan2503">NATIONAL</tspan></text>
      <path
         style="fill:#ffffff;fill-opacity:1;stroke:#ffffff;stroke-width:0.511121;stroke-opacity:1;paint-order:markers fill stroke"
         d="m 318.96812,168.75039 c -4.73339,-1.16376 -10.28752,-4.01435 -14.73543,-7.5628 -1.86331,-1.48651 -5.22271,-4.81865 -6.69169,-6.63738 -3.63309,-4.49809 -6.19848,-9.82594 -7.25792,-15.0734 -1.12,-5.54736 -0.76837,-11.95246 0.92363,-16.82459 l 0.56323,-1.62179 6.54073,-5.96353 c 3.59741,-3.27994 6.56735,-6.03071 6.59988,-6.11283 0.0325,-0.0821 -1.38207,-2.53489 -3.14354,-5.45062 -2.64365,-4.37598 -3.23581,-5.47899 -3.39248,-6.319131 -0.21395,-1.147346 -0.0892,-3.090846 0.27619,-4.303363 1.01751,-3.37638 4.03079,-6.276412 7.33053,-7.055015 0.92708,-0.218754 2.9495,-0.162532 3.88803,0.108083 0.36304,0.10468 0.30365,-0.02331 -0.42715,-0.920527 -1.73154,-2.125874 -2.46035,-4.612861 -2.0404,-6.96273 0.24875,-1.391958 1.25033,-3.574696 2.12067,-4.621557 0.32267,-0.388125 5.15509,-3.715814 12.27224,-8.450894 l 11.73998,-7.81067 0.58227,-1.506092 c 0.66483,-1.719671 1.79056,-3.626929 2.92452,-4.954836 l 0.77886,-0.912078 V 37.915923 c 0,-13.359734 -0.0469,-12.810773 1.33806,-15.681557 1.04917,-2.174837 2.4612,-3.699534 4.24057,-4.57895 4.07566,-2.014298 9.67389,0.06629 11.95123,4.441671 1.28144,2.461997 1.2396,1.607663 0.75953,15.510474 -0.55267,16.005067 -0.5535,15.667757 0.0432,17.627749 l 0.47812,1.570564 12.38239,4.539435 c 7.24483,2.655987 12.78578,4.784884 13.35465,5.131011 2.06316,1.255326 3.69386,3.303705 4.41467,5.545408 0.35223,1.095447 0.39158,1.507168 0.31805,3.328276 -0.0678,1.679849 -0.17215,2.306904 -0.54424,3.271431 l -0.46032,1.193243 0.92015,0.0031 c 3.57834,0.01193 6.45885,1.726454 7.94745,4.730422 l 0.75088,1.515275 0.059,2.665054 c 0.0325,1.465779 -0.0668,8.10221 -0.22053,14.747621 l -0.27957,12.08257 0.7153,0.81262 c 0.39341,0.44694 1.03843,1.49307 1.43338,2.32473 0.39494,0.83166 0.77627,1.62934 0.84739,1.77261 0.0794,0.15992 3.74071,1.36781 9.48214,3.12821 10.98739,3.36888 10.76767,3.29622 12.35805,4.08641 5.6887,2.82644 8.08738,7.69573 6.43169,13.05625 -0.90775,2.93894 -2.80804,4.61817 -5.99393,5.29666 -1.54596,0.32924 -4.13288,0.25477 -6.12757,-0.17639 -0.79377,-0.17157 -5.93382,-2.22438 -13.7002,-5.47153 l -12.4298,-5.19694 -1.59099,-0.0945 c -0.87504,-0.052 -2.16187,-0.23528 -2.85962,-0.40739 l -1.26864,-0.31292 -9.70227,7.27514 c -10.30633,7.72809 -10.66185,7.95513 -13.44976,8.58923 -5.76646,1.31155 -10.85867,-1.98111 -11.48016,-7.42316 l -0.13042,-1.14204 -12.19759,13.3048 c -6.70868,7.31764 -12.4679,13.48515 -12.79826,13.70559 -0.74161,0.49483 -2.00691,0.51599 -3.84418,0.0643 z m -0.34946,-7.22068 c 0.05,-0.17015 0.14398,-1.30373 0.20887,-2.51907 0.27269,-5.10714 -0.7805,-10.86876 -2.77701,-15.19203 -2.255,-4.88301 -6.96688,-9.67343 -13.06314,-13.2809 -2.18558,-1.29331 -6.14196,-3.26637 -6.27765,-3.13068 -0.56091,0.56091 -0.69002,7.49283 -0.19023,10.21363 0.39418,2.14593 1.46581,5.36846 2.41682,7.26769 3.41697,6.82396 10.37235,13.20071 17.75014,16.27347 0.87999,0.36651 1.65428,0.66882 1.72065,0.67181 0.0664,0.003 0.16157,-0.13378 0.21155,-0.30392 z m 9.12209,-8.9592 c -0.0114,-5.01928 -1.95979,-11.35454 -5.08472,-16.53309 -2.78766,-4.61964 -5.9164,-7.79956 -10.99872,-11.17863 -2.28357,-1.51827 -8.42976,-4.74738 -9.00555,-4.73137 -0.27954,0.008 -2.27945,1.69553 -2.12643,1.79452 0.0459,0.0297 0.99826,0.50901 2.11637,1.06515 9.08961,4.52112 15.59564,10.56739 19.09071,17.74161 2.05467,4.21757 3.51779,10.22879 3.54508,14.56499 l 0.008,1.33046 1.22907,-1.31361 1.22906,-1.3136 -0.003,-1.42643 z M 344.361,135.85857 c 7.55824,-8.25007 9.27673,-10.21603 9.25898,-10.59226 -0.0413,-0.87435 -1.8592,-5.41792 -3.50919,-8.77047 -3.6968,-7.5114 -7.08656,-11.42734 -13.23936,-15.29444 -1.87416,-1.17794 -5.15271,-2.853082 -7.41968,-3.79102 l -1.56261,-0.646515 -0.91226,0.855018 c -0.50175,0.470259 -5.03333,4.623257 -10.0702,9.228887 l -9.15793,8.37387 2.26364,1.18015 c 9.33629,4.86747 15.20418,10.49022 19.56122,18.74399 1.72132,3.26079 3.3295,7.75717 4.01437,11.22396 l 0.20927,1.05929 0.64149,-0.72009 c 0.35282,-0.39604 4.81784,-5.27871 9.92226,-10.85037 z m 14.55685,7.797 c 0.68009,-0.23904 2.95184,-1.84095 8.30409,-5.85559 4.05233,-3.03959 7.36788,-5.5811 7.36788,-5.64778 0,-0.0667 -1.45017,-0.52617 -3.2226,-1.02107 l -3.2226,-0.89983 -5.9256,4.25336 c -3.25907,2.33935 -6.14493,4.45491 -6.41301,4.70125 -0.68169,0.62641 -1.36874,2.08537 -1.36874,2.90655 0,0.54909 0.1228,0.81287 0.60105,1.29112 0.56257,0.56257 0.67599,0.60104 1.77218,0.60104 0.68891,0 1.55663,-0.13549 2.10735,-0.32905 z m 60.80521,-4.07775 c 0.79661,-0.30287 1.10895,-2.28541 0.54672,-3.47023 -0.61489,-1.29579 -2.61566,-2.65324 -5.03866,-3.41856 -3.6423,-1.15043 -16.75318,-5.14464 -16.88715,-5.14464 -0.0879,0 -0.30466,0.41763 -0.48164,0.92807 -0.17697,0.51045 -0.59621,1.39593 -0.93164,1.96774 -0.33543,0.57181 -0.58717,1.05976 -0.55941,1.08433 0.23207,0.20541 18.6411,7.79611 19.31912,7.96596 1.05906,0.2653 3.42954,0.31664 4.03266,0.0873 z m -30.46432,-10.98853 c 1.7681,-0.37919 2.63479,-1.66235 2.78549,-4.12402 0.10396,-1.6981 -0.10622,-2.5908 -0.884,-3.7546 -1.05858,-1.58396 -1.98395,-2.02536 -7.58048,-3.61585 l -4.99256,-1.41884 -0.324,0.40993 c -0.56285,0.71211 -1.68926,3.20085 -1.88968,4.17514 -0.37175,1.80719 -0.0912,4.39072 0.58996,5.43185 0.17796,0.27202 1.27118,0.65219 4.54301,1.57982 5.59462,1.5862 6.0971,1.67154 7.75226,1.31657 z m -19.51384,-6.74654 c 0.0196,-2.36535 0.4537,-4.23885 1.50148,-6.47963 0.38223,-0.81746 0.6743,-1.50695 0.64904,-1.53221 -0.0461,-0.0461 -8.22327,-2.3732 -8.33911,-2.3732 -0.0339,0 0.2022,0.83161 0.52476,1.84803 0.64876,2.04429 1.22896,4.56907 1.50336,6.54193 0.14285,1.02703 0.12743,1.44127 -0.0756,2.03052 -0.1875,0.54422 -0.20091,0.76089 -0.0506,0.81816 0.53911,0.20546 3.77184,1.11117 4.00509,1.12211 0.2198,0.0103 0.26798,-0.32772 0.28161,-1.97571 z m -11.04187,-3.59557 c -0.69666,-3.17399 -2.22493,-7.26938 -3.78662,-10.14728 -3.09004,-5.69433 -7.03893,-9.848555 -12.68378,-13.343297 -1.85336,-1.147424 -5.79795,-3.118378 -7.12283,-3.559 l -0.85431,-0.28412 -0.51544,0.49382 -0.51544,0.49382 2.96074,1.522995 c 8.4858,4.365071 13.47943,9.015432 17.94615,16.712482 1.04409,1.79918 3.25725,6.41949 4.03731,8.4285 0.32865,0.84642 0.66106,1.47542 0.73869,1.39779 0.0776,-0.0776 -0.0144,-0.84969 -0.20447,-1.71571 z m 30.21432,-8.33627 c 0.005,-1.04519 0.1118,-6.38144 0.23792,-11.858325 0.12611,-5.476889 0.19371,-10.14414 0.15022,-10.371669 -0.13304,-0.695922 -0.82509,-1.190821 -1.79562,-1.284078 -1.17692,-0.113086 -1.63274,0.02445 -2.28206,0.688593 -1.0959,1.120907 -1.09205,1.075861 -1.09205,12.792877 v 10.631482 l 2.16551,0.63126 c 1.19104,0.34719 2.26496,0.64002 2.38649,0.65073 0.1638,0.0144 0.2232,-0.4722 0.22959,-1.88087 z M 377.7718,98.274818 V 87.920354 l 0.45522,-1.356992 c 0.25037,-0.746348 0.6116,-1.610302 0.80273,-1.919898 l 0.34751,-0.562903 -1.4794,-0.0055 c -0.81368,-0.003 -1.59254,-0.04249 -1.73081,-0.08771 -0.13828,-0.04522 -4.68807,-1.650442 -10.11067,-3.567167 -5.42259,-1.916722 -9.89352,-3.450693 -9.93539,-3.408824 -0.0826,0.08265 -0.97723,17.61431 -0.97563,19.119989 8.8e-4,0.863708 0.0693,1.004654 1.13514,2.340966 0.98736,1.237857 3.35683,4.654855 3.49857,5.045275 0.0469,0.12908 17.29563,5.08084 17.77176,5.1019 0.17437,0.008 0.22097,-2.17376 0.22097,-10.344686 z m -64.81005,3.414912 1.39282,-1.29013 -2.49338,-3.707529 c -1.3897,-2.066421 -2.7416,-3.88359 -3.05415,-4.105277 -1.50316,-1.066179 -3.67726,0.288134 -3.97736,2.477632 -0.10659,0.777651 -0.0539,0.892846 1.89015,4.133002 1.09989,1.833182 2.26771,3.754182 2.59515,4.268892 l 0.59536,0.93583 0.82929,-0.71114 c 0.45611,-0.39113 1.45606,-1.29171 2.22212,-2.00128 z m 12.4723,-11.412145 c 3.32184,-3.044462 6.30759,-5.693435 6.63499,-5.886606 0.3274,-0.193171 0.9002,-0.363316 1.2729,-0.378102 l 0.67763,-0.02688 -0.0598,-1.599524 c -0.0329,-0.879736 -0.11243,-2.018929 -0.17678,-2.531537 l -0.117,-0.932018 -6.04788,4.605646 c -5.94705,4.528862 -6.07056,4.61145 -7.4087,4.953688 -1.6771,0.428927 -3.63276,0.434994 -5.23835,0.01625 l -1.19404,-0.311412 0.32827,0.365797 c 0.18056,0.201188 1.3841,1.940214 2.67455,3.864503 1.29044,1.924288 2.40661,3.475504 2.48037,3.447145 0.0738,-0.02836 2.85197,-2.542483 6.17382,-5.586944 z m 23.79063,-6.625707 c 0.16851,-3.674558 0.27184,-6.715558 0.22962,-6.757777 -0.0422,-0.04222 -0.74807,0.0012 -1.56856,0.09674 -1.70673,0.198498 -4.0608,0.0011 -6.27315,-0.525967 -0.77237,-0.184016 -1.42323,-0.315647 -1.44637,-0.292516 -0.0231,0.02313 0.0755,2.1448 0.21909,4.714813 0.14363,2.570013 0.26165,4.886506 0.26226,5.14776 0.001,0.425698 0.20657,0.581675 1.98033,1.502602 1.08857,0.565177 2.89832,1.629339 4.02167,2.364802 l 2.04246,1.337208 0.11313,-0.453324 c 0.0622,-0.249328 0.25101,-3.459782 0.41952,-7.134338 z m -23.26499,-6.974986 7.39768,-5.61266 -0.087,-1.944544 c -0.0479,-1.069499 -0.13753,-2.358951 -0.19923,-2.86545 l -0.11218,-0.920907 -9.19239,6.098326 c -5.05582,3.354078 -9.32987,6.274296 -9.4979,6.489371 -0.37445,0.479274 -0.56663,1.387443 -0.4185,1.977635 0.16406,0.653678 1.15452,1.695313 1.95993,2.061204 0.41835,0.190052 1.12713,0.32351 1.73029,0.325803 l 1.02166,0.0039 7.39769,-5.61266 z m 53.93092,0.516531 c 0.54871,-0.407342 0.93723,-1.776074 0.7948,-2.800037 -0.12636,-0.908454 -0.88403,-1.987584 -1.6896,-2.406447 -0.33291,-0.1731 -5.45781,-2.090203 -11.38867,-4.260225 l -10.78338,-3.945497 -0.10937,0.499393 c -0.0601,0.274665 -0.1397,1.706365 -0.17678,3.181556 l -0.0674,2.682164 9.36057,3.328472 c 5.14832,1.83066 9.92129,3.530365 10.60661,3.777122 1.43017,0.514956 2.71168,0.493987 3.45322,-0.0565 z m -30.98993,-7.004271 0.91576,-0.280347 0.0971,-0.924889 c 0.0534,-0.508689 0.1886,-2.993176 0.30045,-5.521082 0.18265,-4.12819 0.17354,-4.712003 -0.0894,-5.73353 -0.74502,-2.89402 -1.84406,-4.315089 -3.49389,-4.517617 -2.58374,-0.317171 -4.70408,1.040204 -6.07214,3.887186 -1.13388,2.359652 -1.23638,3.151621 -1.00195,7.741739 0.11362,2.224736 0.24756,4.111278 0.29764,4.192314 0.13951,0.22573 2.78985,1.068159 4.21166,1.338703 1.50106,0.285626 3.55954,0.207932 4.83482,-0.182477 z m 0.41135,-23.652687 c 7.1e-4,-0.315988 0.15859,-5.086984 0.35085,-10.602214 0.2107,-6.044306 0.28732,-10.191392 0.19288,-10.43979 -0.25447,-0.669314 -1.10418,-1.571312 -1.72432,-1.830421 -0.3174,-0.13262 -0.89785,-0.241128 -1.28989,-0.241128 -0.8848,0 -1.26963,0.357766 -1.96432,1.826203 l -0.51595,1.090613 -1.4e-4,10.208854 -1.4e-4,10.208854 1.81196,0.02091 c 0.99658,0.01151 2.05061,0.08164 2.3423,0.155863 0.29168,0.07422 0.58999,0.144357 0.66291,0.155862 0.0729,0.01151 0.13316,-0.237622 0.13386,-0.55361 z"
         id="path2431"
         transform="translate(138.67959,54.948518)" />
    </g>
  </g>
</svg>
