<svg xmlns="http://www.w3.org/2000/svg" version="1.1" width="600px" height="600px" viewBox="0 0 200 200" style="overflow:hidden!important;"><g id="svga-group-wrapper"><g id="svga-group-backs-single"></g><g id="svga-group-humanwrap-move" transform="matrix(1,0,0,1,0,-6)"><g id="svga-group-humanwrap" transform="matrix(0.8499994000000002,0,0,0.8499994000000002,15.00756063081721,16.98390203510597)"><g id="svga-group-hair-back-move" transform="matrix(1,-2.856368900253737e-18,2.856368900253737e-18,1,0,0)"><g id="svga-group-hair-back"><path id="SvgjsPath10914" d="M61.6 38.2S52 52.5 51.1 62.3s1.6 31 1.6 38-.7 25.9-11.6 35.1c0 0 8.2-4.3 12.3-11.6 0 0-2.5 10.5-9.8 16.2 0 0 9.6-4.3 15.7-15.2 0 0-4.8 13.2-12.8 16.8 0 0 9.8-2.7 16.4-14.8 0 0-2.7 16.6-7.3 22.3 0 0 8.6-11.6 10.9-19.4 0 0-3.6 13.7-3.2 20.5 0 0 1.6-10.9 9.8-18.4 0 0 1.1 12.8.2 18.4 0 0 4.6-7.7 5.2-14.6 0 0 3.6 10.9 6.2 15.5 0 0-1.6-9.6-.5-13.9l37.3-2.1s3.2 14.3 6.2 18.7c0 0-2.5-14.8-.9-20.3 0 0 .9 12.1 14.8 19.1 0 0-12.1-12.1-11.1-22.5 0 0 2.7 10.2 10.5 15.9 0 0-6.4-11.4-4.8-20 0 0 5.9 15.7 11.1 19.8 0 0-6.1-10.2-5.7-19.1 0 0 4.1 10 9.1 13 0 0-5.7-7.1-6.4-17.5 0 0 3.6 10 12.3 15 0 0-8.9-7.3-10.7-21.8-1.8-14.6 1.1-37.8 1.4-44.8s0-12.3-2.7-18.4-2.1-12.1-18.4-15.5c-16.4-3.5-64.6 1.5-64.6 1.5z" fill="#f5d967" stroke-width="none" opacity="1"></path><path id="SvgjsPath10915" d="M50.7 120.8c.7-2.1 1.3-4.2 1.7-6.3 1.8-8.6 1.3-17.4.7-25.9-.7-8.6-1.6-17.1-.9-25.6.4-4.2 1.1-8.4 2.4-12.5.7-2 1.5-4 2.4-5.9 1-1.9 2.1-3.7 3.4-5.4-1.5 1.6-2.8 3.3-3.9 5.2-1.1 1.9-2.1 3.8-2.9 5.8-.8 2-1.4 4.1-1.9 6.2-.5 2.1-.8 4.3-1.1 6.4-1 8.7-.2 17.3.5 25.9.3 4.3.6 8.5.7 12.8 0 2.1 0 4.2-.2 6.4-.2 2.1-.4 4.2-.8 6.3-.7 4.2-1.9 8.3-3.7 12.1-.9 1.9-2 3.8-3.2 5.5-1.3 1.7-2.7 3.3-4.3 4.8 1.7-1.3 3.3-2.8 4.7-4.5 1.4-1.7 2.6-3.5 3.7-5.4 1.1-1.9 1.9-3.9 2.7-5.9zm11.6-6.7c-1.1 2.7-2.1 5.5-3.1 8.2-1 2.7-2.1 5.3-3.5 7.8-1.3 2.5-2.9 4.9-4.7 7-1.9 2.1-4 4-6.5 5.6 2.8-.8 5.5-2.4 7.6-4.5 2.2-2.1 4-4.5 5.4-7.2 1.4-2.6 2.4-5.4 3.2-8.3.8-2.8 1.3-5.6 1.6-8.6zm7.3-1.7c0-4.2-.4-8.5-1.4-12.6.2 4.2.2 8.4-.1 12.6-.3 4.2-.9 8.3-1.8 12.3-.8 4.1-2 8.1-3.4 12-1.4 3.9-3.1 7.7-5 11.5 2.6-3.3 4.7-7 6.5-10.9 1.7-3.9 3-8 3.9-12.1.9-4.3 1.3-8.6 1.3-12.8zm8.1-5.1c.2 3.9.2 7.7-.1 11.5-.3 3.8-.9 7.6-1.9 11.2-.9 3.7-2.2 7.3-3.7 10.8-1.5 3.5-3.3 6.9-5.3 10.2 2.7-2.8 4.9-6.1 6.7-9.5 1.8-3.5 3.2-7.2 4.2-11 .9-3.8 1.5-7.7 1.5-11.6 0-3.9-.4-7.9-1.4-11.6zm8.3 18c-.2 3.3-.7 6.7-1.4 9.9-.7 3.3-1.6 6.5-2.7 9.6-1.1 3.2-2.5 6.2-4 9.3 2.2-2.6 4-5.6 5.5-8.7 1.5-3.1 2.5-6.4 3.2-9.8.7-3.4 1.1-6.9 1-10.3-.1-3.4-.5-6.9-1.5-10.2.1 3.4.1 6.8-.1 10.2zm67.8 8c-1.3-1.9-2.4-4-3.4-6.1-1.9-4.2-3-8.8-3.7-13.4a80.289 80.289 0 0 1-.6-13.9c.2-4.7.6-9.3 1-14 .4-4.7.8-9.4.9-14.1 0-2.4 0-4.7-.1-7.1-.2-2.4-.4-4.7-.9-7.1-.4-2.3-1-4.7-1.7-6.9-.8-2.2-1.6-4.5-2.7-6.6-1.1-2.1-2.4-4.1-3.9-5.9-1.5-1.8-3.2-3.5-5.1-4.9 1.7 1.6 3.3 3.3 4.7 5.2 1.3 1.9 2.5 3.9 3.4 6 1.9 4.2 3.1 8.8 3.8 13.3a80.289 80.289 0 0 1 .6 13.9c-.2 4.7-.6 9.3-1 14-.4 4.7-.8 9.4-.9 14.1 0 2.4 0 4.7.1 7.1.1 2.4.4 4.7.8 7.1.4 2.3.9 4.7 1.7 6.9.7 2.3 1.6 4.5 2.7 6.6 1.1 2.1 2.4 4.1 3.8 6 1.5 1.9 3.2 3.5 5 5-1.6-1.6-3.2-3.3-4.5-5.2zm-17-10.8c-.9-4.6-1.4-9.3-1.6-14.1-.2-4.7-.1-9.5 0-14.2.2-9.5.7-19.1-.3-28.7-.3-2.4-.6-4.8-1.1-7.1-.5-2.3-1.1-4.7-2-7-.9-2.2-2.1-4.4-3.8-6.2-.8-.9-1.8-1.7-2.8-2.3-1.1-.6-2.2-1-3.4-1.1 2.3.5 4.4 1.9 5.8 3.7 1.5 1.8 2.5 4 3.2 6.2.8 2.2 1.2 4.5 1.6 6.9.4 2.3.7 4.7.9 7 .7 9.4.2 19-.1 28.5-.2 9.5-.2 19.3 2.1 28.7 1.1 4.7 2.8 9.3 5.1 13.5 2.3 4.2 5.3 8.1 8.9 11.2-3.3-3.4-6-7.4-8-11.7-2.2-4.1-3.6-8.7-4.5-13.3zm-7.4 6.5c-2.8-9.2-4.1-18.8-4.7-28.4-.8-9.6-1-19.3-2.1-29-.3-2.4-.6-4.8-1-7.2-.4-2.4-.8-4.8-1.6-7.2-.8-2.3-2-4.6-3.7-6.3-1.7-1.8-4-3-6.5-3.1 2.4.3 4.5 1.7 6.1 3.5 1.6 1.8 2.6 4 3.2 6.3.6 2.3.9 4.7 1.2 7.1.3 2.4.5 4.8.7 7.2.8 9.6.9 19.3 1.7 29 .7 9.7 2.1 19.4 5.2 28.7 1.6 4.6 3.5 9.1 6 13.3 2.6 4.1 5.6 8 9.2 11.3-3.3-3.6-6.1-7.5-8.3-11.8-2.2-4.4-4-8.9-5.4-13.4zm-15.6-11.7c-3.5-13.1-5.2-26.6-5.3-40.2-1.5 13.6-.2 27.5 3.4 40.7 1.8 6.6 4.1 13.1 7 19.3 2.9 6.2 6.4 12.1 10.4 17.6-3.4-5.9-6.3-12-9-18.3-2.6-6.2-4.8-12.6-6.5-19.1z" fill="#e6c74a" stroke-width="none" opacity="1"></path></g></g><g id="svga-group-humanbody-back"><path id="SvgjsPath10816" d="M180.8 184.9c-2.3-3.4-38.9-17.8-38.9-17.8l-13.4-5.2-5.6-68.8H76.8L71.3 162l-13.4 5.2S21.4 181.6 19 185c-2.3 3.4-3.3 14.9-3.3 14.9V219h168.5v-19.2c-.1.1-1-11.5-3.4-14.9z" fill="#fcddcc" stroke-width="none" opacity="1"></path></g><g id="svga-group-chinshadow-single"><path id="SvgjsPath10812" d="M73.4 148.4c11.3 14.1 20.9 13.8 20.9 13.8s9.6.3 20.9-13.9c4.4-5.5 8-11.5 10.8-17.1l-3.1-38.1H76.8l-4.3 54.2c.3.3.6.7.9 1.1z" fill="#dda687" stroke-width="none" opacity="1"></path></g><g id="svga-group-humanbody-front"><path id="SvgjsPath10817" d="M184.5 219c-.1-6.4-.1-12.8-.1-19.2l-.3-.1s.1-.1.2 0c.1 0 .1.1.1.1v-.4l-.1-.5-.1-.9-.2-1.9c-.2-1.3-.4-2.5-.6-3.8-.2-1.3-.5-2.5-.9-3.8-.4-1.2-.8-2.5-1.5-3.6-.8-.9-1.9-1.5-2.9-2.1-1-.6-2.1-1.1-3.2-1.7-2.1-1.1-4.3-2.1-6.5-3.1-4.4-2-8.7-3.9-13.1-5.7-4.4-1.9-8.8-3.7-13.2-5.5l-13-5.2-1.2-16.9c-.4-5.7-.9-11.5-1.3-17.2l-1.3-17.2-1.5-17.3-.1-.8h-.8c-7.7 0-15.4.1-23.1.1l-23.1.2h-.5v.5L75 110.2l-1.3 17.2c-.8 11.4-1.8 22.8-2.8 34.2-5.6 2.1-11.2 4.2-16.7 6.4-5.6 2.2-11.2 4.5-16.8 6.9-2.8 1.2-5.6 2.4-8.3 3.6-2.8 1.3-5.5 2.5-8.2 4.1-.7.4-1.3.8-2 1.4-.2.1-.4.4-.5.6l-.3.6c-.2.4-.4.7-.5 1.1-.6 1.5-1 3-1.3 4.5-.6 3-1.1 6-1.4 9.1l-.1 19.1v.9h.9l42.1.1H100c14 0 28.1-.1 42.1-.2l42.1-.5h.3v-.3zm-84.5-1-42.1-.1-41.2.1-.1-18.1c.3-3 .6-5.9 1.2-8.9.3-1.4.6-2.9 1.1-4.2.1-.3.3-.7.4-.9l.2-.4.3-.3c.5-.4 1.1-.8 1.8-1.2 2.5-1.5 5.3-2.8 8-4.1 2.7-1.3 5.5-2.5 8.2-3.7 5.5-2.4 11.1-4.8 16.7-7.1s11.2-4.5 16.9-6.7l.2-.1v-.2c.9-11.5 1.7-23 2.7-34.4l1.4-17.2 1.5-16.7 22.6.2c7.4.1 14.8.1 22.3.1l1.3 16.4 1.5 17.2c.5 5.7 1 11.5 1.5 17.2l1.6 17.2v.3l.3.1 13.4 5c4.4 1.7 8.9 3.4 13.3 5.2 4.4 1.8 8.8 3.7 13.2 5.6 2.2 1 4.3 2 6.5 3 1.1.5 2.1 1.1 3.2 1.6 1 .6 2.1 1.2 2.9 2 .7 1.1 1.1 2.3 1.4 3.5.3 1.2.6 2.5.8 3.7.2 1.3.4 2.5.6 3.8l.2 1.9.1.9.1.5v.4c0 6.3 0 12.6-.1 18.9l-41.8-.5c-14 .1-28.1 0-42.1 0z" fill="#ce8d69" stroke-width="none" opacity="1"></path><path id="SvgjsPath10818" d="M125.1 142.4s-1.8 23-9.1 32.9c0 0 7.9-25 9.1-32.9zm-34.5 16s5 7.9 11.5 10.1c0 0-9.5 2.2-11.5-10.1zM73.4 140c6.7 25.6 6.7 25.6 8.5 30.7 0 0 .4-12.6-8.5-30.7z" fill="#dda687" stroke-width="none" opacity="1"></path></g><g id="svga-group-clothes-single"><path id="SvgjsPath10695" d="M61.8 186.6s14.4 11.8 17.6 14.6c3.2 2.8 21.3 12 21.3 12s19.2-9.9 22.4-12.5c3.2-2.6 14.4-17.4 14.4-17.4V220H66.4l-4.6-33.4z" fill="#efefef" stroke-width="none" opacity="1"></path><path id="SvgjsPath10696" d="M67 148.7s-7.2 5.3-11 8.6-9.9 6.6-9.9 6.6l2.9 1.6s-5.5 3.2-10.9 4.8c-5.5 1.6-20.1 5.2-21.1 5.7s-2.3 2.9-2.3 2.9-4.4.9-4.9 11.1c-.6 10.2-1.3 30-1.3 30h64.1s-5.8-35.1-6.3-39.2c0-.4 1.2-16.6 1.2-18 0-1 4.4-11.7 4.3-15.4-.1-1.5-4.8 1.3-4.8 1.3zm66 0s7.2 5.3 11 8.6 9.9 6.6 9.9 6.6l-2.9 1.6s5.5 3.2 10.9 4.8c5.5 1.6 20.1 5.2 21.1 5.7s2.3 2.9 2.3 2.9 4.4.9 4.9 11.1 1.3 29.9 1.3 29.9h-64.1s5.8-35.1 6.3-39.2c0-.4-1.1-16.6-1.1-18 0-1-3.5-12.8-3.7-15.9-.1-1.2 4.1 1.9 4.1 1.9z" fill="#181d22" stroke-width="none" opacity="1"></path><path id="SvgjsPath10697" d="M138.2 164.1s4.9 11.3 6.3 13.8c1.4 2.6 12.2 10.8 12.2 10.8s-15.5 12.9-15.7 14.5c-.2 1.6-3.1 11.7-3.1 11.7l4.2-9.9s6.6-5.6 8.2-6.6 14.1-9.9 14.1-9.9-16.2-11-17.8-12.7c-1.6-1.4-8.4-11.7-8.4-11.7zm26.3 9.6c-3.5-.9-10.1-4.2-12.7-5.6 0 0 8 5.4 10.6 6.8 2.6 1.4 15.5 3.8 15.5 4.5 0 .7-4 5.2-4.9 7.5-.9 2.4-.9 9.1-.9 9.1s1.9-5.9 3.1-8.9 7.7-7.3 7.7-7.3 0-1.6-.9-2.6-14-2.6-17.5-3.5zm24.1 12.9c-.2-2.6-2.1-4.5-3.8-5.2 0 0 .9 1.6 1.2 2.6s.7 11.5.7 15.9 3.1 16.9 3.1 16.9-.9-27.6-1.2-30.2zM65.5 161.7c-.5 5.4-2.6 17.6-3.5 21.4-.9 3.8-.2 18.1-.2 18.1s.7-12.7 1.9-15.5c1.2-2.8 2.6-10.3 2.4-12.4-.4-2.2-.6-11.6-.6-11.6zm-43.1 14.5c-1.6.4-4.3 1.2-5.1 2.2 0 0 0 1.4 7.5-.8 5.3-1.5 14.7-5.8 19.7-8.2-6.9 2.7-20.8 6.5-22.1 6.8zm22.1-6.8c1.6-.6 2.9-1.2 3.5-1.6-.1 0-1.4.6-3.5 1.6zm-2.1 22.9c-2.2-1-5.7-2.4-5.7-2.4 4.1 1.8 21.2 14.6 21.2 14.6l6.3 13.8s-4.5-14.6-5.5-15.5c-.9-1-14.1-9.5-16.3-10.5z" fill="#282d31" stroke-width="none" opacity="1"></path><path id="SvgjsPath10698" d="M190.8 190.1c-.5-9.2-4.1-11.1-5.1-11.4-.4-.6-1.4-2.5-2.4-2.9-.5-.3-3.8-1.1-9.1-2.5-4.4-1.1-9.3-2.4-12-3.2-4.1-1.3-8.4-3.4-10.1-4.4l2.9-1.7-.8-.4c-.1 0-6.1-3.3-9.8-6.5-3.8-3.3-10.9-8.6-11-8.6l-.8-.6-4.8-2.4 1.1 16.4 3.1 1.2c0 1.1.4 6.1.7 10.5.2 3.5.5 7 .5 7.3-.1 1.2-.7 4.9-1.4 9.7-.6.8-1.2 1.5-1.8 2.2-1.3 1.6-2.6 3.1-3.9 4.6-.7.8-1.3 1.5-2 2.2-.3.4-.7.7-1.1 1-.4.3-.8.6-1.2.8-3.4 2.1-7 4-10.5 5.9-3.5 1.9-7 3.7-10.5 5.5-3.4-1.7-6.9-3.5-10.3-5.3-1.7-.9-3.5-1.9-5.2-2.9-1.7-1-3.4-1.9-5-3.1L68.5 192c-.9-5.4-1.6-9.9-1.7-11.1 0-.3.2-3.9.5-7.3.3-4.4.6-8.9.7-10.2l3.1-1.4 1.3-15.9-5 1.7-.8.6c-.1.1-7.2 5.4-11 8.6-3.7 3.2-9.8 6.5-9.8 6.5l-.8.4 2.9 1.7c-1.7.9-5.9 3.1-10 4.4-2.7.8-7.6 2.1-12 3.2-5.3 1.4-8.6 2.2-9.1 2.5-1 .5-2.1 2.3-2.4 2.9-1 .4-4.6 2.2-5.1 11.4-.6 10.1-1.3 29.8-1.3 30v.5h184.1v-.5c-.1-.2-.8-19.9-1.3-29.9zM30.4 219.5c-.1-3.5-.3-6.9-.9-10.4-.7-3.7-1.4-7.4-2.3-11-.5-1.8-.9-3.6-1.5-5.4-.6-1.8-1.2-3.6-2.2-5.2-1.1-1.6-2.3-3-3.6-4.4-.6-.7-1.3-1.4-2-2-.7-.6-1.3-1.4-2.2-1.8.4.2.7.6 1 .9.3.3.6.7.9 1l1.8 2.1c1.2 1.4 2.4 2.9 3.3 4.5.9 1.6 1.5 3.4 2 5.1.5 1.8 1 3.6 1.4 5.4.9 3.6 1.6 7.3 2.5 10.9.4 1.8.7 3.7.9 5.5.4 1.6.6 3.2.9 4.8H9c.1-3.2.8-20.3 1.2-29.4.5-9.6 4.5-10.6 4.6-10.6l.2-.1.1-.2c.5-.9 1.4-2.4 2.1-2.7.5-.2 4.8-1.4 8.9-2.4 4.4-1.1 9.4-2.4 12.1-3.2 4.9-1.5 9.8-4.2 10.8-4.8.6.4 1.2.7 1.8 1.1l2.5 1.5c.4.2.8.5 1.2.8l.6.3c-2.1 2.2-4.3 4.2-6.7 6l-8.4 6.1c-2.8 2.1-5.6 4.1-8.4 6.2l-1.1.8 1.2.8 6.1 4.1 6.1 4.1 6.2 4.1c1 .7 2.1 1.4 3 2l2.8 2.2c1.2 2.3 2.3 4.6 3.5 6.9l3.3 6.3H30.4zm32.4 0c-.9-2.2-1.8-4.4-2.7-6.7-1-2.4-2-4.9-3.1-7.3v-.1l-.1-.1c-.9-.8-1.8-1.7-2.8-2.5-1-.8-2-1.5-3-2.2-2-1.4-4-2.8-6-4.3s-4-2.8-6.1-4.2c-1.7-1.1-3.3-2.3-5-3.4 2.4-1.8 4.8-3.6 7.2-5.5 2.7-2.1 5.5-4.2 8.2-6.4 2.8-2.2 5.2-4.8 7.4-7.5s4.3-5.5 6-8.5c-2.1 2.7-4.4 5.4-6.8 7.9-.2.3-.5.5-.7.8-.2-.1-.4-.3-.6-.4-.4-.3-.7-.7-1.1-1-.8-.6-1.6-1.2-2.4-1.7-.8-.5-1.6-1.1-2.5-1.6l-1.2-.6-.6-.4c1.8-1 6.2-3.6 9.2-6.2 3-2.6 10.2-8 10.2-8l4.1-2.1s-3.7 14.6-3.7 15.3c0 .8-.4 5.9-.7 10.5-.4 5.7-.5 7.3-.5 7.5 0 .1 0 .3.1.4-.2.6-.4 1.2-.5 1.9l-.9 3.9c-.3 1.3-.5 2.6-.8 3.9-.2 1.3-.5 2.6-.7 3.9-.1 2.3-.2 4.5-.1 6.8.4-2.2.7-4.5 1-6.7.3-1.3.5-2.6.8-3.9.2-1.3.5-2.6.7-3.9l.6-3.9c0-.2.1-.5.1-.7 1.1 7.5 5.2 32.6 6 36.9l-9 .1zm57 0H84.2c-3.7 0-7.4 0-11.2.1-.4-2.4-2.8-16.6-4.4-27.2.8.7 1.6 1.4 2.4 2 3 2.6 5.9 5.1 8.9 7.6 1.6 1.2 3.3 2.2 5 3.2 1.7 1 3.4 1.9 5.2 2.9 3.5 1.9 7 3.7 10.5 5.5l.2.1.2-.1c3.6-1.9 7.1-3.7 10.7-5.7 3.5-1.9 7.1-3.9 10.4-6.1l1.2-.9c.4-.4.8-.7 1.1-1.1.7-.7 1.4-1.5 2-2.3 1.3-1.5 2.6-3.1 3.8-4.7.5-.6.9-1.1 1.4-1.7-1.7 10.7-4.2 25.9-4.7 28.4h-7.1zm8.2 0c.7-4.3 4.9-29.4 6-36.9 0 .2.1.5.1.7l.6 3.9c.2 1.3.5 2.6.7 3.9.3 1.3.5 2.6.8 3.9.2 2.2.6 4.5 1 6.7.1-2.3 0-4.6-.1-6.8-.2-1.3-.4-2.6-.7-3.9-.2-1.3-.5-2.6-.8-3.9l-.9-3.9c-.1-.6-.3-1.2-.5-1.9 0-.2 0-.3.1-.4 0-.2-.1-1.8-.5-7.5-.3-4.6-.7-9.8-.7-10.6 0-.9-3.7-15.8-3.7-15.8l4.2 2.6s7.2 5.4 10.2 8c3 2.6 7.4 5.2 9.2 6.2l-.6.4-1.2.6c-.9.5-1.7 1-2.5 1.6-.8.6-1.6 1.1-2.4 1.7-.4.3-.7.7-1.1 1-.2.2-.4.3-.6.4-.2-.2-.5-.5-.7-.8-2.4-2.5-4.6-5.2-6.8-7.9 1.8 3 3.9 5.8 6.1 8.5 2.2 2.7 4.6 5.3 7.4 7.5 2.7 2.2 5.5 4.3 8.2 6.4 2.4 1.9 4.8 3.7 7.2 5.5-1.7 1.1-3.3 2.2-5 3.4-2 1.4-4.1 2.8-6.1 4.2-2 1.4-4 2.8-6 4.3-1 .7-2 1.4-3 2.2-.9.8-1.9 1.6-2.8 2.5l-.1.1-.1.1c-1 2.4-2.1 4.9-3.1 7.3l-2.7 6.6-9.1.1zm41.7 0c.2-1.6.4-3.1.6-4.7.3-1.9.5-3.7.9-5.5.9-3.6 1.6-7.3 2.5-10.9.4-1.8.9-3.6 1.4-5.4s1.1-3.6 2-5.1c.9-1.5 2.1-3 3.3-4.5l1.8-2.1c.3-.4.6-.7.9-1 .3-.3.6-.7 1-.9-.8.4-1.5 1.2-2.2 1.8l-2 2c-1.3 1.4-2.5 2.8-3.6 4.4-1.1 1.6-1.6 3.4-2.2 5.2-.6 1.8-1.1 3.6-1.5 5.4-.9 3.7-1.6 7.3-2.3 11-.4 3.4-.6 6.8-.6 10.3h-32.4l3.3-6.3c1.2-2.3 2.4-4.6 3.5-6.9l2.8-2.2c1-.7 2-1.4 3-2l6.1-4.1 6.1-4.1 6.1-4.1 1.2-.8-1.1-.8c-2.8-2.1-5.6-4.2-8.4-6.2l-8.4-6.1c-2.4-1.8-4.6-3.8-6.7-6l.6-.3c.4-.2.8-.5 1.2-.8l2.5-1.5c.6-.3 1.2-.7 1.8-1.1 1 .6 5.9 3.3 10.8 4.8 2.7.8 7.7 2.1 12.1 3.2 4.2 1.1 8.5 2.2 8.9 2.4.6.3 1.6 1.8 2.1 2.7l.1.2.2.1s4.1 1 4.6 10.6c.5 9.1 1.1 26.2 1.2 29.4h-21.2zm22.4 1z" fill="#000000" stroke-width="none" opacity="1"></path></g><g id="svga-group-head" transform="matrix(1,-2.856368900253737e-18,2.856368900253737e-18,1,0,0)"><g id="svga-group-ears-left-move" transform="matrix(1,0,0,1,0,0)"><g id="svga-group-ears-left"><path id="SvgjsPath10714" d="M67.09 85.03s-3.12-7.36-5.69-9.71c-2.57-2.34-7.59-5.02-9.48-4.35-1.9.67 1.12 8.81 2.23 10.6 1.12 1.79 1.12 11.49 1.23 14.39.11 2.9 2.9 6.25 5.02 8.7 2.12 2.45 4.24-1.12 5.69-4.35 1.45-3.23 1-15.28 1-15.28z" fill="#fcddcc" stroke-width="none" opacity="1"></path><path id="SvgjsPath10715" d="M65.92 91.31c-.33-2.85-5.11-11.21-6.86-12.8-1.76-1.59-5.69-4.44-5.77-3.52s2.26 5.69 2.34 8.54.17 10.96 1.09 12.72c.92 1.76 5.69 1.51 6.53-.17s2.67-4.77 2.67-4.77z" fill="#edc0a8" stroke-width="none" opacity="1"></path><path id="SvgjsPath10716" d="M51.07 71.79c-.11.94.06 1.79.25 2.64.4 1.69.98 3.31 1.62 4.9.33.79.68 1.58 1.11 2.33.35.72.47 1.6.59 2.43.22 1.69.26 3.4.32 5.11.04 1.71.03 3.42.05 5.13.03.85-.04 1.71.14 2.62.17.89.52 1.72.93 2.5.82 1.56 1.87 2.94 2.96 4.28.27.33.55.67.83.99.13.16.29.33.47.5.16.18.38.32.6.45.46.25 1.07.32 1.58.14.49-.19.88-.49 1.21-.81.66-.65 1.13-1.41 1.57-2.16.43-.76.81-1.54 1.15-2.34.63-1.74.72-3.45.84-5.17.17-3.44.07-6.86-.15-10.29-.62-1.62-1.31-3.18-2.08-4.71-.79-1.52-1.59-3.06-2.7-4.42-.56-.69-1.24-1.27-1.92-1.8-.69-.53-1.41-1.01-2.15-1.47-1.49-.89-3.07-1.66-4.83-2.01-.44-.07-.91-.11-1.4.01-.22.02-.56.2-.71.44-.18.22-.23.47-.28.71zm.56.1c.04-.18.1-.36.19-.47.1-.11.16-.15.37-.18.35-.08.75-.02 1.14.05 1.6.33 3.13 1.13 4.58 1.96.73.42 1.44.88 2.11 1.38.68.51 1.32 1.03 1.85 1.67 1.07 1.27 1.97 2.74 2.81 4.22.83 1.48 1.63 3.01 2.37 4.53-.03 3.41-.11 6.84-.4 10.23-.16 1.68-.34 3.42-.92 4.9-.73 1.51-1.47 3.09-2.59 4.22-.28.27-.59.49-.9.61-.31.1-.61.06-.9-.09-.55-.33-1.09-1.11-1.65-1.73-1.09-1.3-2.14-2.64-2.94-4.1-.4-.73-.72-1.5-.9-2.28-.17-.76-.15-1.64-.19-2.49-.06-1.71-.14-3.42-.25-5.13-.11-1.71-.25-3.42-.48-5.12-.14-.85-.25-1.71-.66-2.52-.43-.72-.75-1.52-1.07-2.31-.62-1.59-1.13-3.22-1.44-4.89-.14-.84-.26-1.7-.13-2.46z" fill="#edc0a8" stroke-width="none" opacity="1"></path><path id="SvgjsPath10717" d="M57.38 80.46c.58 1.22 1.11 2.47 1.51 3.75.4 1.29.75 2.59 1.06 3.9.29 1.31.56 2.63.72 3.97l-.08.02c-.42-1.28-.8-2.56-1.2-3.84-.39-1.28-.78-2.56-1.2-3.82-.41-1.27-.78-2.55-1.24-3.8-.38-1.05-.84-2.1-1.49-3 .37 1.58.79 3.15 1.13 4.74.19.9.36 1.8.49 2.71.07.46.13.92.17 1.38.05.46.04.98.04 1.39.05 1.78.28 3.6.53 5.39.14.9.28 1.79.47 2.67.09.44.2.88.32 1.3.01.02.01.04.02.06.04-.85.09-1.71.11-2.56.04-1.28.1-2.55.06-3.83l.08-.01c.17 1.27.2 2.56.25 3.84.03 1.28.04 2.56.05 3.84v.8l-.52-.59c-.4-.46-.51-.9-.68-1.34-.15-.45-.28-.89-.39-1.34-.23-.9-.42-1.8-.58-2.71-.31-1.82-.56-3.63-.58-5.51.09-1.79-.24-3.58-.47-5.39-.26-1.8-.5-3.62-.9-5.4l-.12-.54.35.42c.88 1.08 1.49 2.29 2.09 3.5z" fill="#ce8d69" stroke-width="none" opacity="1"></path></g></g><g id="svga-group-ears-right-move" transform="matrix(1,0,0,1,0,0)"><g id="svga-group-ears-right"><path id="SvgjsPath10718" d="M132.91 85.03s3.12-7.36 5.69-9.71c2.57-2.34 7.59-5.02 9.48-4.35s-1.12 8.81-2.23 10.6c-1.12 1.79-1.12 11.49-1.23 14.39-.11 2.9-2.9 6.25-5.02 8.7-2.12 2.45-4.24-1.12-5.69-4.35-1.45-3.23-1-15.28-1-15.28z" fill="#fcddcc" stroke-width="none" opacity="1"></path><path id="SvgjsPath10719" d="M134.08 91.31c.33-2.85 5.11-11.21 6.86-12.8 1.76-1.59 5.69-4.44 5.77-3.52.08.92-2.26 5.69-2.34 8.54s-.17 10.96-1.09 12.72c-.92 1.76-5.69 1.51-6.53-.17s-2.67-4.77-2.67-4.77z" fill="#edc0a8" stroke-width="none" opacity="1"></path><path id="SvgjsPath10720" d="M148.66 71.07c-.15-.24-.49-.42-.71-.44-.49-.12-.96-.08-1.4-.01-1.76.35-3.34 1.12-4.83 2.01-.74.45-1.46.93-2.15 1.47-.68.53-1.36 1.1-1.92 1.8-1.11 1.36-1.91 2.9-2.7 4.42-.77 1.54-1.46 3.1-2.08 4.71-.23 3.43-.33 6.85-.15 10.29.12 1.72.22 3.44.84 5.17.34.79.72 1.58 1.15 2.34.44.76.91 1.51 1.57 2.16.33.32.72.62 1.21.81.51.18 1.11.11 1.58-.14.22-.14.44-.27.6-.45.18-.17.34-.34.47-.5.28-.32.55-.66.83-.99 1.09-1.34 2.14-2.72 2.96-4.28.4-.78.75-1.61.93-2.5.17-.92.11-1.77.14-2.62.02-1.71.01-3.42.05-5.13.05-1.71.1-3.42.32-5.11.12-.83.23-1.71.59-2.43.43-.76.78-1.54 1.11-2.33.64-1.59 1.21-3.21 1.62-4.9.18-.85.36-1.7.25-2.64-.06-.23-.11-.48-.28-.71zm-.42 3.27c-.31 1.66-.82 3.3-1.44 4.89-.32.79-.63 1.59-1.07 2.31-.41.81-.52 1.67-.66 2.52-.22 1.7-.37 3.41-.48 5.12-.11 1.71-.2 3.42-.25 5.13-.05.85-.02 1.73-.19 2.49-.18.79-.5 1.55-.9 2.28-.8 1.46-1.85 2.8-2.94 4.1-.56.62-1.1 1.4-1.65 1.73-.29.15-.59.19-.9.09-.31-.12-.62-.34-.9-.61-1.12-1.13-1.86-2.71-2.59-4.22-.58-1.47-.76-3.22-.92-4.9-.29-3.39-.37-6.82-.4-10.23.74-1.52 1.54-3.05 2.37-4.53.84-1.48 1.73-2.95 2.81-4.22.53-.63 1.17-1.16 1.85-1.67.67-.5 1.39-.96 2.11-1.38 1.45-.83 2.98-1.63 4.58-1.96.39-.07.8-.12 1.14-.05.21.03.27.07.37.18.09.11.15.29.19.47.13.77.01 1.63-.13 2.46z" fill="#edc0a8" stroke-width="none" opacity="1"></path><path id="SvgjsPath10721" d="M142.62 80.46c-.58 1.22-1.11 2.47-1.51 3.75-.4 1.29-.75 2.59-1.06 3.9-.29 1.31-.56 2.63-.72 3.97l.08.02c.42-1.28.8-2.56 1.2-3.84.39-1.28.78-2.56 1.2-3.82.41-1.27.78-2.55 1.24-3.8.38-1.05.84-2.1 1.49-3-.37 1.58-.79 3.15-1.13 4.74-.19.9-.36 1.8-.49 2.71-.07.46-.13.92-.17 1.38-.05.46-.04.98-.04 1.39-.05 1.78-.28 3.6-.53 5.39-.14.9-.28 1.79-.47 2.67-.09.44-.2.88-.32 1.3-.01.02-.01.04-.02.06-.04-.85-.09-1.71-.11-2.56-.04-1.28-.1-2.55-.06-3.83l-.08-.01c-.17 1.27-.2 2.56-.25 3.84-.03 1.28-.04 2.56-.05 3.84v.8l.52-.59c.4-.46.51-.9.68-1.34.15-.45.28-.89.39-1.34.23-.9.42-1.8.58-2.71.31-1.82.56-3.63.58-5.51-.09-1.79.24-3.58.47-5.39.26-1.8.5-3.62.9-5.4l.12-.54-.35.42c-.88 1.08-1.49 2.29-2.09 3.5z" fill="#ce8d69" stroke-width="none" opacity="1"></path></g></g><g id="svga-group-faceshape-wrap"><g id="svga-group-faceshape-single"><path id="SvgjsPath10798" d="M140.4 54.9c-2.2-10-6.3-16-15.2-20.8-9.3-5-25.2-4.8-25.2-4.8s-15.9-.2-25.2 4.8c-8.8 4.8-13 10.8-15.2 20.8-.9 4 0 13.6 0 13.6s1.2 11.9 1.2 15.3-.6 9.6.2 16.4 6.8 23.5 18.1 37.6 20.9 13.8 20.9 13.8 9.6.3 20.9-13.8 17.3-30.9 18.1-37.6c.8-6.8.2-13 .2-16.4s1.2-15.3 1.2-15.3c-.1-.1.9-9.6 0-13.6z" fill="#fcddcc" stroke-width="none" opacity="1"></path><path id="SvgjsPath10799" d="M140.4 54.9c-2.2-10-6.3-16-15.2-20.8-9.3-5-25.2-4.8-25.2-4.8s-15.9-.2-25.2 4.8c-8.8 4.8-13 10.8-15.2 20.8-.9 4 0 13.6 0 13.6s1.2 11.9 1.2 15.3-.6 9.6.2 16.4 6.8 23.5 18.1 37.6 20.9 13.8 20.9 13.8 9.6.3 20.9-13.8 17.3-30.9 18.1-37.6c.8-6.8.2-13 .2-16.4s1.2-15.3 1.2-15.3c-.1-.1.9-9.6 0-13.6zm0 10.1c-.1 1.1-.2 2.2-.3 3.4l-.5 4.9c-.2 1.6-.4 3.3-.5 4.9-.2 1.7-.3 3.3-.4 5-.1 1.7 0 3.3 0 5 0 3.3-.1 6.6-.4 9.8 0 .4-.1.8-.1 1.2l-.1.6-.1.6c-.1.8-.3 1.6-.5 2.3-.4 1.6-.9 3.1-1.4 4.7-1.1 3.1-2.3 6.1-3.7 9.1s-2.9 5.9-4.6 8.7c-.4.7-.8 1.4-1.3 2.1-.4.7-.8 1.4-1.3 2.1l-1.4 2-1.4 2c-.5.7-1 1.3-1.5 2l-.7 1-.4.5-.4.5-1.6 1.9c-.5.6-1.1 1.2-1.7 1.8-2.3 2.3-4.7 4.4-7.4 6.1-1.4.8-2.7 1.6-4.2 2.1-.7.3-1.5.5-2.2.7s-1.5.3-2.2.4c-.6 0-1.4-.1-2.1-.2-.7-.2-1.5-.4-2.2-.6-1.5-.5-2.9-1.2-4.3-2-2.8-1.6-5.3-3.7-7.6-5.9-2.3-2.3-4.4-4.8-6.3-7.4-2-2.6-3.8-5.4-5.5-8.1-1.7-2.8-3.3-5.7-4.7-8.7-1.4-3-2.7-6-3.8-9.1-.3-.8-.5-1.6-.8-2.3l-.4-1.2-.3-1.2-.3-1.2c-.1-.4-.2-.8-.2-1.2-.1-.4-.1-.8-.2-1.2l-.1-1.2c-.3-3.3-.4-6.6-.3-9.9 0-1.7.1-3.3.1-5s-.1-3.3-.3-5c-.2-3.3-.5-6.6-.8-9.9s-.4-6.6-.3-9.9c0-.8.1-1.6.2-2.4.1-.8.2-1.5.5-2.3.4-1.6.9-3.1 1.5-4.7 1.2-3 2.8-5.8 4.9-8.2.5-.6 1.1-1.1 1.7-1.7.6-.5 1.2-1 1.9-1.5.6-.5 1.3-.9 2-1.4.7-.4 1.4-.9 2.1-1.2.4-.2.7-.4 1.1-.6l1.1-.5.5-.3.6-.2 1.1-.4c.4-.1.8-.3 1.1-.4.4-.1.8-.3 1.1-.4l1.2-.3 1.2-.3c3.2-.7 6.4-1.2 9.6-1.5 1.6-.1 3.3-.3 4.9-.3.8 0 1.6-.1 2.4-.1h2.4c3.3.1 6.5.3 9.8.7 3.2.4 6.5 1.1 9.5 2.2.4.1.8.3 1.1.4l1.1.5.6.3.5.3 1.1.6c1.4.8 2.8 1.7 4.1 2.7s2.5 2.2 3.5 3.4c1.1 1.3 2 2.6 2.8 4.1 1.6 2.9 2.5 6.1 3.3 9.3.2 1.1.3 2.2.3 3.4v3.4c0 1 0 2.1-.1 3.2z" fill="#ce8d69" stroke-width="none" opacity="1"></path></g></g><g id="svga-group-mouth-single-move" transform="matrix(1,0,0,1,0,0)"><g id="svga-group-mouth-single"><path id="SvgjsPath10891" d="M119.9 121.9c-.2-.3-.6-.6-.9-.8-.3-.1-.8-.1-.8.4 0 .3.2.6.5.8-.66 1.22-2.4 1.46-3.8 1.56-1.5.1-2.71.22-4.49-.17-3.42-.92-6.52-1.82-9.62-1.62-2.9.1-5.13.98-7.93 1.78-3.3.9-7.66 2.74-9.96-.66.3-.2.6-.4.8-.7.4-.4 0-1-.5-.9-1 .3-2.3 1.6-2.2 2.7 0 .2.3.4.5.3.4-.3.7-.7 1-1 .9 1.7 2.7 2.5 4.7 2.7 2 .1 3.9-.5 5.9-.9 2.2-.5 4.4-.7 6.6-.8 4.1-.1 8.1.2 12.2.4 2.4.1 5.7.4 7.5-1.5.1.3.2.6.5.8.1.1.3 0 .4-.1.7-.59 0-1.69-.4-2.29z" fill="#da7c87" stroke-width="none" opacity="1"></path><path id="SvgjsPath10892" d="M105.6 128.4c-3.4.2-6.6.7-10 .5-.3 0-.3.4-.1.4 3.2.7 7 .9 10.2-.2.4-.1.4-.7-.1-.7z" fill="#dda687" stroke-width="none" opacity="1"></path></g></g><g id="svga-group-eyes-left-move" transform="matrix(1,0,0,1,1,-1)"><g id="svga-group-eyes-left" transform="matrix(1.0500002000000002,0,0,1.0500002000000002,-4.010015887411512,-4.365017231117264)"><g id="svga-group-eyesback-left"><path id="SvgjsPath10756" d="M80.2 74.2c7.5 0 13.5 5.8 13.5 13s-6 13-13.5 13-13.5-5.8-13.5-13 6-13 13.5-13z" fill="#ffffff" stroke-width="none" opacity="1"></path></g><g id="svga-group-eyesiriswrapper-left" transform="matrix(1,0,0,1,0,0)"><g id="svga-group-eyesiriscontrol-left" transform="matrix(1,0,0,1,0,0)"><g id="svga-group-eyesiris-left"><path id="SvgjsPath10833" d="M80.2 81.9c2.9 0 5.3 2.4 5.3 5.3s-2.4 5.3-5.3 5.3-5.3-2.4-5.3-5.3 2.4-5.3 5.3-5.3z" fill="#576ab1" stroke-width="none" opacity="1"></path><path id="SvgjsPath10834" d="M80.2 81.6c-3.1 0-5.6 2.5-5.6 5.6s2.5 5.6 5.6 5.6 5.6-2.5 5.6-5.6c0-3-2.5-5.6-5.6-5.6zm4.7 7.5c-.6-.3-1.2-.6-1.8-.8.1-.2.2-.5.2-.8.6.1 1.3.1 1.9.1 0 .6-.1 1.1-.3 1.5zm-.4.7c-.5-.4-1.1-.8-1.7-1.1 0-.1.1-.1.1-.2.6.3 1.2.6 1.8.8 0 .2-.1.3-.2.5zm.1-5c-.6.1-1.3.4-1.8.8 0-.1-.1-.1-.1-.2.2-.2.5-.3.7-.5.3-.2.6-.5.9-.7l.3.6zm.3.8c-.6.1-1.3.3-1.9.6 0-.1-.1-.2-.1-.3.3-.1.6-.3.9-.4s.6-.2.9-.4c.1.1.2.3.2.5zm-1.6 1.6c0-.3 0-.6-.1-.8.6-.1 1.3-.3 1.9-.5.1.4.2.9.2 1.3h-2zm.8-3.2c-.3.2-.6.5-.9.7-.2.2-.4.3-.7.5l-.3-.3c.4-.5.8-1.1 1.1-1.6.3.2.5.5.8.7zm-3.6 6.3c.2 0 .4-.1.7-.2.1.3.3.7.4 1s.2.6.4.8c-.4.2-.9.3-1.4.3 0-.6 0-1.3-.1-1.9zm1.4-7.8c.4.2.9.4 1.2.6-.4.5-.8 1-1.2 1.6-.1-.1-.2-.1-.3-.2.2-.7.3-1.4.3-2zm-1.5-.3c.4 0 .8.1 1.1.2-.1.5-.1 1-.2 1.5 0 .2-.1.3-.1.5-.2-.1-.4-.1-.6-.1.1-.8 0-1.5-.2-2.1zm1.5 8.8c-.2-.3-.3-.7-.5-1 .1 0 .1-.1.2-.1.1.3.3.6.5.9.1.3.3.6.5.8-.1.1-.2.1-.3.2-.1-.3-.2-.5-.4-.8zm.5-.3c-.2-.3-.3-.6-.5-.8.1-.1.2-.1.3-.2.3.6.7 1.1 1.2 1.6-.1.1-.3.2-.4.3-.2-.4-.5-.7-.6-.9zm-2.1-8.5c-.1.6-.1 1.3-.1 2h-.4c0-.2-.1-.4-.1-.6-.1-.4-.1-.9-.2-1.3.2 0 .4-.1.6-.1h.2zm-2.7.7c.3.6.6 1.2 1.1 1.7-.1.1-.2.1-.2.2-.1-.1-.2-.3-.3-.4-.3-.4-.6-.8-.9-1.1 0-.2.2-.3.3-.4zm2 1.3c-.1 0-.2 0-.2.1-.2-.6-.4-1.3-.6-1.9.2-.1.4-.1.6-.2-.1.7 0 1.4.2 2zm-.6.2s-.1 0 0 0l-1.2-1.5c.2-.1.5-.2.7-.3.2.5.3 1.2.5 1.8zm-.4 5.5c.1 0 .1.1.2.1-.1.2-.2.3-.2.4-.2.4-.4.9-.6 1.3l-.6-.3c.3-.3.5-.6.8-.9.1-.2.3-.4.4-.6zm.3.6c.1-.1.1-.3.2-.4h.1c-.3.6-.4 1.2-.6 1.9-.2-.1-.3-.1-.5-.2.4-.4.6-.9.8-1.3zm.7-.3c.1 0 .2 0 .3.1-.2.6-.2 1.3-.3 1.9-.2 0-.5-.1-.7-.1.2-.6.5-1.2.7-1.9zM77 83.4c.2.4.5.7.8 1 .1.2.3.4.4.5l-.4.4c-.5-.4-1.1-.8-1.6-1.1.2-.3.5-.6.8-.8zm-1.2 6.3 1.5-.9c.1 0 .1-.1.2-.1.1.1.2.3.3.4-.5.4-.9.9-1.4 1.4-.2-.2-.4-.5-.6-.8zm-.4-1.1c.4-.1.8-.2 1.1-.4.2-.1.5-.2.7-.3 0 .2.1.3.1.5-.1.1-.2.1-.3.2-.5.3-.9.6-1.3.9l-.3-.9zm-.2-1.4c0-.2 0-.3.1-.5.6.2 1.3.3 1.9.3v.5c-.3.1-.6.2-.9.4s-.7.2-.9.4c-.2-.4-.2-.7-.2-1.1zm.2-1.5c.4.2.9.4 1.3.6.2.1.3.2.5.2 0 .1 0 .2-.1.3-.2 0-.3-.1-.5-.1-.5-.1-1-.2-1.4-.1.1-.4.1-.7.2-.9zm.7-1.4c.5.4 1 .9 1.6 1.2-.1.2-.2.3-.3.5H77l-1.5-.6c.2-.4.3-.7.6-1.1zm.4 6.4c.5-.4 1-.8 1.5-1.3l.3.3c-.2.2-.3.4-.4.6-.2.3-.5.7-.7 1-.3-.2-.5-.4-.7-.6zm3.4 1.5c.1-.7.2-1.3.2-2h.2c-.1.6-.1 1.3 0 2h-.1c-.1.1-.2 0-.3 0zm3.7-1.2c-.4-.5-.9-1-1.3-1.5.2-.2.4-.4.5-.6.5.4 1.1.8 1.6 1.1-.2.4-.5.7-.8 1z" fill="#2b4192" stroke-width="none" opacity="1"></path><path id="SvgjsPath10835" d="M80.2 84.3c1.6 0 2.9 1.3 2.9 2.9s-1.3 2.9-2.9 2.9-2.9-1.3-2.9-2.9 1.3-2.9 2.9-2.9z" fill="#000000" stroke-width="none" opacity="1"></path><path id="SvgjsPath10836" d="M78.6 84.7c.6 0 1.1.5 1.1 1.1s-.5 1.2-1.1 1.2-1.1-.5-1.1-1.1.5-1.2 1.1-1.2zm3.5 4.1c.3 0 .6.3.6.6s-.2.6-.6.6-.6-.3-.6-.6.3-.6.6-.6z" fill="#ffffff" stroke-width="none" opacity="1"></path></g></g></g><g id="svga-group-eyesfront-left"><path id="SvgjsPath10764" d="M80.2 73.7c-7.8 0-14.1 6.1-14.1 13.6s6.3 13.6 14.1 13.6 14.1-6.1 14.1-13.6S88 73.7 80.2 73.7zm0 21.9c-5.5 0-10.7-2.8-10.8-3.7-.2-1 .9-4.2 3.2-6.8 2.4-2.6 8-3.5 12.8-1.5s5.9 8 5.9 8c.1 1.8-5.6 4-11.1 4z" fill="#fcddcc" stroke-width="none" opacity="1"></path><path id="SvgjsPath10765" d="M89.4 86.9c.7 0 3.1 0 2.4-.2-1.2-.4-5.6-3.8-6.8-4.3s-5.5-1.3-6.2-1.3-7.1 2.8-7.7 3.2c-.6.4-2.2 6-2.6 6.3-.2.2.4.5.8.7 0 .1 0 .2-.1.3v.2c0 .1.1.2.1.3.1.2.2.3.3.4.2.2.5.4.7.6.5.3 1 .6 1.6.9 2.1 1 4.4 1.6 6.8 1.8 2.4.2 4.7-.1 7-.7 1.1-.3 2.2-.7 3.3-1.2.5-.3 1-.5 1.5-.9l.6-.6c.2-.2.3-.5.3-.8-.2-1.1-.7-2.2-1.2-3.3-.3-.4-.5-.9-.8-1.4zm1.6 5.5-.6.6c-.5.3-1 .6-1.5.8-1.1.4-2.2.8-3.3 1-2.2.4-4.6.7-6.8.5-2.3-.2-4.5-.8-6.6-1.7-.5-.2-1-.5-1.5-.8-.2-.2-.5-.3-.7-.5-.1-.1-.2-.2-.2-.3 0-.1 0-.1-.1-.1v-.2c0-.2 0-.4.1-.6.4-1 1.6-3.8 2.5-5 1.2-1.5 3.6-3.3 6.9-3.3 1.7 0 3.2.2 4.5.5.5.2 1.1.3 1.6.6 1.1.4 2 1.1 2.8 1.8 1.6 1.6 2.8 3.7 3.3 5.9-.1.3-.2.6-.4.8z" fill="#000000" stroke-width="none" opacity="1"></path></g></g></g><g id="svga-group-eyes-right-move" transform="matrix(1,0,0,1,-1,-1)"><g id="svga-group-eyes-right" transform="matrix(1.0500002000000002,0,0,1.0500002000000002,-5.990024303324148,-4.365017231117264)"><g id="svga-group-eyesback-right"><path id="SvgjsPath10757" d="M119.8 74.2c7.5 0 13.5 5.8 13.5 13s-6 13-13.5 13-13.5-5.8-13.5-13 6-13 13.5-13z" fill="#ffffff" stroke-width="none" opacity="1"></path></g><g id="svga-group-eyesiriswrapper-right" transform="matrix(1,0,0,1,0,0)"><g id="svga-group-eyesiriscontrol-right" transform="matrix(1,0,0,1,0,0)"><g id="svga-group-eyesiris-right"><path id="SvgjsPath10837" d="M119.8 82.5c2.6 0 4.7 2.1 4.7 4.7s-2.1 4.7-4.7 4.7-4.7-2.1-4.7-4.7 2.1-4.7 4.7-4.7z" fill="#576ab1" stroke-width="none" opacity="1"></path><path id="SvgjsPath10838" d="M119.8 82.3c-2.7 0-4.9 2.2-4.9 4.9s2.2 4.9 4.9 4.9 4.9-2.2 4.9-4.9-2.2-4.9-4.9-4.9zm4.1 6.6c-.5-.3-1.1-.5-1.6-.7.1-.2.1-.4.2-.7.6.1 1.2.1 1.7.1-.1.4-.1.9-.3 1.3zm-.3.5c-.4-.3-.9-.7-1.4-.9 0-.1.1-.1.1-.2.5.3 1 .5 1.6.7-.2.2-.2.3-.3.4zm.1-4.3c-.5.1-1.1.4-1.6.7 0-.1-.1-.1-.1-.2.2-.1.4-.3.6-.4.3-.2.5-.4.8-.6 0 .2.2.3.3.5zm.2.7c-.6.1-1.1.3-1.6.5 0-.1-.1-.2-.1-.3.3-.1.5-.2.8-.3.3-.1.6-.2.8-.3 0 .1.1.2.1.4zm-1.4 1.4c0-.2 0-.5-.1-.7.6-.1 1.1-.2 1.7-.4.1.4.2.8.2 1.2-.6-.1-1.2-.1-1.8-.1zm.7-2.8c-.3.2-.5.4-.8.6-.2.1-.4.3-.6.4l-.3-.3c.4-.4.7-.9 1-1.4l.7.7zm-3.1 5.5c.2 0 .4-.1.6-.1.1.3.2.6.4.9.1.2.2.5.3.7-.4.2-.8.2-1.2.3 0-.7 0-1.2-.1-1.8zm1.2-6.8c.4.1.8.3 1.1.6-.4.4-.7.9-1 1.4-.1-.1-.2-.1-.3-.2.1-.6.2-1.3.2-1.8zm-1.3-.3c.3 0 .7.1 1 .2-.1.4-.1.9-.2 1.3 0 .1-.1.3-.1.4-.2-.1-.3-.1-.5-.1 0-.6-.1-1.2-.2-1.8zm1.3 7.8c-.1-.3-.3-.6-.4-.9.1 0 .1-.1.2-.1.1.3.3.5.4.8.1.2.2.5.4.7-.1 0-.2.1-.2.1-.1-.2-.3-.4-.4-.6zm.4-.4c-.2-.2-.3-.5-.5-.7.1-.1.2-.1.3-.2.3.5.6.9 1 1.4-.1.1-.2.2-.4.3-.1-.3-.3-.6-.4-.8zm-1.8-7.4c-.1.6-.1 1.1 0 1.7h-.4c0-.2-.1-.3-.1-.5-.1-.4-.1-.8-.2-1.2h.7c-.1 0 0 0 0 0zm-.7 1.8c-.1 0-.1 0-.2.1-.1-.6-.3-1.1-.5-1.6.2-.1.4-.1.6-.1-.1.4 0 1 .1 1.6zm-.4.1c0 .1-.1.1 0 0-.3-.5-.7-.9-1.1-1.4l.6-.3c.1.6.3 1.2.5 1.7zm-.3.2c-.1 0-.2.1-.2.1-.1-.1-.2-.2-.3-.4-.3-.3-.5-.7-.8-.9.1-.1.3-.2.4-.3.2.5.5 1.1.9 1.5zm-.1 4.6c.1 0 .1.1 0 0 0 .2 0 .4-.1.5-.2.4-.4.8-.5 1.2-.2-.1-.4-.2-.5-.3.2-.3.5-.6.7-.8.1-.2.3-.4.4-.6zm.3.6c.1-.1.1-.2.2-.3h.1c-.2.5-.4 1.1-.5 1.6-.1-.1-.3-.1-.4-.1l.6-1.2zm.5-.3h.3c-.2.5-.2 1.1-.2 1.7-.2 0-.4-.1-.6-.1.2-.5.4-1 .5-1.6zm-2.2-5.9c.2.3.4.6.7.9.1.2.2.3.4.5l-.3.3c-.4-.4-.9-.7-1.4-1 .1-.3.3-.5.6-.7zm-1 5.5c.4-.2.9-.5 1.3-.8.1 0 .1-.1.2-.1.1.1.1.2.2.3l-1.2 1.2c-.2-.1-.4-.3-.5-.6zm-.4-1c.3-.1.7-.2 1-.3l.6-.3c0 .1.1.3.1.4-.1.1-.2.1-.3.2-.4.3-.8.5-1.2.8 0-.2-.1-.5-.2-.8zm-.2-1.2v-.4c.5.2 1.1.2 1.7.3v.4c-.3.1-.5.2-.8.3-.3.1-.6.2-.8.3-.1-.3-.1-.6-.1-.9zm.2-1.4c.4.2.8.3 1.1.5.1.1.3.1.4.2 0 .1 0 .2-.1.2-.2 0-.3 0-.4-.1-.4-.1-.8-.1-1.3-.1.2-.2.2-.4.3-.7zm.6-1.1c.4.4.9.8 1.4 1.1-.1.1-.2.3-.2.4-.1 0-.2-.1-.3-.1-.4-.2-.9-.4-1.3-.5 0-.3.2-.6.4-.9zm.4 5.5c.4-.4.9-.7 1.3-1.2l.3.3c-.1.2-.3.3-.4.5l-.6.9c-.2-.1-.4-.3-.6-.5zm3 1.4c.1-.6.2-1.2.1-1.7h.2c-.1.6-.1 1.2 0 1.7H119.6zm3.1-1.1c-.4-.4-.8-.8-1.1-1.3.2-.2.3-.3.4-.5.5.3.9.7 1.4 1-.1.3-.4.5-.7.8z" fill="#2b4192" stroke-width="none" opacity="1"></path><path id="SvgjsPath10839" d="M119.8 84.7c1.4 0 2.5 1.1 2.5 2.5s-1.1 2.5-2.5 2.5-2.5-1.1-2.5-2.5 1.1-2.5 2.5-2.5z" fill="#000000" stroke-width="none" opacity="1"></path><path id="SvgjsPath10840" d="M118.4 85c.5 0 1 .4 1 1s-.4 1-1 1-1-.4-1-1 .4-1 1-1zm3.1 3.6c.3 0 .5.2.5.5s-.2.5-.5.5-.5-.2-.5-.5.2-.5.5-.5z" fill="#ffffff" stroke-width="none" opacity="1"></path></g></g></g><g id="svga-group-eyesfront-right"><path id="SvgjsPath10766" d="M119.8 73.7c-7.8 0-14.1 6.1-14.1 13.6s6.3 13.6 14.1 13.6 14.1-6.1 14.1-13.6-6.3-13.6-14.1-13.6zm.3 20.6c-5.5 0-11.3-1.9-11.1-3.4 0 0 1.2-5.1 5.9-6.9s9.6-.7 12 1.5c2.4 2.3 4.2 4.8 4 5.6-.1.8-5.3 3.2-10.8 3.2z" fill="#fcddcc" stroke-width="none" opacity="1"></path><path id="SvgjsPath10769" d="M131.9 90c-.3-.3-3.5-4-4.1-4.3s-4-3.2-4.8-3.2-6.4 0-7.6.4-4.2 2.8-4.7 3.4c-.3.4.2.2.7 0-.4.5-.8 1-1.1 1.5-.6 1-1 2-1.3 3 0 .3.1.6.3.8.2.2.4.4.7.5.5.3 1 .5 1.5.8 1 .4 2.1.8 3.2 1 2.2.5 4.4.8 6.6.7 2.2-.1 4.4-.6 6.5-1.3 1-.4 2.1-.8 3-1.5l.3-.3c.1-.1.1-.2.1-.3v-.3c0-.1 0-.1-.1-.2.4-.2 1-.4.8-.7zm-1.2 1.1c-.1.1-.1.2-.2.2-.8.6-1.9 1-2.9 1.4-2.1.7-4.2 1.1-6.4 1.3-2.2.1-4.3-.1-6.5-.4-1.1-.2-2.1-.4-3.2-.8-.5-.2-1-.4-1.5-.7-.2-.1-.5-.3-.7-.5-.2-.2-.3-.4-.3-.7.6-2.1 1.9-4 3.6-5.3.9-.7 1.8-1.1 2.8-1.5.9-.3 1.7-.5 2.6-.6.2 0 .5-.1.7-.1h.7c1.8-.1 3.7.2 5.3.9 1.3.8 2.3 1.8 2.9 2.5.9 1 2.3 2.9 2.8 3.7.1.2.1.3.1.5.2-.1.2 0 .2.1z" fill="#000000" stroke-width="none" opacity="1"></path></g></g></g><g id="svga-group-facehighlight-single"></g><g id="svga-group-eyebrows-left-move" transform="matrix(1,0,0,1,0,0)"><g id="svga-group-eyebrows-left-rotate" transform="matrix(1,1.7453292519943295e-9,-1.7453292519943295e-9,1,1.251313932471021e-7,-1.400190541289703e-7)"><g id="svga-group-eyebrows-left"><path id="SvgjsPath10673" d="M93.28 73.16s-1.89 2.47-4.4 1.16c-2.52-1.31-9.67-5.43-10.37-5.32-.7.12-7.55 3.84-10.72 7.24 0 0 3.31-6.87 10.61-9.67l14.88 6.59z" fill="#96923f" stroke-width="none" opacity="1"></path><path id="SvgjsPath10674" d="m89.7 71.44-3.68-1.73-3.73-1.73c-1.26-.57-2.51-1.14-3.77-1.7l-.13-.06-.12.05c-1.15.48-2.28 1-3.31 1.7l-.39.25c-.13.09-.25.18-.38.27l-.75.55c-.47.4-.96.78-1.4 1.22a21.472 21.472 0 0 0-4.41 5.9l-.5 1.01.76-.84c.82-.91 1.75-1.72 2.73-2.47.97-.76 1.99-1.45 3.04-2.11 1.05-.65 2.12-1.25 3.22-1.81.27-.14.55-.27.83-.4.14-.06.28-.13.42-.19.14-.06.28-.12.39-.14.04-.03.2.03.33.08.14.05.27.11.41.18.27.13.55.26.82.4 2.19 1.12 4.35 2.32 6.53 3.47.54.29 1.1.57 1.65.85.53.28 1.15.58 1.8.62.65.06 1.3-.12 1.85-.43.28-.15.53-.34.77-.54.12-.1.23-.21.34-.33.05-.06.11-.11.15-.18l.07-.09c.02-.04.05-.04.08-.12l-3.62-1.68zm3.47 1.79-.08.08c-.05.06-.11.11-.17.16-.11.1-.23.2-.35.29-.24.18-.5.35-.77.47-.54.26-1.15.37-1.72.3-.59-.07-1.1-.35-1.64-.66l-1.61-.92c-1.07-.61-2.15-1.22-3.23-1.81a54.09 54.09 0 0 0-3.3-1.71c-.28-.13-.56-.26-.86-.38-.15-.06-.29-.12-.45-.17-.08-.03-.16-.05-.24-.07-.05-.01-.09-.02-.15-.02-.07 0-.15 0-.18.02-.19.05-.33.13-.47.19l-.42.21c-.28.15-.55.29-.82.45-1.08.61-2.12 1.28-3.16 1.95-1.75 1.16-3.48 2.36-5.05 3.77a22.046 22.046 0 0 1 3.94-4.69c.43-.42.91-.78 1.38-1.16l.73-.53c.12-.09.24-.18.37-.26l.38-.24c.26-.15.51-.32.77-.47l.8-.41c.13-.07.26-.14.4-.2l.41-.18.71-.3c1.18.52 2.36 1.03 3.54 1.54l3.71 1.56 7.6 3.14c-.01-.03-.04.03-.07.05z" fill="#87822b" stroke-width="none" opacity="1"></path></g></g></g><g id="svga-group-eyebrows-right-move" transform="matrix(1,0,0,1,0,0)"><g id="svga-group-eyebrows-right-rotate" transform="matrix(1,1.7453292519943295e-9,-1.7453292519943295e-9,1,1.298263327953464e-7,-2.1114993842274998e-7)"><g id="svga-group-eyebrows-right"><path id="SvgjsPath10675" d="M109.4 76.47s1.76 2.1 3.93.85c2.16-1.25 8.3-5.18 8.93-5.11.63.07 6.81 3.08 9.74 5.95 0 0-3.2-5.92-9.74-8.09l-12.86 6.4z" fill="#96923f" stroke-width="none" opacity="1"></path><path id="SvgjsPath10676" d="M132.13 78.1c-.53-.96-1.15-1.85-1.84-2.69a21 21 0 0 0-2.28-2.34c-.41-.37-.84-.69-1.28-1.02l-.68-.45c-.11-.07-.22-.16-.35-.22l-.36-.2c-.93-.57-1.96-.99-2.99-1.36l-.11-.04-.11.06c-1.09.53-2.18 1.1-3.26 1.64l-3.22 1.68-3.17 1.68-3.11 1.65c.03.06.05.07.07.1l.07.08c.04.06.1.1.14.15.1.09.2.19.31.28.22.17.44.33.7.45.49.25 1.08.38 1.65.31.57-.06 1.1-.35 1.56-.62.47-.27.95-.54 1.42-.82 1.87-1.11 3.73-2.25 5.61-3.33.24-.13.47-.27.71-.39.12-.07.24-.12.35-.17.12-.05.25-.1.28-.09.1.02.22.07.35.11.13.05.25.1.38.15.25.1.5.21.75.32.98.45 1.96.94 2.91 1.47.94.54 1.87 1.11 2.76 1.73.89.62 1.75 1.3 2.5 2.06l.7.71-.46-.89zm-5.4-3.8a53.27 53.27 0 0 0-2.86-1.59c-.25-.13-.49-.24-.74-.36-.12-.06-.25-.12-.38-.17-.13-.06-.25-.11-.43-.15-.03-.01-.1-.01-.16-.01-.05 0-.08.02-.12.03-.07.02-.15.04-.21.08-.14.05-.26.11-.39.16-.25.11-.49.24-.74.37-.97.52-1.91 1.07-2.84 1.64-.93.56-1.86 1.15-2.77 1.72l-1.38.87c-.47.3-.9.57-1.43.65-.5.09-1.04.02-1.53-.19-.25-.1-.48-.24-.7-.39-.11-.07-.22-.16-.32-.24-.05-.05-.1-.08-.16-.13l-.07-.07c-.03-.01-.05-.07-.06-.05l6.58-3.07 3.21-1.52c1.03-.5 2.04-.98 3.06-1.5l.64.24.38.14c.13.05.24.11.36.16l.73.33c.24.12.46.26.7.38l.35.19c.11.06.23.14.34.21l.66.43c.42.32.86.62 1.26.97.81.68 1.59 1.42 2.29 2.22.49.55.94 1.15 1.37 1.76-1.47-1.17-3.05-2.15-4.64-3.11z" fill="#87822b" stroke-width="none" opacity="1"></path></g></g></g><g id="svga-group-beardwrap"><g id="svga-group-beard-single-move" transform="matrix(1,0,0,1,0,0)"><g id="svga-group-beard-single"></g></g></g><g id="svga-group-mustache-single-move" transform="matrix(1,0,0,1,0,0)"><g id="svga-group-mustache-single"></g></g><g id="svga-group-nose-single-move" transform="matrix(1,0,0,1,0,0)"><g id="svga-group-nose-single"><path id="SvgjsPath10876" d="M99.1 116.5c.67.12 4.53-3.31 4.53-3.31s2.06 1.59 3.62 1.43c1.56-.16 2.44-1.08 3-1.96.56-.88-.89-3.1-1.78-4.41-.9-1.31-3.54-5.22-4.09-7.02-1.07-3.45-3-4.76-4.92-4.64-1.92.12-4.04 1.52-4.6 3.44-.56 1.92-.72 4.28-1.8 5.76s-3.32 4-3.56 4.72c-.24.72-.11 2.8 1.24 3.56 1.73.97 4.3-.51 4.3-.51s3.18 2.78 4.06 2.94z" fill="#fcddcc" stroke-width="none" opacity="1"></path><path id="SvgjsPath10877" d="M110.28 110.87c-.42-1.01-1.08-1.86-1.81-2.61.57.88 1.08 1.8 1.39 2.76.15.48.24.97.16 1.42-.05.23-.12.41-.26.6-.13.2-.29.39-.47.54-.69.66-1.7.91-2.68.78-.49-.06-.99-.2-1.46-.39-.45-.16-.86-.39-1.29-.62.38-.56.72-1.15 1.02-1.76-.97.91-1.89 1.83-2.87 2.64-.49.4-.98.8-1.51 1.09-.51.3-1.07.55-1.51.52-.12.01-.21-.02-.31-.04-.09-.05-.17-.06-.3-.16-.24-.15-.49-.36-.74-.55-.5-.39-.99-.82-1.49-1.23-.99-.84-1.99-1.69-3.07-2.48a21.8 21.8 0 0 0 1.68 2.24c-.5.22-1.01.41-1.53.52-.64.12-1.3.15-1.84-.1-1.09-.53-1.72-1.83-1.54-2.94.05-.28.13-.5.3-.74.17-.26.36-.53.56-.79.4-.52.82-1.02 1.26-1.52l.66-.74c.26-.28.46-.56.67-.84.41-.57.77-1.18 1.07-1.83.3-.65.48-1.4.59-2.06.12-.68.22-1.35.3-2.02.15-1.35.27-2.69.31-4.04.1-2.7.03-5.42-.51-8.07.05 2.69-.14 5.35-.4 8-.15 1.32-.29 2.65-.5 3.96-.1.66-.2 1.31-.32 1.96-.12.66-.27 1.22-.54 1.79a9.34 9.34 0 0 1-.94 1.65c-.18.26-.37.53-.57.74-.23.26-.45.51-.66.78-.43.53-.85 1.07-1.24 1.63-.2.28-.39.57-.57.88-.2.33-.34.76-.37 1.14-.13 1.57.85 3.05 2.25 3.55.73.23 1.47.11 2.12-.11.54-.19 1.03-.46 1.49-.77.24.28.47.57.71.84.44.5.91.96 1.41 1.42.25.23.51.44.82.65.13.1.36.22.57.3.22.06.44.12.66.11.88 0 1.55-.38 2.14-.76.58-.41 1.1-.86 1.55-1.37.44-.48.84-.99 1.21-1.53.75.66 1.64 1.25 2.68 1.45.54.12 1.11.12 1.66 0 .55-.14 1.07-.41 1.49-.8.21-.19.39-.42.54-.65.17-.23.29-.54.32-.84.06-.55-.08-1.1-.29-1.6z" fill="#ce8d69" stroke-width="none" opacity="1"></path></g></g><g id="svga-group-hair-front"><path id="SvgjsPath10912" d="M76.1 30.7s-5-.6-11.9 4.5-9.5 13.2-10.1 21.1c-.6 7.9 2.6 20.4 5.6 28.4s2.3 25.1-6 38.5c0 0 6.7-7.8 8.7-17.6 0 0-.6 15.7-4.8 25.4 0 0 6.7-10.7 7.6-22.9 0 0 1.9 21.7-8.9 33.9 0 0 10.1-10.6 11.3-28 1.2-17.4-3.4-31.2-3.8-42.1s1-19.8 8.1-23.8c7-4 12.2-1.2 12.2-1.2s5.4 1.6 8.1-.4c0 0 6.3 2.6 14.1.3 0 0 8.4-.3 10.8-3.5 0 0 .9.6 2.8-.2 1.9-.7 5.3-2.2 12.5 6s6.9 20.2 6.3 24.6c-.6 4.4-4.4 19.1-4.5 29.6s4.4 27.7 13.9 35.2c0 0-10.7-12.6-8.6-26.4 0 0 1.3 13.6 10 25.1 0 0-7.6-12.2-7.3-25.8s2.9-50.3 2.8-55.7-.4-19.2-6.6-30.6S122.1 9 111.8 7.3s-17.8.3-23.6 3.1-9.5 8.1-11.1 12.3-1 8-1 8z" fill="#f5d967" stroke-width="none" opacity="1"></path><path id="SvgjsPath10913" d="M140.9 130.4c-2-3.3-3.4-7-4.4-10.7-2-7.5-2-15.4-1-23.1 1-7.7 2.6-15.4 4.1-23.1 1.5-7.7 2.7-15.6 2.4-23.5-.1-4-.7-8-1.8-11.8-1.1-3.9-2.7-7.6-5-10.9-2.3-3.3-5.3-6.2-9-8-3.6-1.9-7.8-2.6-11.8-2.4-4 .2-7.9 1.1-11.7 2.6-3.7 1.5-7.2 3.4-10.3 6-1.5 1.3-2.8 2.9-3.8 4.6-1 1.7-1.6 3.7-1.8 5.7-.1 2 .2 4 1 5.8.4.9.9 1.8 1.6 2.5.7.7 1.4 1.3 2.3 1.8-.8-.5-1.6-1.2-2.2-1.9-.6-.8-1.1-1.6-1.4-2.5-.7-1.8-.9-3.8-.7-5.7.4-3.9 2.8-7.2 5.7-9.6 2.9-2.5 6.4-4.2 10.1-5.6 3.6-1.3 7.4-2.1 11.2-2.2 3.8-.1 7.6.7 11 2.4 2.6 1.3 4.9 3.2 6.7 5.5-1.1-.9-2.4-1.7-3.7-2.4-2.1-1-4.4-1.6-6.7-1.8-2.3-.1-4.7.3-6.9 1-4.4 1.5-8.3 4.6-10.5 8.7-1.2 2-1.9 4.3-1.9 6.6 0 1.2.1 2.3.6 3.4.4 1.1 1.1 2 2 2.7-1.5-1.7-1.9-4-1.6-6 .2-2.1 1.1-4.1 2.3-5.9 1.2-1.8 2.6-3.4 4.3-4.6 1.7-1.3 3.5-2.3 5.5-3 4-1.4 8.4-1.4 12.3.3 2.6 1.1 5 2.7 7 4.8 1.5 2.6 2.7 5.5 3.5 8.4-.9-1-1.9-1.9-3.1-2.5-1.3-.7-2.7-1.1-4.2-1.4-2.9-.4-5.8 0-8.5 1.1-1.3.6-2.6 1.3-3.6 2.4-1 1-1.7 2.4-1.8 3.8.5-1.3 1.4-2.3 2.4-3.1 1-.8 2.3-1.3 3.5-1.7 2.5-.7 5.1-1 7.7-.6 2.5.4 4.9 1.4 6.7 3.2.7.7 1.3 1.5 1.8 2.4.5 2.6.8 5.2.8 7.8.1 1.9.1 3.9 0 5.8l-.3-1.2c-.4-1.7-1.1-3.4-2-5-.9-1.6-2.1-3-3.4-4.2-1.4-1.2-3-2.2-4.7-2.8-3.4-1.2-7.4-1-10.3 1 1.1-.4 2.3-.7 3.4-.7 3.5 1.3 6.3 3.6 8.5 6.4 2.2 2.9 3.8 6.2 4.7 9.6.9 3.5 1.2 7.2 1.3 10.8.1 2.2 0 4.3 0 6.5-1.3 6.6-2.6 13.3-3.3 20.1-.8 7.8-.6 15.9 1.6 23.5 1.2 3.8 2.7 7.4 4.9 10.7 2.1 3.3 4.9 6.2 8.1 8.4-2.9-2.1-5.6-5-7.6-8.4zm-8.5-82c-2.5-2.8-5.9-4.9-9.6-5.5 2.2-.1 4.3.3 6.2 1.2 3 1.3 5.4 3.7 6.9 6.5 1.6 2.8 2.5 6.1 2.9 9.4.2 2.2.2 4.3.1 6.6v.3c0-2.8-.3-5.6-1-8.4-1.1-3.7-2.9-7.3-5.5-10.1zM77 33.7c-1.2-4.3-.6-8.9 1.5-12.7 2-3.9 5.2-7.1 9-9.2C91.3 9.6 95.6 8.4 100 8c8.7-.8 17.9.7 25.3 5.3 3.7 2.3 6.9 5.4 9.4 8.9 2.5 3.6 4.4 7.6 5.7 11.8s2.1 8.5 2.5 12.9c.4 4.4.3 8.8 0 13.3-.6 8.9-2.3 17.7-3.4 26.6-1.2 8.9-1.8 18-.5 26.9.7 4.5 1.8 8.9 3.5 13 1.8 4.2 4.1 8 7.2 11.3-2.9-3.4-5.1-7.4-6.7-11.5-1.6-4.2-2.5-8.6-3.1-13-.5-4.4-.6-8.9-.4-13.3.2-4.4.8-8.9 1.4-13.3 1.3-8.8 3-17.7 3.7-26.7.4-4.5.5-9 .1-13.6-.4-4.5-1.2-9-2.6-13.4-1.4-4.3-3.4-8.5-6.1-12.3-2.7-3.7-6.1-7-10-9.4-3.9-2.4-8.3-3.9-12.8-4.8-4.5-.8-9.1-1-13.6-.4s-9 1.9-12.9 4.2c-3.9 2.3-7.2 5.8-9.3 9.9-1 2.1-1.7 4.3-1.9 6.6-.2 2.3.1 4.6.7 6.8.7 2.2 1.8 4.2 3.3 5.9 1.5 1.7 3.4 3 5.4 3.9-3.8-1.8-6.7-5.6-7.9-9.9zm.2 12.1c-2.4.3-4.7 1.2-6.7 2.6-1 .7-1.9 1.5-2.7 2.4-.8.9-1.5 1.9-2.1 3-1.2 2.1-2 4.4-2.6 6.7-1 4.7-1.1 9.5-1.1 14.2.1 4.7.5 9.4 1 14.1 1 9.3 2.2 18.6 1.5 27.9-.3 4.6-1 9.2-2.4 13.6-.7 2.2-1.6 4.4-2.6 6.4-1.1 2.1-2.3 4-3.8 5.9 1.6-1.7 3-3.6 4.2-5.6 1.2-2 2.2-4.2 3.1-6.4 1.6-4.4 2.6-9.1 3.1-13.8 1-9.5-.2-18.9-1.1-28.2-.5-4.7-.9-9.3-1-13.9-.1-4.6 0-9.3.8-13.8.4-2.2 1.2-4.4 2.2-6.4.5-1 1.1-2 1.8-2.9.7-.9 1.5-1.7 2.4-2.4 1.8-1.4 3.9-2.4 6.2-2.8 2.2-.4 4.7-.1 6.8 1-2.1-1.4-4.6-1.9-7-1.6zm-18.5 62.1c-.7 3-1.6 5.9-2.6 8.7-1 2.9-2.3 5.7-3.6 8.5 2-2.4 3.7-5 5.1-7.9 1.4-2.8 2.4-5.8 3.1-8.9.6-2.7 1-5.4 1.1-8.1.1 2.2.1 4.5 0 6.7-.3 8.6-2 17.1-4.8 25.2 1.8-3.9 3.2-8.1 4.3-12.2 1.1-4.2 1.7-8.5 2.1-12.9.3-4.3.2-8.7-.2-13.1s-1.4-8.6-2.3-12.8c-1-4.2-1.9-8.4-2.4-12.6-.5-4.2-.5-8.5.4-12.6s2.8-8 5.8-11c1.5-1.5 3.2-2.8 5.1-3.7 1.9-.9 4-1.4 6.2-1.5-2.2-.2-4.4.2-6.4 1s-3.9 2-5.6 3.5c-1.6 1.5-3.1 3.2-4.2 5.2-1.1 1.9-1.9 4-2.5 6.2-1.1 4.3-1.2 8.8-.8 13.2.4 4.4 1.4 8.6 2.3 12.9.2 1.1.5 2.2.7 3.2-.7-2.8-1.5-5.7-2.2-8.5-1.4-6.2-2.5-12.4-2.3-18.6.1-1.5.2-3.1.4-4.6.2-1.5.6-3 1-4.5s1-2.9 1.6-4.3c.7-1.4 1.5-2.7 2.3-4 1.8-2.5 4-4.7 6.6-6.4 1.3-.8 2.7-1.6 4.2-2.1s3-.9 4.6-1.1c-1.6 0-3.2.2-4.8.6-1.6.4-3.1 1-4.5 1.8s-2.7 1.7-4 2.8c-1.2 1.1-2.3 2.3-3.4 3.5-1 1.3-1.9 2.7-2.7 4.1-.7 1.5-1.3 3-1.8 4.5-1 3.1-1.4 6.4-1.6 9.6-.1 3.2.2 6.5.7 9.7.5 3.2 1.2 6.3 2.2 9.4 1.4 4.9 3.1 9.6 4.7 14.3 0 2.7-.2 5.3-.4 7.9-.3 3-.7 6-1.4 8.9z" fill="#e6c74a" stroke-width="none" opacity="1"></path></g><g id="svga-group-glasses-single-move" transform="matrix(1,0,0,1,0,0)"><g id="svga-group-glasses-single"></g></g></g></g></g><rect id="svga-credit-rect" width="200" height="15" x="0" y="185" fill="#ecf0f1" opacity="0.5" style="display: none;"></rect><text id="svga-credit-text" font-family="Avenir Next, Roboto, Helvetica, Arial, sans-serif" font-size="10px" text-anchor="start" font-weight="400" size="10px" anchor="start" weight="400" fill="#333333" x="33.402061462402344" y="182.71133995056152" style="display: none;"><tspan id="SvgjsTspan10667" dy="13" x="33.402061462402344">Created on AvatarMaker.com</tspan></text></g><defs id="SvgjsDefs10614"></defs></svg>