{"buffers":[{"uri":"Arm.bin","byteLength":2155116}],"asset":{"version":"2.0","generator":"gltfpack 0.16"},"bufferViews":[{"buffer":0,"byteOffset":0,"byteLength":805140,"byteStride":12,"target":34962},{"buffer":0,"byteOffset":805140,"byteLength":805140,"byteStride":12,"target":34962},{"buffer":0,"byteOffset":1610280,"byteLength":544836,"target":34963}],"accessors":[{"bufferView":0,"byteOffset":0,"componentType":5126,"count":4551,"type":"VEC3","min":[-0.595000029,-1.625,-2.5],"max":[0.595000029,1.71000004,0.0500000007]},{"bufferView":1,"byteOffset":0,"componentType":5126,"count":4551,"type":"VEC3"},{"bufferView":2,"byteOffset":0,"componentType":5123,"count":19647,"type":"SCALAR"},{"bufferView":0,"byteOffset":54612,"componentType":5126,"count":2359,"type":"VEC3","min":[-0.29479,0.356460005,-0.305979997],"max":[0.29479,0.944980025,0.465000004]},{"bufferView":1,"byteOffset":54612,"componentType":5126,"count":2359,"type":"VEC3"},{"bufferView":2,"byteOffset":39294,"componentType":5123,"count":6855,"type":"SCALAR"},{"bufferView":0,"byteOffset":82920,"componentType":5126,"count":1572,"type":"VEC3","min":[-0.595000029,-1.14998996,-1.89998996],"max":[0.595000029,1.14998996,-0.899990022]},{"bufferView":1,"byteOffset":82920,"componentType":5126,"count":1572,"type":"VEC3"},{"bufferView":2,"byteOffset":53004,"componentType":5123,"count":7032,"type":"SCALAR"},{"bufferView":0,"byteOffset":101784,"componentType":5126,"count":84,"type":"VEC3","min":[-2.5,-0.383130014,-1.72558999],"max":[2.5,0.0157500003,-1.32782996]},{"bufferView":1,"byteOffset":101784,"componentType":5126,"count":84,"type":"VEC3"},{"bufferView":2,"byteOffset":67068,"componentType":5123,"count":240,"type":"SCALAR"},{"bufferView":0,"byteOffset":102792,"componentType":5126,"count":1004,"type":"VEC3","min":[-1.56824994,-1.625,-2.02780008],"max":[0.595000029,1.625,-0.600000024]},{"bufferView":1,"byteOffset":102792,"componentType":5126,"count":1004,"type":"VEC3"},{"bufferView":2,"byteOffset":67548,"componentType":5123,"count":3036,"type":"SCALAR"},{"bufferView":0,"byteOffset":114840,"componentType":5126,"count":1000,"type":"VEC3","min":[-0.595000029,-1.625,-2.02780008],"max":[1.56824994,1.625,-0.75]},{"bufferView":1,"byteOffset":114840,"componentType":5126,"count":1000,"type":"VEC3"},{"bufferView":2,"byteOffset":73620,"componentType":5123,"count":3036,"type":"SCALAR"},{"bufferView":0,"byteOffset":126840,"componentType":5126,"count":978,"type":"VEC3","min":[-1.56824994,-0.300000012,-0.75],"max":[1.56824994,1.60000002,1.25]},{"bufferView":1,"byteOffset":126840,"componentType":5126,"count":978,"type":"VEC3"},{"bufferView":2,"byteOffset":79692,"componentType":5123,"count":2910,"type":"SCALAR"},{"bufferView":0,"byteOffset":138576,"componentType":5126,"count":972,"type":"VEC3","min":[-0.600000024,0.0511800013,0.25],"max":[0.600000024,1.24881005,2.04998994]},{"bufferView":1,"byteOffset":138576,"componentType":5126,"count":972,"type":"VEC3"},{"bufferView":2,"byteOffset":85512,"componentType":5123,"count":2916,"type":"SCALAR"},{"bufferView":0,"byteOffset":150240,"componentType":5126,"count":3987,"type":"VEC3","min":[-0.699989974,-0.584290028,1.54999006],"max":[0.699989974,1.04999006,7.34236002]},{"bufferView":1,"byteOffset":150240,"componentType":5126,"count":3987,"type":"VEC3"},{"bufferView":2,"byteOffset":91344,"componentType":5123,"count":15942,"type":"SCALAR"},{"bufferView":0,"byteOffset":198084,"componentType":5126,"count":8180,"type":"VEC3","min":[-0.518196106,-0.172333956,6.12706232],"max":[0.518196106,0.367706031,7.16345453]},{"bufferView":1,"byteOffset":198084,"componentType":5126,"count":8180,"type":"VEC3"},{"bufferView":2,"byteOffset":123228,"componentType":5123,"count":29052,"type":"SCALAR"},{"bufferView":0,"byteOffset":296244,"componentType":5126,"count":32134,"type":"VEC3","min":[-0.575995028,0.0515460372,6.06926298],"max":[0.577897131,0.792696059,7.2231555]},{"bufferView":1,"byteOffset":296244,"componentType":5126,"count":32134,"type":"VEC3"},{"bufferView":2,"byteOffset":181332,"componentType":5123,"count":145848,"type":"SCALAR"},{"bufferView":0,"byteOffset":681852,"componentType":5126,"count":176,"type":"VEC3","min":[-0.249728903,-0.0722939596,6.39552927],"max":[0.249728903,0.74270606,6.89498711]},{"bufferView":1,"byteOffset":681852,"componentType":5126,"count":176,"type":"VEC3"},{"bufferView":2,"byteOffset":473028,"componentType":5123,"count":528,"type":"SCALAR"},{"bufferView":0,"byteOffset":683964,"componentType":5126,"count":1256,"type":"VEC3","min":[-0.699774086,0.367706031,5.94548416],"max":[0.699972093,0.767696023,7.3452301]},{"bufferView":1,"byteOffset":683964,"componentType":5126,"count":1256,"type":"VEC3"},{"bufferView":2,"byteOffset":474084,"componentType":5123,"count":3336,"type":"SCALAR"},{"bufferView":0,"byteOffset":699036,"componentType":5126,"count":5756,"type":"VEC3","min":[-0.894758761,0.767696023,5.75088835],"max":[0.894369841,1.02773607,7.54001713]},{"bufferView":1,"byteOffset":699036,"componentType":5126,"count":5756,"type":"VEC3"},{"bufferView":2,"byteOffset":480756,"componentType":5123,"count":19203,"type":"SCALAR"},{"bufferView":0,"byteOffset":768108,"componentType":5126,"count":125,"type":"VEC3","min":[-0.149984419,-0.172293961,6.49527359],"max":[0.149560153,1.27770603,6.79500914]},{"bufferView":1,"byteOffset":768108,"componentType":5126,"count":125,"type":"VEC3"},{"bufferView":2,"byteOffset":519162,"componentType":5123,"count":363,"type":"SCALAR"},{"bufferView":0,"byteOffset":769608,"componentType":5126,"count":669,"type":"VEC3","min":[-0.894758761,0.857696056,5.75088835],"max":[0.894369841,1.02770603,7.54001713]},{"bufferView":1,"byteOffset":769608,"componentType":5126,"count":669,"type":"VEC3"},{"bufferView":2,"byteOffset":519888,"componentType":5123,"count":2316,"type":"SCALAR"},{"bufferView":0,"byteOffset":777636,"componentType":5126,"count":336,"type":"VEC3","min":[-0.792878807,0.367706031,5.85237932],"max":[0.792878807,0.767696023,7.43813705]},{"bufferView":1,"byteOffset":777636,"componentType":5126,"count":336,"type":"VEC3"},{"bufferView":2,"byteOffset":524520,"componentType":5123,"count":720,"type":"SCALAR"},{"bufferView":0,"byteOffset":781668,"componentType":5126,"count":382,"type":"VEC3","min":[-0.894369841,0.317706048,5.75088835],"max":[0.894369841,0.797706008,7.53962803]},{"bufferView":1,"byteOffset":781668,"componentType":5126,"count":382,"type":"VEC3"},{"bufferView":2,"byteOffset":525960,"componentType":5123,"count":1146,"type":"SCALAR"},{"bufferView":0,"byteOffset":786252,"componentType":5126,"count":1574,"type":"VEC3","min":[-0.662159979,-1.02981997,5.65684986],"max":[0.662259996,-0.422289997,7.3070302]},{"bufferView":1,"byteOffset":786252,"componentType":5126,"count":1574,"type":"VEC3"},{"bufferView":2,"byteOffset":528252,"componentType":5123,"count":8292,"type":"SCALAR"}],"materials":[{"pbrMetallicRoughness":{"baseColorFactor":[0.266666681,0.266666681,0.266666681,1],"metallicFactor":0},"doubleSided":true},{"pbrMetallicRoughness":{"baseColorFactor":[0.815686285,0.815686285,0.815686285,1],"metallicFactor":0},"doubleSided":true},{"pbrMetallicRoughness":{"baseColorFactor":[0.564705908,0.580392182,0.552941203,1],"metallicFactor":0},"doubleSided":true},{"pbrMetallicRoughness":{"baseColorFactor":[0.627451003,0.627451003,0.627451003,1],"metallicFactor":0},"doubleSided":true},{"pbrMetallicRoughness":{"baseColorFactor":[0.211764708,0.200000003,0.200000003,1],"metallicFactor":0},"doubleSided":true},{"pbrMetallicRoughness":{"baseColorFactor":[0.607843161,0.525490224,0.36470589,1],"metallicFactor":0},"doubleSided":true},{"pbrMetallicRoughness":{"baseColorFactor":[0.796078444,0.796078444,0.796078444,1],"metallicFactor":0},"doubleSided":true},{"pbrMetallicRoughness":{"baseColorFactor":[0.180392161,0.403921574,0.188235298,1],"metallicFactor":0},"doubleSided":true},{"pbrMetallicRoughness":{"baseColorFactor":[0.854901969,0.349019617,0.349019617,1],"metallicFactor":0},"doubleSided":true},{"pbrMetallicRoughness":{"baseColorFactor":[0.984313726,0.980392158,0.960784316,1],"metallicFactor":0},"doubleSided":true},{"pbrMetallicRoughness":{"baseColorFactor":[0.0980392173,0.0980392173,0.0980392173,1],"metallicFactor":0},"doubleSided":true}],"meshes":[{"primitives":[{"attributes":{"POSITION":0,"NORMAL":1},"mode":4,"indices":2,"material":0},{"attributes":{"POSITION":3,"NORMAL":4},"mode":4,"indices":5,"material":1},{"attributes":{"POSITION":6,"NORMAL":7},"mode":4,"indices":8,"material":2}]},{"primitives":[{"attributes":{"POSITION":9,"NORMAL":10},"mode":4,"indices":11,"material":3}]},{"primitives":[{"attributes":{"POSITION":12,"NORMAL":13},"mode":4,"indices":14,"material":3}]},{"primitives":[{"attributes":{"POSITION":15,"NORMAL":16},"mode":4,"indices":17,"material":3}]},{"primitives":[{"attributes":{"POSITION":18,"NORMAL":19},"mode":4,"indices":20,"material":3}]},{"primitives":[{"attributes":{"POSITION":21,"NORMAL":22},"mode":4,"indices":23,"material":3}]},{"primitives":[{"attributes":{"POSITION":24,"NORMAL":25},"mode":4,"indices":26,"material":3}]},{"primitives":[{"attributes":{"POSITION":27,"NORMAL":28},"mode":4,"indices":29,"material":4},{"attributes":{"POSITION":30,"NORMAL":31},"mode":4,"indices":32,"material":5},{"attributes":{"POSITION":33,"NORMAL":34},"mode":4,"indices":35,"material":6},{"attributes":{"POSITION":36,"NORMAL":37},"mode":4,"indices":38,"material":7}]},{"primitives":[{"attributes":{"POSITION":39,"NORMAL":40},"mode":4,"indices":41,"material":4},{"attributes":{"POSITION":42,"NORMAL":43},"mode":4,"indices":44,"material":6},{"attributes":{"POSITION":45,"NORMAL":46},"mode":4,"indices":47,"material":8},{"attributes":{"POSITION":48,"NORMAL":49},"mode":4,"indices":50,"material":9},{"attributes":{"POSITION":51,"NORMAL":52},"mode":4,"indices":53,"material":10}]},{"primitives":[{"attributes":{"POSITION":54,"NORMAL":55},"mode":4,"indices":56,"material":3}]}],"nodes":[{"mesh":0},{"mesh":1},{"mesh":2},{"mesh":3},{"mesh":4},{"mesh":5},{"mesh":6},{"mesh":7},{"mesh":8},{"mesh":9},{"name":"TURNIGY TGY-210DMH v1","children":[0]},{"name":"Attachmnet Rod","children":[1]},{"name":"Deployer","children":[2]},{"name":"Deployer","children":[3]},{"name":"Arm Holder","children":[4]},{"name":"Arm","children":[5]},{"name":"Motor-mount","children":[6]},{"name":"1404 motor","children":[7]},{"name":"1404 motor","children":[8]},{"name":"Bottom","children":[9]}],"scenes":[{"nodes":[10,11,12,13,14,15,16,17,18,19]}]}