{"buffers":[{"uri":"Frame.bin","byteLength":5584320}],"asset":{"version":"2.0","generator":"gltfpack 0.16"},"bufferViews":[{"buffer":0,"byteOffset":0,"byteLength":2094672,"byteStride":12,"target":34962},{"buffer":0,"byteOffset":2094672,"byteLength":2094672,"byteStride":12,"target":34962},{"buffer":0,"byteOffset":4189344,"byteLength":1394976,"target":34963}],"accessors":[{"bufferView":0,"byteOffset":0,"componentType":5126,"count":8568,"type":"VEC3","min":[-3.29998994,0,-3.29998994],"max":[3.29998994,11.5,3.29998994]},{"bufferView":1,"byteOffset":0,"componentType":5126,"count":8568,"type":"VEC3"},{"bufferView":2,"byteOffset":0,"componentType":5123,"count":25170,"type":"SCALAR"},{"bufferView":0,"byteOffset":102816,"componentType":5126,"count":2380,"type":"VEC3","min":[-2.10372996,0.200000003,2.43532991],"max":[2.10372996,11.3000002,3.29998994]},{"bufferView":1,"byteOffset":102816,"componentType":5126,"count":2380,"type":"VEC3"},{"bufferView":2,"byteOffset":50340,"componentType":5123,"count":7080,"type":"SCALAR"},{"bufferView":0,"byteOffset":131376,"componentType":5126,"count":2380,"type":"VEC3","min":[1.14998996,0.200000003,-3.09313011],"max":[3.29545999,11.3000002,0.550629973]},{"bufferView":1,"byteOffset":131376,"componentType":5126,"count":2380,"type":"VEC3"},{"bufferView":2,"byteOffset":64500,"componentType":5123,"count":7080,"type":"SCALAR"},{"bufferView":0,"byteOffset":159936,"componentType":5126,"count":2380,"type":"VEC3","min":[-3.29545999,0.200000003,-3.09313011],"max":[-1.14998996,11.3000002,0.550629973]},{"bufferView":1,"byteOffset":159936,"componentType":5126,"count":2380,"type":"VEC3"},{"bufferView":2,"byteOffset":78660,"componentType":5123,"count":7080,"type":"SCALAR"},{"bufferView":0,"byteOffset":188496,"componentType":5126,"count":1024,"type":"VEC3","min":[0.89971,0.204119995,-0.0117100002],"max":[2.95282006,11.2700005,2.23597002]},{"bufferView":1,"byteOffset":188496,"componentType":5126,"count":1024,"type":"VEC3"},{"bufferView":2,"byteOffset":92820,"componentType":5123,"count":3096,"type":"SCALAR"},{"bufferView":0,"byteOffset":200784,"componentType":5126,"count":84,"type":"VEC3","min":[1.06379449,10.811409,-0.915789664],"max":[3.65922856,11.2091799,3.18075395]},{"bufferView":1,"byteOffset":200784,"componentType":5126,"count":84,"type":"VEC3"},{"bufferView":2,"byteOffset":99012,"componentType":5123,"count":240,"type":"SCALAR"},{"bufferView":0,"byteOffset":201792,"componentType":5126,"count":4551,"type":"VEC3","min":[-0.595000029,7.12727356,-2.28176689],"max":[0.595000029,10.4622736,0.26823318]},{"bufferView":1,"byteOffset":201792,"componentType":5126,"count":4551,"type":"VEC3"},{"bufferView":2,"byteOffset":99492,"componentType":5123,"count":19647,"type":"SCALAR"},{"bufferView":0,"byteOffset":256404,"componentType":5126,"count":2359,"type":"VEC3","min":[-0.29479,7.89229393,-2.69676685],"max":[0.29479,8.48081398,-1.92578685]},{"bufferView":1,"byteOffset":256404,"componentType":5126,"count":2359,"type":"VEC3"},{"bufferView":2,"byteOffset":138786,"componentType":5123,"count":6855,"type":"SCALAR"},{"bufferView":0,"byteOffset":284712,"componentType":5126,"count":1572,"type":"VEC3","min":[-0.595000029,7.68728399,-1.33177686],"max":[0.595000029,9.98726368,-0.331776828]},{"bufferView":1,"byteOffset":284712,"componentType":5126,"count":1572,"type":"VEC3"},{"bufferView":2,"byteOffset":152496,"componentType":5123,"count":7032,"type":"SCALAR"},{"bufferView":0,"byteOffset":303576,"componentType":5126,"count":8180,"type":"VEC3","min":[1.50231183,0.632618129,0.562869966],"max":[2.36629534,1.6690104,1.53542018]},{"bufferView":1,"byteOffset":303576,"componentType":5126,"count":8180,"type":"VEC3"},{"bufferView":2,"byteOffset":166560,"componentType":5123,"count":29052,"type":"SCALAR"},{"bufferView":0,"byteOffset":401736,"componentType":5126,"count":32134,"type":"VEC3","min":[1.7976377,0.572917104,0.763551533],"max":[2.86711168,1.72680926,1.96911061]},{"bufferView":1,"byteOffset":401736,"componentType":5126,"count":32134,"type":"VEC3"},{"bufferView":2,"byteOffset":224664,"componentType":5123,"count":145848,"type":"SCALAR"},{"bufferView":0,"byteOffset":787344,"componentType":5126,"count":176,"type":"VEC3","min":[1.71052074,0.901085377,0.832871795],"max":[2.66605949,1.40054321,1.67289948]},{"bufferView":1,"byteOffset":787344,"componentType":5126,"count":176,"type":"VEC3"},{"bufferView":2,"byteOffset":516360,"componentType":5123,"count":528,"type":"SCALAR"},{"bufferView":0,"byteOffset":789456,"componentType":5126,"count":1256,"type":"VEC3","min":[1.86657,0.450842172,0.662929237],"max":[2.91281033,1.85058832,2.07515192]},{"bufferView":1,"byteOffset":789456,"componentType":5126,"count":1256,"type":"VEC3"},{"bufferView":2,"byteOffset":517416,"componentType":5123,"count":3336,"type":"SCALAR"},{"bufferView":0,"byteOffset":804528,"componentType":5126,"count":5756,"type":"VEC3","min":[2.14167595,0.256055474,0.709559858],"max":[3.09520292,2.04518414,2.30351329]},{"bufferView":1,"byteOffset":804528,"componentType":5126,"count":5756,"type":"VEC3"},{"bufferView":2,"byteOffset":524088,"componentType":5123,"count":19203,"type":"SCALAR"},{"bufferView":0,"byteOffset":873600,"componentType":5126,"count":125,"type":"VEC3","min":[1.67378581,1.00106323,0.870261967],"max":[3.04188561,1.30079865,1.78880632]},{"bufferView":1,"byteOffset":873600,"componentType":5126,"count":125,"type":"VEC3"},{"bufferView":2,"byteOffset":562494,"componentType":5123,"count":363,"type":"SCALAR"},{"bufferView":0,"byteOffset":875100,"componentType":5126,"count":669,"type":"VEC3","min":[2.19343543,0.256055474,0.739553094],"max":[3.09520292,2.04518414,2.30351329]},{"bufferView":1,"byteOffset":875100,"componentType":5126,"count":669,"type":"VEC3"},{"bufferView":2,"byteOffset":563220,"componentType":5123,"count":2316,"type":"SCALAR"},{"bufferView":0,"byteOffset":883128,"componentType":5126,"count":336,"type":"VEC3","min":[1.82002032,0.357935429,0.582468033],"max":[2.95926094,1.94369304,2.15578461]},{"bufferView":1,"byteOffset":883128,"componentType":5126,"count":336,"type":"VEC3"},{"bufferView":2,"byteOffset":567852,"componentType":5123,"count":720,"type":"SCALAR"},{"bufferView":0,"byteOffset":887160,"componentType":5126,"count":382,"type":"VEC3","min":[1.72597563,0.256444395,0.469573945],"max":[3.03599334,2.04518414,2.25868416]},{"bufferView":1,"byteOffset":887160,"componentType":5126,"count":382,"type":"VEC3"},{"bufferView":2,"byteOffset":569292,"componentType":5123,"count":1146,"type":"SCALAR"},{"bufferView":0,"byteOffset":891744,"componentType":5126,"count":8180,"type":"VEC3","min":[-0.527299106,0.632618129,-2.55406785],"max":[0.509098232,1.6690104,-2.01400685]},{"bufferView":1,"byteOffset":891744,"componentType":5126,"count":8180,"type":"VEC3"},{"bufferView":2,"byteOffset":571584,"componentType":5123,"count":29052,"type":"SCALAR"},{"bufferView":0,"byteOffset":989904,"componentType":5126,"count":32134,"type":"VEC3","min":[-0.587025225,0.572917104,-2.97906637],"max":[0.566878855,1.72680926,-2.2378881]},{"bufferView":1,"byteOffset":989904,"componentType":5126,"count":32134,"type":"VEC3"},{"bufferView":2,"byteOffset":629688,"componentType":5123,"count":145848,"type":"SCALAR"},{"bufferView":0,"byteOffset":1375512,"componentType":5126,"count":176,"type":"VEC3","min":[-0.258856982,0.901085377,-2.92906618],"max":[0.240628451,1.40054321,-2.1140492]},{"bufferView":1,"byteOffset":1375512,"componentType":5126,"count":176,"type":"VEC3"},{"bufferView":2,"byteOffset":921384,"componentType":5123,"count":528,"type":"SCALAR"},{"bufferView":0,"byteOffset":1377624,"componentType":5126,"count":1256,"type":"VEC3","min":[-0.709100962,0.450842172,-2.95407128],"max":[0.690658748,1.85058832,-2.55403399]},{"bufferView":1,"byteOffset":1377624,"componentType":5126,"count":1256,"type":"VEC3"},{"bufferView":2,"byteOffset":922440,"componentType":5123,"count":3336,"type":"SCALAR"},{"bufferView":0,"byteOffset":1392696,"componentType":5126,"count":5756,"type":"VEC3","min":[-0.903501809,0.256055474,-3.21409822],"max":[0.885626793,2.04518414,-2.95402074]},{"bufferView":1,"byteOffset":1392696,"componentType":5126,"count":5756,"type":"VEC3"},{"bufferView":2,"byteOffset":929112,"componentType":5123,"count":19203,"type":"SCALAR"},{"bufferView":0,"byteOffset":1461768,"componentType":5126,"count":125,"type":"VEC3","min":[-0.158694491,1.00106323,-3.46406007],"max":[0.140887365,1.30079865,-2.01405263]},{"bufferView":1,"byteOffset":1461768,"componentType":5126,"count":125,"type":"VEC3"},{"bufferView":2,"byteOffset":967518,"componentType":5123,"count":363,"type":"SCALAR"},{"bufferView":0,"byteOffset":1463268,"componentType":5126,"count":669,"type":"VEC3","min":[-0.903501809,0.256055474,-3.21407342],"max":[0.885626793,2.04518414,-3.04401731]},{"bufferView":1,"byteOffset":1463268,"componentType":5126,"count":669,"type":"VEC3"},{"bufferView":2,"byteOffset":968244,"componentType":5123,"count":2316,"type":"SCALAR"},{"bufferView":0,"byteOffset":1471296,"componentType":5126,"count":336,"type":"VEC3","min":[-0.802007735,0.357935429,-2.95407438],"max":[0.783763468,1.94369304,-2.55403066]},{"bufferView":1,"byteOffset":1471296,"componentType":5126,"count":336,"type":"VEC3"},{"bufferView":2,"byteOffset":972876,"componentType":5123,"count":720,"type":"SCALAR"},{"bufferView":0,"byteOffset":1475328,"componentType":5126,"count":382,"type":"VEC3","min":[-0.903499782,0.256444395,-2.98408794],"max":[0.885256231,2.04518414,-2.50402737]},{"bufferView":1,"byteOffset":1475328,"componentType":5126,"count":382,"type":"VEC3"},{"bufferView":2,"byteOffset":974316,"componentType":5123,"count":1146,"type":"SCALAR"},{"bufferView":0,"byteOffset":1479912,"componentType":5126,"count":1024,"type":"VEC3","min":[-0.920007527,0.204119995,-2.87845874],"max":[0.920002699,11.2700005,-1.57005668]},{"bufferView":1,"byteOffset":1479912,"componentType":5126,"count":1024,"type":"VEC3"},{"bufferView":2,"byteOffset":976608,"componentType":5123,"count":3096,"type":"SCALAR"},{"bufferView":0,"byteOffset":1492200,"componentType":5126,"count":84,"type":"VEC3","min":[-2.44999933,10.811409,-2.81081009],"max":[2.05000257,11.2091799,-2.41193008]},{"bufferView":1,"byteOffset":1492200,"componentType":5126,"count":84,"type":"VEC3"},{"bufferView":2,"byteOffset":982800,"componentType":5123,"count":240,"type":"SCALAR"},{"bufferView":0,"byteOffset":1493208,"componentType":5126,"count":8180,"type":"VEC3","min":[-2.35719752,0.632618129,0.578645587],"max":[-1.49318588,1.6690104,1.55116951]},{"bufferView":1,"byteOffset":1493208,"componentType":5126,"count":8180,"type":"VEC3"},{"bufferView":2,"byteOffset":983280,"componentType":5123,"count":29052,"type":"SCALAR"},{"bufferView":0,"byteOffset":1591368,"componentType":5126,"count":32134,"type":"VEC3","min":[-2.85376167,0.572917104,0.784948528],"max":[-1.79459751,1.72680926,1.99049449]},{"bufferView":1,"byteOffset":1591368,"componentType":5126,"count":32134,"type":"VEC3"},{"bufferView":2,"byteOffset":1041384,"componentType":5123,"count":145848,"type":"SCALAR"},{"bufferView":0,"byteOffset":1976976,"componentType":5126,"count":176,"type":"VEC3","min":[-2.65694594,0.901085377,0.848642707],"max":[-1.70140553,1.40054321,1.68870127]},{"bufferView":1,"byteOffset":1976976,"componentType":5126,"count":176,"type":"VEC3"},{"bufferView":2,"byteOffset":1333080,"componentType":5123,"count":528,"type":"SCALAR"},{"bufferView":0,"byteOffset":1979088,"componentType":5126,"count":1256,"type":"VEC3","min":[-2.90362334,0.450842172,0.67891264],"max":[-1.85731447,1.85058832,2.09111142]},{"bufferView":1,"byteOffset":1979088,"componentType":5126,"count":1256,"type":"VEC3"},{"bufferView":2,"byteOffset":1334136,"componentType":5123,"count":3336,"type":"SCALAR"},{"bufferView":0,"byteOffset":1994160,"componentType":5126,"count":5756,"type":"VEC3","min":[-3.12141895,0.256055474,0.725403666],"max":[-2.1324935,2.04518414,2.3044641]},{"bufferView":1,"byteOffset":1994160,"componentType":5126,"count":5756,"type":"VEC3"},{"bufferView":2,"byteOffset":1340808,"componentType":5123,"count":19203,"type":"SCALAR"},{"bufferView":0,"byteOffset":2063232,"componentType":5126,"count":125,"type":"VEC3","min":[-3.03274393,1.00106323,0.885019302],"max":[-1.66525972,1.30079865,1.80464554]},{"bufferView":1,"byteOffset":2063232,"componentType":5126,"count":125,"type":"VEC3"},{"bufferView":2,"byteOffset":1379214,"componentType":5123,"count":363,"type":"SCALAR"},{"bufferView":0,"byteOffset":2064732,"componentType":5126,"count":669,"type":"VEC3","min":[-3.12141895,0.256055474,0.755063653],"max":[-2.18444538,2.04518414,2.3044641]},{"bufferView":1,"byteOffset":2064732,"componentType":5126,"count":669,"type":"VEC3"},{"bufferView":2,"byteOffset":1379940,"componentType":5123,"count":2316,"type":"SCALAR"},{"bufferView":0,"byteOffset":2072760,"componentType":5126,"count":336,"type":"VEC3","min":[-2.95017838,0.357935429,0.598283172],"max":[-1.81085837,1.94369304,2.17156935]},{"bufferView":1,"byteOffset":2072760,"componentType":5126,"count":336,"type":"VEC3"},{"bufferView":2,"byteOffset":1384572,"componentType":5123,"count":720,"type":"SCALAR"},{"bufferView":0,"byteOffset":2076792,"componentType":5126,"count":382,"type":"VEC3","min":[-3.02691579,0.256444395,0.48538959],"max":[-1.71680951,2.04518414,2.27446747]},{"bufferView":1,"byteOffset":2076792,"componentType":5126,"count":382,"type":"VEC3"},{"bufferView":2,"byteOffset":1386012,"componentType":5123,"count":1146,"type":"SCALAR"},{"bufferView":0,"byteOffset":2081376,"componentType":5126,"count":1024,"type":"VEC3","min":[-2.95281672,0.204119995,-0.0117132841],"max":[-0.899713814,11.2700005,2.23597717]},{"bufferView":1,"byteOffset":2081376,"componentType":5126,"count":1024,"type":"VEC3"},{"bufferView":2,"byteOffset":1388304,"componentType":5123,"count":3096,"type":"SCALAR"},{"bufferView":0,"byteOffset":2093664,"componentType":5126,"count":84,"type":"VEC3","min":[-3.45923114,10.811409,-0.569383919],"max":[-0.863797009,11.2091799,3.52715969]},{"bufferView":1,"byteOffset":2093664,"componentType":5126,"count":84,"type":"VEC3"},{"bufferView":2,"byteOffset":1394496,"componentType":5123,"count":240,"type":"SCALAR"}],"materials":[{"pbrMetallicRoughness":{"baseColorFactor":[0.627451003,0.627451003,0.627451003,1],"metallicFactor":0},"doubleSided":true},{"pbrMetallicRoughness":{"baseColorFactor":[0.266666681,0.266666681,0.266666681,1],"metallicFactor":0},"doubleSided":true},{"pbrMetallicRoughness":{"baseColorFactor":[0.815686285,0.815686285,0.815686285,1],"metallicFactor":0},"doubleSided":true},{"pbrMetallicRoughness":{"baseColorFactor":[0.564705908,0.580392182,0.552941203,1],"metallicFactor":0},"doubleSided":true},{"pbrMetallicRoughness":{"baseColorFactor":[0.211764708,0.200000003,0.200000003,1],"metallicFactor":0},"doubleSided":true},{"pbrMetallicRoughness":{"baseColorFactor":[0.607843161,0.525490224,0.36470589,1],"metallicFactor":0},"doubleSided":true},{"pbrMetallicRoughness":{"baseColorFactor":[0.796078444,0.796078444,0.796078444,1],"metallicFactor":0},"doubleSided":true},{"pbrMetallicRoughness":{"baseColorFactor":[0.180392161,0.403921574,0.188235298,1],"metallicFactor":0},"doubleSided":true},{"pbrMetallicRoughness":{"baseColorFactor":[0.854901969,0.349019617,0.349019617,1],"metallicFactor":0},"doubleSided":true},{"pbrMetallicRoughness":{"baseColorFactor":[0.984313726,0.980392158,0.960784316,1],"metallicFactor":0},"doubleSided":true},{"pbrMetallicRoughness":{"baseColorFactor":[0.0980392173,0.0980392173,0.0980392173,1],"metallicFactor":0},"doubleSided":true}],"meshes":[{"primitives":[{"attributes":{"POSITION":0,"NORMAL":1},"mode":4,"indices":2,"material":0}]},{"primitives":[{"attributes":{"POSITION":3,"NORMAL":4},"mode":4,"indices":5,"material":0}]},{"primitives":[{"attributes":{"POSITION":6,"NORMAL":7},"mode":4,"indices":8,"material":0}]},{"primitives":[{"attributes":{"POSITION":9,"NORMAL":10},"mode":4,"indices":11,"material":0}]},{"primitives":[{"attributes":{"POSITION":12,"NORMAL":13},"mode":4,"indices":14,"material":0}]},{"primitives":[{"attributes":{"POSITION":15,"NORMAL":16},"mode":4,"indices":17,"material":0}]},{"primitives":[{"attributes":{"POSITION":18,"NORMAL":19},"mode":4,"indices":20,"material":1},{"attributes":{"POSITION":21,"NORMAL":22},"mode":4,"indices":23,"material":2},{"attributes":{"POSITION":24,"NORMAL":25},"mode":4,"indices":26,"material":3}]},{"primitives":[{"attributes":{"POSITION":27,"NORMAL":28},"mode":4,"indices":29,"material":4},{"attributes":{"POSITION":30,"NORMAL":31},"mode":4,"indices":32,"material":5},{"attributes":{"POSITION":33,"NORMAL":34},"mode":4,"indices":35,"material":6},{"attributes":{"POSITION":36,"NORMAL":37},"mode":4,"indices":38,"material":7}]},{"primitives":[{"attributes":{"POSITION":39,"NORMAL":40},"mode":4,"indices":41,"material":4},{"attributes":{"POSITION":42,"NORMAL":43},"mode":4,"indices":44,"material":6},{"attributes":{"POSITION":45,"NORMAL":46},"mode":4,"indices":47,"material":8},{"attributes":{"POSITION":48,"NORMAL":49},"mode":4,"indices":50,"material":9},{"attributes":{"POSITION":51,"NORMAL":52},"mode":4,"indices":53,"material":10}]},{"primitives":[{"attributes":{"POSITION":54,"NORMAL":55},"mode":4,"indices":56,"material":4},{"attributes":{"POSITION":57,"NORMAL":58},"mode":4,"indices":59,"material":5},{"attributes":{"POSITION":60,"NORMAL":61},"mode":4,"indices":62,"material":6},{"attributes":{"POSITION":63,"NORMAL":64},"mode":4,"indices":65,"material":7}]},{"primitives":[{"attributes":{"POSITION":66,"NORMAL":67},"mode":4,"indices":68,"material":4},{"attributes":{"POSITION":69,"NORMAL":70},"mode":4,"indices":71,"material":6},{"attributes":{"POSITION":72,"NORMAL":73},"mode":4,"indices":74,"material":8},{"attributes":{"POSITION":75,"NORMAL":76},"mode":4,"indices":77,"material":9},{"attributes":{"POSITION":78,"NORMAL":79},"mode":4,"indices":80,"material":10}]},{"primitives":[{"attributes":{"POSITION":81,"NORMAL":82},"mode":4,"indices":83,"material":0}]},{"primitives":[{"attributes":{"POSITION":84,"NORMAL":85},"mode":4,"indices":86,"material":0}]},{"primitives":[{"attributes":{"POSITION":87,"NORMAL":88},"mode":4,"indices":89,"material":4},{"attributes":{"POSITION":90,"NORMAL":91},"mode":4,"indices":92,"material":5},{"attributes":{"POSITION":93,"NORMAL":94},"mode":4,"indices":95,"material":6},{"attributes":{"POSITION":96,"NORMAL":97},"mode":4,"indices":98,"material":7}]},{"primitives":[{"attributes":{"POSITION":99,"NORMAL":100},"mode":4,"indices":101,"material":4},{"attributes":{"POSITION":102,"NORMAL":103},"mode":4,"indices":104,"material":6},{"attributes":{"POSITION":105,"NORMAL":106},"mode":4,"indices":107,"material":8},{"attributes":{"POSITION":108,"NORMAL":109},"mode":4,"indices":110,"material":9},{"attributes":{"POSITION":111,"NORMAL":112},"mode":4,"indices":113,"material":10}]},{"primitives":[{"attributes":{"POSITION":114,"NORMAL":115},"mode":4,"indices":116,"material":0}]},{"primitives":[{"attributes":{"POSITION":117,"NORMAL":118},"mode":4,"indices":119,"material":0}]}],"nodes":[{"mesh":0},{"mesh":1},{"mesh":2},{"mesh":3},{"mesh":4},{"mesh":5},{"mesh":6},{"mesh":7},{"mesh":8},{"mesh":9},{"mesh":10},{"mesh":11},{"mesh":12},{"mesh":13},{"mesh":14},{"mesh":15},{"mesh":16},{"name":"Frame","children":[0]},{"name":"Cover 1","children":[1]},{"name":"Cover 2","children":[2]},{"name":"Cover 3","children":[3]},{"name":"Wing-mount","children":[4]},{"name":"Wing-mount-rod","children":[5]},{"name":"TURNIGY TGY-210DMH v1","children":[6]},{"name":"1404 motor","children":[7]},{"name":"1404 motor","children":[8]},{"name":"1404 motor","children":[9]},{"name":"1404 motor","children":[10]},{"name":"Wing-mount","children":[11]},{"name":"Wing-mount-rod","children":[12]},{"name":"1404 motor","children":[13]},{"name":"1404 motor","children":[14]},{"name":"Wing-mount","children":[15]},{"name":"Wing-mount-rod","children":[16]}],"scenes":[{"nodes":[17,18,19,20,21,22,23,24,25,26,27,28,29,30,31,32,33]}]}