{"buffers":[{"uri":"Frame.bin","byteLength":774288}],"asset":{"version":"2.0","generator":"gltfpack 0.16"},"bufferViews":[{"buffer":0,"byteOffset":0,"byteLength":295104,"byteStride":12,"target":34962},{"buffer":0,"byteOffset":295104,"byteLength":295104,"byteStride":12,"target":34962},{"buffer":0,"byteOffset":590208,"byteLength":184080,"target":34963}],"accessors":[{"bufferView":0,"byteOffset":0,"componentType":5126,"count":8644,"type":"VEC3","min":[-3.29998994,0,-3.29998994],"max":[3.29998994,11.5,3.29998994]},{"bufferView":1,"byteOffset":0,"componentType":5126,"count":8644,"type":"VEC3"},{"bufferView":2,"byteOffset":0,"componentType":5123,"count":25404,"type":"SCALAR"},{"bufferView":0,"byteOffset":103728,"componentType":5126,"count":2388,"type":"VEC3","min":[-2.26189995,0.200000003,2.29814005],"max":[2.26189995,11.3000002,3.29998994]},{"bufferView":1,"byteOffset":103728,"componentType":5126,"count":2388,"type":"VEC3"},{"bufferView":2,"byteOffset":50808,"componentType":5123,"count":7104,"type":"SCALAR"},{"bufferView":0,"byteOffset":132384,"componentType":5126,"count":2388,"type":"VEC3","min":[0.949989974,0.200000003,-3.16030002],"max":[3.29998994,11.3000002,0.757420003]},{"bufferView":1,"byteOffset":132384,"componentType":5126,"count":2388,"type":"VEC3"},{"bufferView":2,"byteOffset":65016,"componentType":5123,"count":7104,"type":"SCALAR"},{"bufferView":0,"byteOffset":161040,"componentType":5126,"count":2388,"type":"VEC3","min":[-3.29998994,0.200000003,-3.16030002],"max":[-0.949989974,11.3000002,0.757420003]},{"bufferView":1,"byteOffset":161040,"componentType":5126,"count":2388,"type":"VEC3"},{"bufferView":2,"byteOffset":79224,"componentType":5123,"count":7104,"type":"SCALAR"},{"bufferView":0,"byteOffset":189696,"componentType":5126,"count":292,"type":"VEC3","min":[1.57124615,9.92448235,0.491466224],"max":[11.8779507,11.2328882,7.27342463]},{"bufferView":1,"byteOffset":189696,"componentType":5126,"count":292,"type":"VEC3"},{"bufferView":2,"byteOffset":93432,"componentType":5123,"count":852,"type":"SCALAR"},{"bufferView":0,"byteOffset":193200,"componentType":5126,"count":84,"type":"VEC3","min":[0.963792324,10.8114071,-0.742588401],"max":[3.5592308,11.2091827,3.35396266]},{"bufferView":1,"byteOffset":193200,"componentType":5126,"count":84,"type":"VEC3"},{"bufferView":2,"byteOffset":95136,"componentType":5123,"count":240,"type":"SCALAR"},{"bufferView":0,"byteOffset":194208,"componentType":5126,"count":932,"type":"VEC3","min":[1.35354972,8.99193287,0.666638613],"max":[1.89310217,9.99118328,1.20629251]},{"bufferView":1,"byteOffset":194208,"componentType":5126,"count":932,"type":"VEC3"},{"bufferView":2,"byteOffset":95616,"componentType":5123,"count":5592,"type":"SCALAR"},{"bufferView":0,"byteOffset":205392,"componentType":5126,"count":810,"type":"VEC3","min":[1.57217216,10.0007143,0.769262254],"max":[1.94619203,10.4750652,1.26051331]},{"bufferView":1,"byteOffset":205392,"componentType":5126,"count":810,"type":"VEC3"},{"bufferView":2,"byteOffset":106800,"componentType":5123,"count":4212,"type":"SCALAR"},{"bufferView":0,"byteOffset":215112,"componentType":5126,"count":810,"type":"VEC3","min":[1.57217216,8.50806046,0.769262254],"max":[1.94619203,8.98241138,1.26051331]},{"bufferView":1,"byteOffset":215112,"componentType":5126,"count":810,"type":"VEC3"},{"bufferView":2,"byteOffset":115224,"componentType":5123,"count":4212,"type":"SCALAR"},{"bufferView":0,"byteOffset":224832,"componentType":5126,"count":292,"type":"VEC3","min":[-0.720007062,9.92448235,-13.2997799],"max":[0.720003366,11.2328882,-2.23001003]},{"bufferView":1,"byteOffset":224832,"componentType":5126,"count":292,"type":"VEC3"},{"bufferView":2,"byteOffset":123648,"componentType":5123,"count":852,"type":"SCALAR"},{"bufferView":0,"byteOffset":228336,"componentType":5126,"count":84,"type":"VEC3","min":[-2.24999762,10.8114071,-2.81081009],"max":[2.2500031,11.2091827,-2.41193008]},{"bufferView":1,"byteOffset":228336,"componentType":5126,"count":84,"type":"VEC3"},{"bufferView":2,"byteOffset":125352,"componentType":5123,"count":240,"type":"SCALAR"},{"bufferView":0,"byteOffset":229344,"componentType":5126,"count":932,"type":"VEC3","min":[-0.270514309,8.99193287,-2.14368296],"max":[0.269165695,9.99118328,-1.60429287]},{"bufferView":1,"byteOffset":229344,"componentType":5126,"count":932,"type":"VEC3"},{"bufferView":2,"byteOffset":125832,"componentType":5123,"count":5592,"type":"SCALAR"},{"bufferView":0,"byteOffset":240528,"componentType":5126,"count":810,"type":"VEC3","min":[-0.270294309,10.0007143,-2.17806149],"max":[0.268945694,10.4750652,-1.88381696]},{"bufferView":1,"byteOffset":240528,"componentType":5126,"count":810,"type":"VEC3"},{"bufferView":2,"byteOffset":137016,"componentType":5123,"count":4212,"type":"SCALAR"},{"bufferView":0,"byteOffset":250248,"componentType":5126,"count":810,"type":"VEC3","min":[-0.270294309,8.50806046,-2.17806149],"max":[0.268945694,8.98241138,-1.88381696]},{"bufferView":1,"byteOffset":250248,"componentType":5126,"count":810,"type":"VEC3"},{"bufferView":2,"byteOffset":145440,"componentType":5123,"count":4212,"type":"SCALAR"},{"bufferView":0,"byteOffset":259968,"componentType":5126,"count":292,"type":"VEC3","min":[-11.8779449,9.92448235,0.491468042],"max":[-1.57124507,11.2328882,7.27343416]},{"bufferView":1,"byteOffset":259968,"componentType":5126,"count":292,"type":"VEC3"},{"bufferView":2,"byteOffset":153864,"componentType":5123,"count":852,"type":"SCALAR"},{"bufferView":0,"byteOffset":263472,"componentType":5126,"count":84,"type":"VEC3","min":[-3.55923319,10.8114071,-0.742592692],"max":[-0.963794827,11.2091827,3.35395837]},{"bufferView":1,"byteOffset":263472,"componentType":5126,"count":84,"type":"VEC3"},{"bufferView":2,"byteOffset":155568,"componentType":5123,"count":240,"type":"SCALAR"},{"bufferView":0,"byteOffset":264480,"componentType":5126,"count":932,"type":"VEC3","min":[-1.89242792,8.99193287,0.667806566],"max":[-1.35287535,9.99118328,1.20746052]},{"bufferView":1,"byteOffset":264480,"componentType":5126,"count":932,"type":"VEC3"},{"bufferView":2,"byteOffset":156048,"componentType":5123,"count":5592,"type":"SCALAR"},{"bufferView":0,"byteOffset":275664,"componentType":5126,"count":810,"type":"VEC3","min":[-1.94551766,10.0007143,0.770430207],"max":[-1.57149792,10.4750652,1.26168132]},{"bufferView":1,"byteOffset":275664,"componentType":5126,"count":810,"type":"VEC3"},{"bufferView":2,"byteOffset":167232,"componentType":5123,"count":4212,"type":"SCALAR"},{"bufferView":0,"byteOffset":285384,"componentType":5126,"count":810,"type":"VEC3","min":[-1.94551766,8.50806046,0.770430207],"max":[-1.57149792,8.98241138,1.26168132]},{"bufferView":1,"byteOffset":285384,"componentType":5126,"count":810,"type":"VEC3"},{"bufferView":2,"byteOffset":175656,"componentType":5123,"count":4212,"type":"SCALAR"}],"materials":[{"pbrMetallicRoughness":{"baseColorFactor":[0.627451003,0.627451003,0.627451003,1],"metallicFactor":0},"doubleSided":true}],"meshes":[{"primitives":[{"attributes":{"POSITION":0,"NORMAL":1},"mode":4,"indices":2,"material":0}]},{"primitives":[{"attributes":{"POSITION":3,"NORMAL":4},"mode":4,"indices":5,"material":0}]},{"primitives":[{"attributes":{"POSITION":6,"NORMAL":7},"mode":4,"indices":8,"material":0}]},{"primitives":[{"attributes":{"POSITION":9,"NORMAL":10},"mode":4,"indices":11,"material":0}]},{"primitives":[{"attributes":{"POSITION":12,"NORMAL":13},"mode":4,"indices":14,"material":0}]},{"primitives":[{"attributes":{"POSITION":15,"NORMAL":16},"mode":4,"indices":17,"material":0}]},{"primitives":[{"attributes":{"POSITION":18,"NORMAL":19},"mode":4,"indices":20,"material":0}]},{"primitives":[{"attributes":{"POSITION":21,"NORMAL":22},"mode":4,"indices":23,"material":0}]},{"primitives":[{"attributes":{"POSITION":24,"NORMAL":25},"mode":4,"indices":26,"material":0}]},{"primitives":[{"attributes":{"POSITION":27,"NORMAL":28},"mode":4,"indices":29,"material":0}]},{"primitives":[{"attributes":{"POSITION":30,"NORMAL":31},"mode":4,"indices":32,"material":0}]},{"primitives":[{"attributes":{"POSITION":33,"NORMAL":34},"mode":4,"indices":35,"material":0}]},{"primitives":[{"attributes":{"POSITION":36,"NORMAL":37},"mode":4,"indices":38,"material":0}]},{"primitives":[{"attributes":{"POSITION":39,"NORMAL":40},"mode":4,"indices":41,"material":0}]},{"primitives":[{"attributes":{"POSITION":42,"NORMAL":43},"mode":4,"indices":44,"material":0}]},{"primitives":[{"attributes":{"POSITION":45,"NORMAL":46},"mode":4,"indices":47,"material":0}]},{"primitives":[{"attributes":{"POSITION":48,"NORMAL":49},"mode":4,"indices":50,"material":0}]},{"primitives":[{"attributes":{"POSITION":51,"NORMAL":52},"mode":4,"indices":53,"material":0}]},{"primitives":[{"attributes":{"POSITION":54,"NORMAL":55},"mode":4,"indices":56,"material":0}]}],"nodes":[{"mesh":0},{"mesh":1},{"mesh":2},{"mesh":3},{"mesh":4},{"mesh":5},{"mesh":6},{"mesh":7},{"mesh":8},{"mesh":9},{"mesh":10},{"mesh":11},{"mesh":12},{"mesh":13},{"mesh":14},{"mesh":15},{"mesh":16},{"mesh":17},{"mesh":18},{"name":"Frame","children":[0]},{"name":"Cover 1","children":[1]},{"name":"Cover 2","children":[2]},{"name":"Cover 3","children":[3]},{"name":"Wing-mount","children":[4]},{"name":"Wing-mount-rod","children":[5]},{"name":"Main","children":[6]},{"name":"Top","children":[7]},{"name":"Bottom","children":[8]},{"name":"Wing-mount","children":[9]},{"name":"Wing-mount-rod","children":[10]},{"name":"Main","children":[11]},{"name":"Top","children":[12]},{"name":"Bottom","children":[13]},{"name":"Wing-mount","children":[14]},{"name":"Wing-mount-rod","children":[15]},{"name":"Main","children":[16]},{"name":"Top","children":[17]},{"name":"Bottom","children":[18]}],"scenes":[{"nodes":[19,20,21,22,23,24,25,26,27,28,29,30,31,32,33,34,35,36,37]}]}