{"buffers":[{"uri":"Frame.bin","byteLength":573312}],"asset":{"version":"2.0","generator":"gltfpack 0.16"},"bufferViews":[{"buffer":0,"byteOffset":0,"byteLength":224832,"byteStride":12,"target":34962},{"buffer":0,"byteOffset":224832,"byteLength":224832,"byteStride":12,"target":34962},{"buffer":0,"byteOffset":449664,"byteLength":123648,"target":34963}],"accessors":[{"bufferView":0,"byteOffset":0,"componentType":5126,"count":8644,"type":"VEC3","min":[-3.29998994,0,-3.29998994],"max":[3.29998994,11.5,3.29998994]},{"bufferView":1,"byteOffset":0,"componentType":5126,"count":8644,"type":"VEC3"},{"bufferView":2,"byteOffset":0,"componentType":5123,"count":25404,"type":"SCALAR"},{"bufferView":0,"byteOffset":103728,"componentType":5126,"count":2388,"type":"VEC3","min":[-2.26189995,0.200000003,2.29814005],"max":[2.26189995,11.3000002,3.29998994]},{"bufferView":1,"byteOffset":103728,"componentType":5126,"count":2388,"type":"VEC3"},{"bufferView":2,"byteOffset":50808,"componentType":5123,"count":7104,"type":"SCALAR"},{"bufferView":0,"byteOffset":132384,"componentType":5126,"count":2388,"type":"VEC3","min":[0.949989974,0.200000003,-3.16030002],"max":[3.29998994,11.3000002,0.757420003]},{"bufferView":1,"byteOffset":132384,"componentType":5126,"count":2388,"type":"VEC3"},{"bufferView":2,"byteOffset":65016,"componentType":5123,"count":7104,"type":"SCALAR"},{"bufferView":0,"byteOffset":161040,"componentType":5126,"count":2388,"type":"VEC3","min":[-3.29998994,0.200000003,-3.16030002],"max":[-0.949989974,11.3000002,0.757420003]},{"bufferView":1,"byteOffset":161040,"componentType":5126,"count":2388,"type":"VEC3"},{"bufferView":2,"byteOffset":79224,"componentType":5123,"count":7104,"type":"SCALAR"},{"bufferView":0,"byteOffset":189696,"componentType":5126,"count":292,"type":"VEC3","min":[1.57124615,9.92448235,0.491466224],"max":[11.8779507,11.2328882,7.27342463]},{"bufferView":1,"byteOffset":189696,"componentType":5126,"count":292,"type":"VEC3"},{"bufferView":2,"byteOffset":93432,"componentType":5123,"count":852,"type":"SCALAR"},{"bufferView":0,"byteOffset":193200,"componentType":5126,"count":84,"type":"VEC3","min":[0.963792324,10.8114071,-0.742588401],"max":[3.5592308,11.2091827,3.35396266]},{"bufferView":1,"byteOffset":193200,"componentType":5126,"count":84,"type":"VEC3"},{"bufferView":2,"byteOffset":95136,"componentType":5123,"count":240,"type":"SCALAR"},{"bufferView":0,"byteOffset":194208,"componentType":5126,"count":932,"type":"VEC3","min":[1.35354972,8.99193287,0.666638613],"max":[1.89310217,9.99118328,1.20629251]},{"bufferView":1,"byteOffset":194208,"componentType":5126,"count":932,"type":"VEC3"},{"bufferView":2,"byteOffset":95616,"componentType":5123,"count":5592,"type":"SCALAR"},{"bufferView":0,"byteOffset":205392,"componentType":5126,"count":810,"type":"VEC3","min":[1.57217216,10.0007143,0.769262254],"max":[1.94619203,10.4750652,1.26051331]},{"bufferView":1,"byteOffset":205392,"componentType":5126,"count":810,"type":"VEC3"},{"bufferView":2,"byteOffset":106800,"componentType":5123,"count":4212,"type":"SCALAR"},{"bufferView":0,"byteOffset":215112,"componentType":5126,"count":810,"type":"VEC3","min":[1.57217216,8.50806046,0.769262254],"max":[1.94619203,8.98241138,1.26051331]},{"bufferView":1,"byteOffset":215112,"componentType":5126,"count":810,"type":"VEC3"},{"bufferView":2,"byteOffset":115224,"componentType":5123,"count":4212,"type":"SCALAR"}],"materials":[{"pbrMetallicRoughness":{"baseColorFactor":[0.627451003,0.627451003,0.627451003,1],"metallicFactor":0},"doubleSided":true}],"meshes":[{"primitives":[{"attributes":{"POSITION":0,"NORMAL":1},"mode":4,"indices":2,"material":0}]},{"primitives":[{"attributes":{"POSITION":3,"NORMAL":4},"mode":4,"indices":5,"material":0}]},{"primitives":[{"attributes":{"POSITION":6,"NORMAL":7},"mode":4,"indices":8,"material":0}]},{"primitives":[{"attributes":{"POSITION":9,"NORMAL":10},"mode":4,"indices":11,"material":0}]},{"primitives":[{"attributes":{"POSITION":12,"NORMAL":13},"mode":4,"indices":14,"material":0}]},{"primitives":[{"attributes":{"POSITION":15,"NORMAL":16},"mode":4,"indices":17,"material":0}]},{"primitives":[{"attributes":{"POSITION":18,"NORMAL":19},"mode":4,"indices":20,"material":0}]},{"primitives":[{"attributes":{"POSITION":21,"NORMAL":22},"mode":4,"indices":23,"material":0}]},{"primitives":[{"attributes":{"POSITION":24,"NORMAL":25},"mode":4,"indices":26,"material":0}]}],"nodes":[{"mesh":0},{"mesh":1},{"mesh":2},{"mesh":3},{"mesh":4},{"mesh":5},{"mesh":6},{"mesh":7},{"mesh":8},{"name":"Frame","children":[0]},{"name":"Cover 1","children":[1]},{"name":"Cover 2","children":[2]},{"name":"Cover 3","children":[3]},{"name":"Wing-mount","children":[4]},{"name":"Wing-mount-rod","children":[5]},{"name":"Main","children":[6]},{"name":"Top","children":[7]},{"name":"Bottom","children":[8]}],"scenes":[{"nodes":[9,10,11,12,13,14,15,16,17]}]}