{"buffers":[{"uri":"motor.bin","byteLength":103824}],"asset":{"version":"2.0","generator":"gltfpack 0.16"},"bufferViews":[{"buffer":0,"byteOffset":0,"byteLength":41856,"byteStride":12,"target":34962},{"buffer":0,"byteOffset":41856,"byteLength":41856,"byteStride":12,"target":34962},{"buffer":0,"byteOffset":83712,"byteLength":20112,"target":34963}],"accessors":[{"bufferView":0,"byteOffset":0,"componentType":5126,"count":2030,"type":"VEC3","min":[-0.910000026,-0.635699987,-0.908529997],"max":[0.910000026,1.33657002,0.908529997]},{"bufferView":1,"byteOffset":0,"componentType":5126,"count":2030,"type":"VEC3"},{"bufferView":2,"byteOffset":0,"componentType":5123,"count":5766,"type":"SCALAR"},{"bufferView":0,"byteOffset":24360,"componentType":5126,"count":992,"type":"VEC3","min":[-0.593389988,-0.509989977,-0.593389988],"max":[0.593389988,-0.259990007,0.593389988]},{"bufferView":1,"byteOffset":24360,"componentType":5126,"count":992,"type":"VEC3"},{"bufferView":2,"byteOffset":11532,"componentType":5123,"count":2916,"type":"SCALAR"},{"bufferView":0,"byteOffset":36264,"componentType":5126,"count":230,"type":"VEC3","min":[-0.346269995,-0.267690003,-0.346150011],"max":[0.345779985,0,0.346150011]},{"bufferView":1,"byteOffset":36264,"componentType":5126,"count":230,"type":"VEC3"},{"bufferView":2,"byteOffset":17364,"componentType":5123,"count":678,"type":"SCALAR"},{"bufferView":0,"byteOffset":39024,"componentType":5126,"count":236,"type":"VEC3","min":[-0.814989984,0,-0.814710021],"max":[0.813839972,0.600000024,0.814710021]},{"bufferView":1,"byteOffset":39024,"componentType":5126,"count":236,"type":"VEC3"},{"bufferView":2,"byteOffset":18720,"componentType":5123,"count":696,"type":"SCALAR"}],"materials":[{"pbrMetallicRoughness":{"baseColorFactor":[0.701960802,0.701960802,0.701960802,1],"metallicFactor":0},"doubleSided":true},{"pbrMetallicRoughness":{"baseColorFactor":[0.627451003,0.627451003,0.627451003,1],"metallicFactor":0},"doubleSided":true}],"meshes":[{"primitives":[{"attributes":{"POSITION":0,"NORMAL":1},"mode":4,"indices":2,"material":0}]},{"primitives":[{"attributes":{"POSITION":3,"NORMAL":4},"mode":4,"indices":5,"material":0}]},{"primitives":[{"attributes":{"POSITION":6,"NORMAL":7},"mode":4,"indices":8,"material":1}]},{"primitives":[{"attributes":{"POSITION":9,"NORMAL":10},"mode":4,"indices":11,"material":0}]}],"nodes":[{"mesh":0},{"mesh":1},{"mesh":2},{"mesh":3},{"name":"rotor","children":[0]},{"name":"stator","children":[1]},{"name":"stator","children":[2]},{"name":"stator","children":[3]}],"scenes":[{"nodes":[4,5,6,7]}]}